G75*
G70*
%OFA0B0*%
%FSLAX24Y24*%
%IPPOS*%
%LPD*%
%AMOC8*
5,1,8,0,0,1.08239X$1,22.5*
%
%ADD10C,0.0080*%
%ADD11R,0.0787X0.0591*%
%ADD12R,0.0630X0.0710*%
%ADD13R,0.1378X0.0984*%
%ADD14OC8,0.0600*%
%ADD15C,0.0600*%
%ADD16R,0.4252X0.4098*%
%ADD17R,0.0420X0.0850*%
%ADD18R,0.1102X0.1496*%
%ADD19R,0.0630X0.0787*%
%ADD20R,0.1496X0.1102*%
%ADD21R,0.0630X0.0866*%
%ADD22C,0.0780*%
%ADD23C,0.0000*%
%ADD24OC8,0.1750*%
%ADD25C,0.0160*%
%ADD26C,0.0120*%
%ADD27C,0.0700*%
%ADD28OC8,0.0768*%
%ADD29C,0.0400*%
%ADD30C,0.0240*%
D10*
X000685Y002500D02*
X000685Y006043D01*
X000660Y006471D01*
X000701Y006897D01*
X000809Y007311D01*
X000981Y007704D01*
X001212Y008065D01*
X001496Y008385D01*
X001827Y008657D01*
X002197Y008874D01*
X002596Y009030D01*
X003014Y009122D01*
X020678Y009122D01*
X021019Y009182D01*
X021345Y009301D01*
X021646Y009475D01*
X021911Y009698D01*
X022134Y009964D01*
X022307Y010264D01*
X022426Y010591D01*
X022486Y010932D01*
X022485Y011279D01*
X022485Y036697D01*
X022486Y036697D02*
X022540Y037112D01*
X022665Y037512D01*
X022858Y037884D01*
X023112Y038217D01*
X023421Y038501D01*
X023774Y038727D01*
X024161Y038888D01*
X024570Y038980D01*
X024988Y038999D01*
X024988Y039000D02*
X044114Y039000D01*
X044115Y039000D02*
X044530Y038985D01*
X044937Y038899D01*
X045322Y038743D01*
X045675Y038523D01*
X045983Y038245D01*
X046239Y037918D01*
X046434Y037551D01*
X046563Y037155D01*
X046621Y036744D01*
X046620Y036744D02*
X046620Y005068D01*
X046621Y005068D02*
X046605Y004642D01*
X046516Y004225D01*
X046356Y003829D01*
X046129Y003468D01*
X045844Y003151D01*
X045507Y002889D01*
X045130Y002689D01*
X044724Y002558D01*
X044302Y002499D01*
X044302Y002500D02*
X000685Y002500D01*
X029025Y037740D02*
X029219Y037933D01*
X029412Y037740D01*
X029412Y038320D01*
X029633Y038030D02*
X029633Y037836D01*
X029730Y037740D01*
X029923Y037740D01*
X030020Y037933D02*
X029633Y037933D01*
X029633Y038030D02*
X029730Y038126D01*
X029923Y038126D01*
X030020Y038030D01*
X030020Y037933D01*
X030241Y037740D02*
X030531Y037740D01*
X030628Y037836D01*
X030628Y038030D01*
X030531Y038126D01*
X030241Y038126D01*
X030241Y038320D02*
X030241Y037740D01*
X031456Y037740D02*
X031746Y037740D01*
X031843Y037836D01*
X031843Y038030D01*
X031746Y038126D01*
X031456Y038126D01*
X031456Y038320D02*
X031456Y037740D01*
X032064Y037836D02*
X032161Y037740D01*
X032354Y037740D01*
X032451Y037836D01*
X032451Y038030D01*
X032354Y038126D01*
X032161Y038126D01*
X032064Y038030D01*
X032064Y037836D01*
X032672Y037836D02*
X032768Y037933D01*
X033059Y037933D01*
X033059Y038030D02*
X033059Y037740D01*
X032768Y037740D01*
X032672Y037836D01*
X032768Y038126D02*
X032962Y038126D01*
X033059Y038030D01*
X033279Y038126D02*
X033279Y037740D01*
X033279Y037933D02*
X033473Y038126D01*
X033570Y038126D01*
X033786Y038030D02*
X033883Y038126D01*
X034173Y038126D01*
X034173Y038320D02*
X034173Y037740D01*
X033883Y037740D01*
X033786Y037836D01*
X033786Y038030D01*
X035001Y038126D02*
X035195Y037740D01*
X035388Y038126D01*
X035609Y038126D02*
X035802Y038320D01*
X035802Y037740D01*
X035609Y037740D02*
X035996Y037740D01*
X029025Y037740D02*
X029025Y038320D01*
D11*
X031935Y025590D03*
X031935Y024409D03*
D12*
X037376Y032000D03*
X038495Y032000D03*
D13*
X038465Y011500D03*
X035906Y011500D03*
X035906Y006000D03*
X038465Y006000D03*
X022965Y006000D03*
X020406Y006000D03*
X016965Y006000D03*
X014406Y006000D03*
D14*
X025685Y013500D03*
X026685Y013500D03*
X026685Y014500D03*
X026685Y015500D03*
X025685Y015500D03*
X025685Y014500D03*
X025685Y016500D03*
X025685Y017500D03*
X026685Y017500D03*
X026685Y016500D03*
X029435Y021500D03*
X030435Y021500D03*
X030435Y022500D03*
X030435Y023500D03*
X029435Y023500D03*
X029435Y022500D03*
X029435Y024500D03*
X029435Y025500D03*
X030435Y025500D03*
X030435Y024500D03*
X030435Y026500D03*
X030435Y027500D03*
X029435Y027500D03*
X029435Y026500D03*
X029435Y028500D03*
X029435Y029500D03*
X030435Y029500D03*
X030435Y028500D03*
X030435Y030500D03*
X029435Y030500D03*
X037435Y030500D03*
X038435Y030500D03*
X038435Y029500D03*
X037435Y029500D03*
X037435Y028500D03*
X038435Y028500D03*
X038435Y027500D03*
X037435Y027500D03*
X037435Y026500D03*
X038435Y026500D03*
X038435Y025500D03*
X037435Y025500D03*
X037435Y024500D03*
X038435Y024500D03*
X038435Y023500D03*
X037435Y023500D03*
X037435Y022500D03*
X038435Y022500D03*
X038435Y021500D03*
X037435Y021500D03*
D15*
X006435Y004300D02*
X006435Y003700D01*
X005435Y003700D02*
X005435Y004300D01*
X004435Y004300D02*
X004435Y003700D01*
X003435Y003700D02*
X003435Y004300D01*
X002435Y004300D02*
X002435Y003700D01*
D16*
X031685Y006000D03*
D17*
X031685Y009280D03*
X031015Y009280D03*
X030345Y009280D03*
X032355Y009280D03*
X033025Y009280D03*
D18*
X033142Y011500D03*
X030229Y011500D03*
D19*
X030737Y014000D03*
X029634Y014000D03*
X032134Y014000D03*
X033237Y014000D03*
D20*
X041185Y012956D03*
X044185Y012956D03*
X044185Y010043D03*
X041185Y010043D03*
X041185Y007456D03*
X044185Y007456D03*
X044185Y004543D03*
X041185Y004543D03*
D21*
X011445Y006000D03*
X008926Y006000D03*
D22*
X041795Y027050D02*
X042575Y027050D01*
X042575Y029010D02*
X041795Y029010D01*
X041795Y030990D02*
X042575Y030990D01*
X042575Y032950D02*
X041795Y032950D01*
X041795Y035010D02*
X042575Y035010D01*
X042575Y036980D02*
X041795Y036980D01*
D23*
X026305Y037000D02*
X026343Y037215D01*
X026452Y037405D01*
X026620Y037546D01*
X026826Y037620D01*
X027044Y037620D01*
X027250Y037546D01*
X027418Y037405D01*
X027527Y037215D01*
X027565Y037000D01*
X027527Y036785D01*
X027418Y036595D01*
X027250Y036454D01*
X027044Y036380D01*
X026826Y036380D01*
X026620Y036454D01*
X026452Y036595D01*
X026343Y036785D01*
X026305Y037000D01*
X026305Y006000D02*
X026343Y006215D01*
X026452Y006405D01*
X026620Y006546D01*
X026826Y006620D01*
X027044Y006620D01*
X027250Y006546D01*
X027418Y006405D01*
X027527Y006215D01*
X027565Y006000D01*
X027527Y005785D01*
X027418Y005595D01*
X027250Y005454D01*
X027044Y005380D01*
X026826Y005380D01*
X026620Y005454D01*
X026452Y005595D01*
X026343Y005785D01*
X026305Y006000D01*
D24*
X040785Y016000D03*
X041985Y017950D03*
X043235Y016000D03*
D25*
X044685Y016000D01*
X045685Y015000D01*
X045685Y005750D01*
X044479Y004543D01*
X044185Y004543D01*
X044185Y004500D01*
X044185Y004543D02*
X041185Y004543D01*
X040117Y004561D02*
X034585Y004561D01*
X034585Y004719D02*
X040117Y004719D01*
X040117Y004878D02*
X034585Y004878D01*
X034585Y005036D02*
X040117Y005036D01*
X040117Y005158D02*
X040117Y003928D01*
X040166Y003810D01*
X040256Y003720D01*
X040374Y003672D01*
X041997Y003672D01*
X042115Y003720D01*
X042205Y003810D01*
X042253Y003928D01*
X042253Y004143D01*
X043117Y004143D01*
X043117Y003928D01*
X043166Y003810D01*
X043256Y003720D01*
X043374Y003672D01*
X044997Y003672D01*
X045115Y003720D01*
X045205Y003810D01*
X045253Y003928D01*
X045253Y004752D01*
X045912Y005410D01*
X046024Y005523D01*
X046085Y005670D01*
X046085Y014000D01*
X046100Y014000D01*
X046100Y005158D01*
X046096Y005145D01*
X046100Y005055D01*
X046100Y005033D01*
X046061Y004540D01*
X045892Y004066D01*
X045607Y003652D01*
X045224Y003326D01*
X044770Y003110D01*
X044279Y003019D01*
X001205Y003019D01*
X001205Y005976D01*
X001215Y006012D01*
X001205Y006079D01*
X001205Y006146D01*
X005535Y006146D01*
X005535Y006170D02*
X005535Y005670D01*
X005596Y005523D01*
X005709Y005410D01*
X006035Y005084D01*
X006035Y004776D01*
X005935Y004676D01*
X005787Y004825D01*
X005559Y004919D01*
X005312Y004919D01*
X005084Y004825D01*
X004910Y004651D01*
X004860Y004530D01*
X004842Y004571D01*
X004707Y004706D01*
X004531Y004779D01*
X004455Y004779D01*
X004455Y004020D01*
X004415Y004020D01*
X004415Y004779D01*
X004340Y004779D01*
X004163Y004706D01*
X004028Y004571D01*
X004011Y004530D01*
X003961Y004651D01*
X003787Y004825D01*
X003559Y004919D01*
X003312Y004919D01*
X003084Y004825D01*
X002935Y004676D01*
X002787Y004825D01*
X002559Y004919D01*
X002312Y004919D01*
X002084Y004825D01*
X001910Y004651D01*
X001815Y004423D01*
X001815Y003576D01*
X001910Y003348D01*
X002084Y003174D01*
X002312Y003080D01*
X002559Y003080D01*
X002787Y003174D01*
X002935Y003323D01*
X003084Y003174D01*
X003312Y003080D01*
X003559Y003080D01*
X003787Y003174D01*
X003961Y003348D01*
X004011Y003469D01*
X004028Y003428D01*
X004163Y003293D01*
X004340Y003220D01*
X004415Y003220D01*
X004415Y003979D01*
X004455Y003979D01*
X004455Y003220D01*
X004531Y003220D01*
X004707Y003293D01*
X004842Y003428D01*
X004860Y003469D01*
X004910Y003348D01*
X005084Y003174D01*
X005312Y003080D01*
X005559Y003080D01*
X005787Y003174D01*
X005935Y003323D01*
X006084Y003174D01*
X006312Y003080D01*
X006559Y003080D01*
X006787Y003174D01*
X006961Y003348D01*
X007055Y003576D01*
X007055Y004423D01*
X006961Y004651D01*
X006835Y004776D01*
X006835Y005170D01*
X006835Y005296D01*
X006977Y005296D01*
X007281Y005600D01*
X008291Y005600D01*
X008291Y005503D01*
X008339Y005385D01*
X008429Y005295D01*
X008547Y005246D01*
X009304Y005246D01*
X009422Y005295D01*
X009512Y005385D01*
X009560Y005503D01*
X009560Y006059D01*
X010601Y007100D01*
X014035Y007100D01*
X014035Y006812D01*
X013653Y006812D01*
X013536Y006763D01*
X013446Y006673D01*
X013397Y006555D01*
X013397Y005444D01*
X013446Y005326D01*
X013536Y005236D01*
X013653Y005187D01*
X015158Y005187D01*
X015276Y005236D01*
X015366Y005326D01*
X015415Y005444D01*
X015415Y006555D01*
X015366Y006673D01*
X015276Y006763D01*
X015158Y006812D01*
X014835Y006812D01*
X014835Y007100D01*
X020035Y007100D01*
X020035Y006812D01*
X019653Y006812D01*
X019536Y006763D01*
X019446Y006673D01*
X019397Y006555D01*
X019397Y005444D01*
X019446Y005326D01*
X019536Y005236D01*
X019653Y005187D01*
X021158Y005187D01*
X021276Y005236D01*
X021366Y005326D01*
X021415Y005444D01*
X021415Y006555D01*
X021366Y006673D01*
X021276Y006763D01*
X021158Y006812D01*
X020835Y006812D01*
X020835Y007100D01*
X023415Y007100D01*
X023562Y007160D01*
X023674Y007273D01*
X024062Y007660D01*
X024174Y007773D01*
X024235Y007920D01*
X024235Y011350D01*
X027356Y011350D01*
X027515Y011350D01*
X027662Y011410D01*
X029537Y013286D01*
X030013Y013286D01*
X030130Y013335D01*
X030185Y013389D01*
X030240Y013335D01*
X030358Y013286D01*
X030785Y013286D01*
X030785Y012428D01*
X030309Y012428D01*
X030309Y011580D01*
X030149Y011580D01*
X030149Y012428D01*
X029603Y012428D01*
X029497Y012322D01*
X029497Y011579D01*
X030149Y011579D01*
X030149Y011420D01*
X030149Y011419D02*
X030309Y011419D01*
X030309Y010571D01*
X030692Y010571D01*
X030676Y010556D01*
X030615Y010409D01*
X030615Y010250D01*
X030615Y009967D01*
X030534Y009886D01*
X030534Y009884D01*
X030370Y009884D01*
X030370Y009305D01*
X030320Y009305D01*
X030320Y009884D01*
X030061Y009884D01*
X029955Y009779D01*
X029955Y009305D01*
X030320Y009305D01*
X030320Y009254D01*
X030370Y009254D01*
X030370Y008675D01*
X030534Y008675D01*
X030534Y008673D01*
X030624Y008583D01*
X030742Y008535D01*
X031289Y008535D01*
X031407Y008583D01*
X031497Y008673D01*
X031497Y008675D01*
X031660Y008675D01*
X031660Y009254D01*
X031710Y009254D01*
X031710Y008675D01*
X031874Y008675D01*
X031874Y008673D01*
X031964Y008583D01*
X032082Y008535D01*
X032085Y008535D01*
X032251Y008369D01*
X029496Y008369D01*
X029378Y008320D01*
X029288Y008230D01*
X029239Y008112D01*
X029239Y003899D01*
X012101Y003899D01*
X011845Y004155D01*
X011845Y005255D01*
X011941Y005295D01*
X012031Y005385D01*
X012080Y005503D01*
X012080Y006496D01*
X012031Y006614D01*
X011941Y006704D01*
X011824Y006753D01*
X011067Y006753D01*
X010949Y006704D01*
X010859Y006614D01*
X010810Y006496D01*
X010810Y005503D01*
X010859Y005385D01*
X010949Y005295D01*
X011045Y005255D01*
X011045Y004069D01*
X011045Y003910D01*
X011106Y003763D01*
X011596Y003273D01*
X011709Y003160D01*
X011856Y003100D01*
X033856Y003100D01*
X034015Y003100D01*
X034162Y003160D01*
X034412Y003410D01*
X034524Y003523D01*
X034585Y003670D01*
X034585Y008170D01*
X034585Y008329D01*
X034524Y008476D01*
X034274Y008726D01*
X034162Y008839D01*
X034063Y008880D01*
X038245Y008880D01*
X038245Y006812D01*
X037712Y006812D01*
X037595Y006763D01*
X037505Y006673D01*
X037456Y006555D01*
X037456Y005444D01*
X037505Y005326D01*
X037595Y005236D01*
X037712Y005187D01*
X039218Y005187D01*
X039335Y005236D01*
X039425Y005326D01*
X039474Y005444D01*
X039474Y006555D01*
X039425Y006673D01*
X039335Y006763D01*
X039218Y006812D01*
X039125Y006812D01*
X039125Y009162D01*
X039125Y010687D01*
X039218Y010687D01*
X039335Y010736D01*
X039425Y010826D01*
X039474Y010944D01*
X039474Y011100D01*
X042520Y011100D01*
X043117Y010502D01*
X043117Y009428D01*
X043166Y009310D01*
X043256Y009220D01*
X043374Y009172D01*
X043785Y009172D01*
X043785Y008327D01*
X043374Y008327D01*
X043256Y008279D01*
X043166Y008189D01*
X043117Y008071D01*
X043117Y006841D01*
X043166Y006724D01*
X043256Y006634D01*
X043374Y006585D01*
X044997Y006585D01*
X045115Y006634D01*
X045205Y006724D01*
X045253Y006841D01*
X045253Y008071D01*
X045205Y008189D01*
X045115Y008279D01*
X044997Y008327D01*
X044585Y008327D01*
X044585Y009172D01*
X044997Y009172D01*
X045115Y009220D01*
X045205Y009310D01*
X045253Y009428D01*
X045253Y010658D01*
X045205Y010775D01*
X045115Y010865D01*
X044997Y010914D01*
X043836Y010914D01*
X042912Y011839D01*
X042765Y011899D01*
X042606Y011899D01*
X039474Y011899D01*
X039474Y012055D01*
X039425Y012173D01*
X039335Y012263D01*
X039335Y018684D01*
X044762Y024110D01*
X044874Y024223D01*
X044935Y024370D01*
X044935Y034820D01*
X044935Y034979D01*
X044874Y035126D01*
X043249Y036751D01*
X043285Y036838D01*
X043285Y037121D01*
X043177Y037382D01*
X042978Y037581D01*
X042717Y037689D01*
X041654Y037689D01*
X041393Y037581D01*
X041193Y037382D01*
X041085Y037121D01*
X041085Y036838D01*
X041193Y036577D01*
X041393Y036378D01*
X041654Y036270D01*
X042600Y036270D01*
X044135Y034734D01*
X044135Y031565D01*
X043165Y032535D01*
X043177Y032547D01*
X043285Y032808D01*
X043285Y033091D01*
X043177Y033352D01*
X042978Y033551D01*
X042717Y033659D01*
X041654Y033659D01*
X041393Y033551D01*
X041193Y033352D01*
X041085Y033091D01*
X041085Y032808D01*
X041193Y032547D01*
X041393Y032348D01*
X041654Y032240D01*
X042330Y032240D01*
X043635Y030934D01*
X043635Y030115D01*
X043170Y030580D01*
X043177Y030587D01*
X043285Y030848D01*
X043285Y031131D01*
X043177Y031392D01*
X042978Y031591D01*
X042717Y031699D01*
X041654Y031699D01*
X041393Y031591D01*
X041193Y031392D01*
X041085Y031131D01*
X041085Y030848D01*
X041193Y030587D01*
X041393Y030388D01*
X041654Y030280D01*
X042340Y030280D01*
X043135Y029484D01*
X043135Y029454D01*
X042978Y029611D01*
X042717Y029719D01*
X041654Y029719D01*
X041393Y029611D01*
X041193Y029412D01*
X041085Y029151D01*
X041085Y028868D01*
X041193Y028607D01*
X041210Y028590D01*
X040709Y028089D01*
X040596Y027976D01*
X040535Y027829D01*
X040535Y022815D01*
X036870Y019149D01*
X027056Y019149D01*
X026909Y019089D01*
X026796Y018976D01*
X025846Y018026D01*
X025827Y017979D01*
X025705Y017979D01*
X025705Y017520D01*
X025665Y017520D01*
X025665Y017979D01*
X025487Y017979D01*
X025435Y017928D01*
X025435Y018484D01*
X028274Y021323D01*
X028335Y021470D01*
X028335Y021629D01*
X028335Y029834D01*
X028601Y030100D01*
X028959Y030100D01*
X029059Y029999D01*
X028815Y029756D01*
X028815Y029243D01*
X029059Y028999D01*
X028815Y028756D01*
X028815Y028243D01*
X029059Y027999D01*
X028815Y027756D01*
X028815Y027243D01*
X029059Y026999D01*
X028815Y026756D01*
X028815Y026243D01*
X029158Y025901D01*
X028955Y025698D01*
X028955Y025520D01*
X029415Y025520D01*
X029415Y025479D01*
X028955Y025479D01*
X028955Y025301D01*
X029158Y025099D01*
X028815Y024756D01*
X028815Y024243D01*
X029059Y023999D01*
X028815Y023756D01*
X028815Y023243D01*
X029059Y022999D01*
X028815Y022756D01*
X028815Y022243D01*
X029059Y021999D01*
X028815Y021756D01*
X028815Y021243D01*
X029179Y020880D01*
X029692Y020880D01*
X029935Y021123D01*
X030179Y020880D01*
X030692Y020880D01*
X031055Y021243D01*
X031055Y021756D01*
X030812Y021999D01*
X031055Y022243D01*
X031055Y022756D01*
X030812Y022999D01*
X031055Y023243D01*
X031055Y023756D01*
X030812Y023999D01*
X031055Y024243D01*
X031055Y024756D01*
X030812Y024999D01*
X031003Y025190D01*
X031106Y025190D01*
X031239Y025190D01*
X031270Y025114D01*
X031360Y025024D01*
X031478Y024975D01*
X032393Y024975D01*
X032510Y025024D01*
X032600Y025114D01*
X032649Y025231D01*
X032649Y025949D01*
X032600Y026067D01*
X032510Y026157D01*
X032393Y026205D01*
X031585Y026205D01*
X031585Y030634D01*
X031701Y030750D01*
X035870Y030750D01*
X035935Y030684D01*
X035935Y029429D01*
X035935Y029270D01*
X035996Y029123D01*
X036459Y028660D01*
X036606Y028600D01*
X036765Y028600D01*
X036813Y028620D01*
X036815Y028620D01*
X036815Y028243D01*
X037059Y027999D01*
X036815Y027756D01*
X036815Y027243D01*
X037158Y026901D01*
X036955Y026698D01*
X036955Y026520D01*
X037415Y026520D01*
X037415Y026479D01*
X036955Y026479D01*
X036955Y026301D01*
X037158Y026099D01*
X036815Y025756D01*
X036815Y025243D01*
X037059Y024999D01*
X036815Y024756D01*
X036815Y024243D01*
X037059Y023999D01*
X036815Y023756D01*
X036815Y023243D01*
X037059Y022999D01*
X036815Y022756D01*
X036815Y022243D01*
X037158Y021901D01*
X036955Y021698D01*
X036955Y021520D01*
X037415Y021520D01*
X037415Y021479D01*
X037455Y021479D01*
X037455Y021020D01*
X037634Y021020D01*
X037915Y021301D01*
X037915Y021479D01*
X037456Y021479D01*
X037456Y021520D01*
X037915Y021520D01*
X037915Y021698D01*
X037713Y021901D01*
X037935Y022123D01*
X038158Y021901D01*
X037955Y021698D01*
X037955Y021520D01*
X038415Y021520D01*
X038415Y021479D01*
X038455Y021479D01*
X038455Y021020D01*
X038634Y021020D01*
X038915Y021301D01*
X038915Y021479D01*
X038456Y021479D01*
X038456Y021520D01*
X038915Y021520D01*
X038915Y021698D01*
X038713Y021901D01*
X039055Y022243D01*
X039055Y022756D01*
X038812Y022999D01*
X039055Y023243D01*
X039055Y023756D01*
X038812Y023999D01*
X039055Y024243D01*
X039055Y024756D01*
X038812Y024999D01*
X039055Y025243D01*
X039055Y025756D01*
X038713Y026099D01*
X038915Y026301D01*
X038915Y026479D01*
X038456Y026479D01*
X038456Y026520D01*
X038915Y026520D01*
X038915Y026698D01*
X038713Y026901D01*
X039055Y027243D01*
X039055Y027756D01*
X038812Y027999D01*
X039055Y028243D01*
X039055Y028756D01*
X038812Y028999D01*
X039055Y029243D01*
X039055Y029554D01*
X039412Y029910D01*
X039524Y030023D01*
X039585Y030170D01*
X039585Y032370D01*
X039585Y032529D01*
X039524Y032676D01*
X039062Y033139D01*
X038915Y033199D01*
X038756Y033199D01*
X036906Y033199D01*
X036759Y033139D01*
X036646Y033026D01*
X036370Y032749D01*
X027815Y032749D01*
X027656Y032749D01*
X027509Y032689D01*
X025946Y031126D01*
X025885Y030979D01*
X025885Y030820D01*
X025885Y022515D01*
X023209Y019839D01*
X023209Y019839D01*
X023096Y019726D01*
X023035Y019579D01*
X023035Y008465D01*
X022970Y008399D01*
X010415Y008399D01*
X010256Y008399D01*
X010109Y008339D01*
X008970Y007199D01*
X006565Y007199D01*
X006406Y007199D01*
X006259Y007139D01*
X005596Y006476D01*
X005535Y006329D01*
X005535Y006170D01*
X005535Y006305D02*
X001196Y006305D01*
X001199Y006161D02*
X001188Y006609D01*
X001285Y007094D01*
X001489Y007545D01*
X001787Y007940D01*
X002166Y008258D01*
X002606Y008484D01*
X003066Y008602D01*
X020598Y008602D01*
X020621Y008594D01*
X020701Y008602D01*
X020782Y008602D01*
X020803Y008611D01*
X021006Y008628D01*
X021544Y008802D01*
X022030Y009092D01*
X022439Y009482D01*
X022752Y009953D01*
X022752Y009953D01*
X022951Y010482D01*
X022951Y010482D01*
X023028Y011043D01*
X023005Y011301D01*
X023005Y036678D01*
X023089Y037160D01*
X023296Y037606D01*
X023612Y037984D01*
X024014Y038267D01*
X024476Y038436D01*
X024962Y038480D01*
X024977Y038480D01*
X025070Y038476D01*
X025080Y038480D01*
X026159Y038480D01*
X026095Y038454D01*
X025704Y038142D01*
X025422Y037728D01*
X025274Y037250D01*
X025274Y037250D01*
X025274Y036749D01*
X025422Y036271D01*
X025422Y036271D01*
X025704Y035857D01*
X026095Y035545D01*
X026095Y035545D01*
X026561Y035362D01*
X026562Y035362D01*
X027061Y035324D01*
X027549Y035436D01*
X027983Y035686D01*
X028323Y036053D01*
X028323Y036053D01*
X028541Y036504D01*
X028541Y036504D01*
X028615Y036999D01*
X028541Y037495D01*
X028323Y037946D01*
X027983Y038313D01*
X027983Y038313D01*
X027694Y038480D01*
X028685Y038480D01*
X028685Y038440D01*
X028665Y038392D01*
X028665Y037811D01*
X028665Y037668D01*
X028685Y037620D01*
X028685Y037300D01*
X036485Y037300D01*
X036485Y038480D01*
X044025Y038480D01*
X044038Y038475D01*
X044128Y038480D01*
X044151Y038480D01*
X044627Y038442D01*
X045086Y038280D01*
X045487Y038004D01*
X045803Y037634D01*
X046012Y037195D01*
X046100Y036720D01*
X046100Y014100D01*
X046085Y014100D01*
X046085Y014920D01*
X046085Y015079D01*
X046024Y015226D01*
X045085Y016165D01*
X045085Y019500D01*
X040485Y019500D01*
X039385Y018400D01*
X039385Y014000D01*
X040265Y014000D01*
X040265Y013783D01*
X040256Y013779D01*
X040166Y013689D01*
X040117Y013571D01*
X040117Y012341D01*
X040166Y012224D01*
X040256Y012134D01*
X040374Y012085D01*
X041997Y012085D01*
X042115Y012134D01*
X042205Y012224D01*
X042253Y012341D01*
X042253Y012556D01*
X043117Y012556D01*
X043117Y012341D01*
X043166Y012224D01*
X043256Y012134D01*
X043374Y012085D01*
X044997Y012085D01*
X045115Y012134D01*
X045205Y012224D01*
X045253Y012341D01*
X045253Y013571D01*
X045205Y013689D01*
X045115Y013779D01*
X044997Y013827D01*
X043374Y013827D01*
X043256Y013779D01*
X043166Y013689D01*
X043117Y013571D01*
X043117Y013356D01*
X042253Y013356D01*
X042253Y013571D01*
X042205Y013689D01*
X042115Y013779D01*
X041997Y013827D01*
X041305Y013827D01*
X041305Y014000D01*
X045285Y014000D01*
X045285Y005915D01*
X044784Y005414D01*
X043374Y005414D01*
X043256Y005365D01*
X043166Y005275D01*
X043117Y005158D01*
X043117Y004943D01*
X042253Y004943D01*
X042253Y005158D01*
X042205Y005275D01*
X042115Y005365D01*
X041997Y005414D01*
X040374Y005414D01*
X040256Y005365D01*
X040166Y005275D01*
X040117Y005158D01*
X040133Y005195D02*
X039235Y005195D01*
X039436Y005353D02*
X040244Y005353D01*
X039474Y005512D02*
X044882Y005512D01*
X045041Y005670D02*
X039474Y005670D01*
X039474Y005829D02*
X045199Y005829D01*
X045285Y005987D02*
X039474Y005987D01*
X039474Y006146D02*
X045285Y006146D01*
X045285Y006305D02*
X039474Y006305D01*
X039474Y006463D02*
X045285Y006463D01*
X045285Y006622D02*
X045085Y006622D01*
X045228Y006780D02*
X045285Y006780D01*
X045285Y006939D02*
X045253Y006939D01*
X045253Y007097D02*
X045285Y007097D01*
X045285Y007256D02*
X045253Y007256D01*
X045253Y007414D02*
X045285Y007414D01*
X045285Y007573D02*
X045253Y007573D01*
X045253Y007731D02*
X045285Y007731D01*
X045285Y007890D02*
X045253Y007890D01*
X045253Y008049D02*
X045285Y008049D01*
X045285Y008207D02*
X045186Y008207D01*
X045285Y008366D02*
X044585Y008366D01*
X044585Y008524D02*
X045285Y008524D01*
X045285Y008683D02*
X044585Y008683D01*
X044585Y008841D02*
X045285Y008841D01*
X045285Y009000D02*
X044585Y009000D01*
X044585Y009158D02*
X045285Y009158D01*
X045285Y009317D02*
X045207Y009317D01*
X045253Y009475D02*
X045285Y009475D01*
X045285Y009634D02*
X045253Y009634D01*
X045253Y009793D02*
X045285Y009793D01*
X045285Y009951D02*
X045253Y009951D01*
X045253Y010110D02*
X045285Y010110D01*
X045285Y010268D02*
X045253Y010268D01*
X045253Y010427D02*
X045285Y010427D01*
X045285Y010585D02*
X045253Y010585D01*
X045218Y010744D02*
X045285Y010744D01*
X045285Y010902D02*
X045025Y010902D01*
X045285Y011061D02*
X043690Y011061D01*
X043531Y011219D02*
X045285Y011219D01*
X045285Y011378D02*
X043373Y011378D01*
X043214Y011536D02*
X045285Y011536D01*
X045285Y011695D02*
X043055Y011695D01*
X042876Y011854D02*
X045285Y011854D01*
X045285Y012012D02*
X039474Y012012D01*
X039426Y012171D02*
X040219Y012171D01*
X040122Y012329D02*
X039335Y012329D01*
X039335Y012488D02*
X040117Y012488D01*
X040117Y012646D02*
X039335Y012646D01*
X039335Y012805D02*
X040117Y012805D01*
X040117Y012963D02*
X039335Y012963D01*
X039335Y013122D02*
X040117Y013122D01*
X040117Y013280D02*
X039335Y013280D01*
X039335Y013439D02*
X040117Y013439D01*
X040128Y013598D02*
X039335Y013598D01*
X039335Y013756D02*
X040233Y013756D01*
X040265Y013915D02*
X039335Y013915D01*
X039335Y014073D02*
X039385Y014073D01*
X039385Y014232D02*
X039335Y014232D01*
X039335Y014390D02*
X039385Y014390D01*
X039385Y014549D02*
X039335Y014549D01*
X039335Y014707D02*
X039385Y014707D01*
X039385Y014866D02*
X039335Y014866D01*
X039335Y015024D02*
X039385Y015024D01*
X039385Y015183D02*
X039335Y015183D01*
X039335Y015342D02*
X039385Y015342D01*
X039385Y015500D02*
X039335Y015500D01*
X039335Y015659D02*
X039385Y015659D01*
X039385Y015817D02*
X039335Y015817D01*
X039335Y015976D02*
X039385Y015976D01*
X039385Y016134D02*
X039335Y016134D01*
X039335Y016293D02*
X039385Y016293D01*
X039385Y016451D02*
X039335Y016451D01*
X039335Y016610D02*
X039385Y016610D01*
X039385Y016768D02*
X039335Y016768D01*
X039335Y016927D02*
X039385Y016927D01*
X039385Y017086D02*
X039335Y017086D01*
X039335Y017244D02*
X039385Y017244D01*
X039385Y017403D02*
X039335Y017403D01*
X039335Y017561D02*
X039385Y017561D01*
X039385Y017720D02*
X039335Y017720D01*
X039335Y017878D02*
X039385Y017878D01*
X039385Y018037D02*
X039335Y018037D01*
X039335Y018195D02*
X039385Y018195D01*
X039385Y018354D02*
X039335Y018354D01*
X039335Y018512D02*
X039498Y018512D01*
X039657Y018671D02*
X039335Y018671D01*
X039481Y018829D02*
X039815Y018829D01*
X039974Y018988D02*
X039640Y018988D01*
X039798Y019147D02*
X040132Y019147D01*
X040291Y019305D02*
X039957Y019305D01*
X040115Y019464D02*
X040449Y019464D01*
X040274Y019622D02*
X046100Y019622D01*
X046100Y019464D02*
X045085Y019464D01*
X045085Y019305D02*
X046100Y019305D01*
X046100Y019147D02*
X045085Y019147D01*
X045085Y018988D02*
X046100Y018988D01*
X046100Y018829D02*
X045085Y018829D01*
X045085Y018671D02*
X046100Y018671D01*
X046100Y018512D02*
X045085Y018512D01*
X045085Y018354D02*
X046100Y018354D01*
X046100Y018195D02*
X045085Y018195D01*
X045085Y018037D02*
X046100Y018037D01*
X046100Y017878D02*
X045085Y017878D01*
X045085Y017720D02*
X046100Y017720D01*
X046100Y017561D02*
X045085Y017561D01*
X045085Y017403D02*
X046100Y017403D01*
X046100Y017244D02*
X045085Y017244D01*
X045085Y017086D02*
X046100Y017086D01*
X046100Y016927D02*
X045085Y016927D01*
X045085Y016768D02*
X046100Y016768D01*
X046100Y016610D02*
X045085Y016610D01*
X045085Y016451D02*
X046100Y016451D01*
X046100Y016293D02*
X045085Y016293D01*
X045116Y016134D02*
X046100Y016134D01*
X046100Y015976D02*
X045275Y015976D01*
X045433Y015817D02*
X046100Y015817D01*
X046100Y015659D02*
X045592Y015659D01*
X045750Y015500D02*
X046100Y015500D01*
X046100Y015342D02*
X045909Y015342D01*
X046042Y015183D02*
X046100Y015183D01*
X046085Y015024D02*
X046100Y015024D01*
X046085Y014866D02*
X046100Y014866D01*
X046085Y014707D02*
X046100Y014707D01*
X046085Y014549D02*
X046100Y014549D01*
X046085Y014390D02*
X046100Y014390D01*
X046085Y014232D02*
X046100Y014232D01*
X046085Y013915D02*
X046100Y013915D01*
X046085Y013756D02*
X046100Y013756D01*
X046085Y013598D02*
X046100Y013598D01*
X046085Y013439D02*
X046100Y013439D01*
X046085Y013280D02*
X046100Y013280D01*
X046085Y013122D02*
X046100Y013122D01*
X046085Y012963D02*
X046100Y012963D01*
X046085Y012805D02*
X046100Y012805D01*
X046085Y012646D02*
X046100Y012646D01*
X046085Y012488D02*
X046100Y012488D01*
X046085Y012329D02*
X046100Y012329D01*
X046085Y012171D02*
X046100Y012171D01*
X046085Y012012D02*
X046100Y012012D01*
X046085Y011854D02*
X046100Y011854D01*
X046085Y011695D02*
X046100Y011695D01*
X046085Y011536D02*
X046100Y011536D01*
X046085Y011378D02*
X046100Y011378D01*
X046085Y011219D02*
X046100Y011219D01*
X046085Y011061D02*
X046100Y011061D01*
X046085Y010902D02*
X046100Y010902D01*
X046085Y010744D02*
X046100Y010744D01*
X046085Y010585D02*
X046100Y010585D01*
X046085Y010427D02*
X046100Y010427D01*
X046085Y010268D02*
X046100Y010268D01*
X046085Y010110D02*
X046100Y010110D01*
X046085Y009951D02*
X046100Y009951D01*
X046085Y009793D02*
X046100Y009793D01*
X046085Y009634D02*
X046100Y009634D01*
X046085Y009475D02*
X046100Y009475D01*
X046085Y009317D02*
X046100Y009317D01*
X046085Y009158D02*
X046100Y009158D01*
X046085Y009000D02*
X046100Y009000D01*
X046085Y008841D02*
X046100Y008841D01*
X046085Y008683D02*
X046100Y008683D01*
X046085Y008524D02*
X046100Y008524D01*
X046085Y008366D02*
X046100Y008366D01*
X046085Y008207D02*
X046100Y008207D01*
X046085Y008049D02*
X046100Y008049D01*
X046085Y007890D02*
X046100Y007890D01*
X046085Y007731D02*
X046100Y007731D01*
X046085Y007573D02*
X046100Y007573D01*
X046085Y007414D02*
X046100Y007414D01*
X046085Y007256D02*
X046100Y007256D01*
X046085Y007097D02*
X046100Y007097D01*
X046085Y006939D02*
X046100Y006939D01*
X046085Y006780D02*
X046100Y006780D01*
X046085Y006622D02*
X046100Y006622D01*
X046085Y006463D02*
X046100Y006463D01*
X046085Y006305D02*
X046100Y006305D01*
X046085Y006146D02*
X046100Y006146D01*
X046085Y005987D02*
X046100Y005987D01*
X046085Y005829D02*
X046100Y005829D01*
X046085Y005670D02*
X046100Y005670D01*
X046100Y005512D02*
X046013Y005512D01*
X046100Y005353D02*
X045855Y005353D01*
X045696Y005195D02*
X046100Y005195D01*
X046100Y005036D02*
X045538Y005036D01*
X045379Y004878D02*
X046088Y004878D01*
X046075Y004719D02*
X045253Y004719D01*
X045253Y004561D02*
X046063Y004561D01*
X046012Y004402D02*
X045253Y004402D01*
X045253Y004244D02*
X045956Y004244D01*
X045899Y004085D02*
X045253Y004085D01*
X045253Y003926D02*
X045796Y003926D01*
X045687Y003768D02*
X045162Y003768D01*
X045371Y003451D02*
X034452Y003451D01*
X034560Y003609D02*
X045557Y003609D01*
X045607Y003652D02*
X045607Y003652D01*
X045154Y003292D02*
X034294Y003292D01*
X034097Y003134D02*
X044820Y003134D01*
X043209Y003768D02*
X042162Y003768D01*
X042253Y003926D02*
X043118Y003926D01*
X043117Y004085D02*
X042253Y004085D01*
X042253Y005036D02*
X043117Y005036D01*
X043133Y005195D02*
X042238Y005195D01*
X042127Y005353D02*
X043244Y005353D01*
X043285Y006622D02*
X039446Y006622D01*
X039293Y006780D02*
X040308Y006780D01*
X040257Y006830D02*
X040363Y006725D01*
X041105Y006725D01*
X041105Y007376D01*
X040257Y007376D01*
X040257Y006830D01*
X040257Y006939D02*
X039125Y006939D01*
X039125Y007097D02*
X040257Y007097D01*
X040257Y007256D02*
X039125Y007256D01*
X039125Y007414D02*
X041105Y007414D01*
X041105Y007376D02*
X041105Y007536D01*
X040257Y007536D01*
X040257Y008082D01*
X040363Y008187D01*
X041105Y008187D01*
X041105Y007536D01*
X041265Y007536D01*
X041265Y008187D01*
X042008Y008187D01*
X042113Y008082D01*
X042113Y007536D01*
X041265Y007536D01*
X041265Y007376D01*
X041265Y006725D01*
X042008Y006725D01*
X042113Y006830D01*
X042113Y007376D01*
X041265Y007376D01*
X041105Y007376D01*
X041105Y007256D02*
X041265Y007256D01*
X041265Y007414D02*
X043117Y007414D01*
X043117Y007256D02*
X042113Y007256D01*
X042113Y007097D02*
X043117Y007097D01*
X043117Y006939D02*
X042113Y006939D01*
X042063Y006780D02*
X043143Y006780D01*
X043117Y007573D02*
X042113Y007573D01*
X042113Y007731D02*
X043117Y007731D01*
X043117Y007890D02*
X042113Y007890D01*
X042113Y008049D02*
X043117Y008049D01*
X043184Y008207D02*
X039125Y008207D01*
X039125Y008049D02*
X040257Y008049D01*
X040257Y007890D02*
X039125Y007890D01*
X039125Y007731D02*
X040257Y007731D01*
X040257Y007573D02*
X039125Y007573D01*
X039125Y008366D02*
X043785Y008366D01*
X043785Y008524D02*
X039125Y008524D01*
X039125Y008683D02*
X043785Y008683D01*
X043785Y008841D02*
X039125Y008841D01*
X039125Y009000D02*
X043785Y009000D01*
X043785Y009158D02*
X039125Y009158D01*
X039125Y009317D02*
X040358Y009317D01*
X040363Y009312D02*
X041105Y009312D01*
X041105Y009963D01*
X040257Y009963D01*
X040257Y009417D01*
X040363Y009312D01*
X040257Y009475D02*
X039125Y009475D01*
X039125Y009634D02*
X040257Y009634D01*
X040257Y009793D02*
X039125Y009793D01*
X039125Y009951D02*
X040257Y009951D01*
X040257Y010123D02*
X041105Y010123D01*
X041105Y009963D01*
X041265Y009963D01*
X041265Y009312D01*
X042008Y009312D01*
X042113Y009417D01*
X042113Y009963D01*
X041265Y009963D01*
X041265Y010123D01*
X041105Y010123D01*
X041105Y010774D01*
X040363Y010774D01*
X040257Y010669D01*
X040257Y010123D01*
X040257Y010268D02*
X039125Y010268D01*
X039125Y010110D02*
X041105Y010110D01*
X041105Y010268D02*
X041265Y010268D01*
X041265Y010123D02*
X041265Y010774D01*
X042008Y010774D01*
X042113Y010669D01*
X042113Y010123D01*
X041265Y010123D01*
X041265Y010110D02*
X043117Y010110D01*
X043117Y010268D02*
X042113Y010268D01*
X042113Y010427D02*
X043117Y010427D01*
X043034Y010585D02*
X042113Y010585D01*
X042038Y010744D02*
X042875Y010744D01*
X042717Y010902D02*
X039457Y010902D01*
X039474Y011061D02*
X042558Y011061D01*
X042685Y011500D02*
X044185Y010000D01*
X044185Y010043D01*
X044185Y010000D02*
X044185Y007456D01*
X043163Y009317D02*
X042013Y009317D01*
X042113Y009475D02*
X043117Y009475D01*
X043117Y009634D02*
X042113Y009634D01*
X042113Y009793D02*
X043117Y009793D01*
X043117Y009951D02*
X042113Y009951D01*
X041265Y009951D02*
X041105Y009951D01*
X041105Y009793D02*
X041265Y009793D01*
X041265Y009634D02*
X041105Y009634D01*
X041105Y009475D02*
X041265Y009475D01*
X041265Y009317D02*
X041105Y009317D01*
X041105Y010427D02*
X041265Y010427D01*
X041265Y010585D02*
X041105Y010585D01*
X041105Y010744D02*
X041265Y010744D01*
X040333Y010744D02*
X039343Y010744D01*
X039125Y010585D02*
X040257Y010585D01*
X040257Y010427D02*
X039125Y010427D01*
X038245Y010427D02*
X032755Y010427D01*
X032755Y010431D02*
X033757Y010431D01*
X033874Y010480D01*
X033964Y010570D01*
X034013Y010688D01*
X034013Y012311D01*
X033964Y012429D01*
X033874Y012519D01*
X033757Y012568D01*
X032527Y012568D01*
X032410Y012519D01*
X032320Y012429D01*
X032271Y012311D01*
X032271Y011151D01*
X032016Y010896D01*
X031955Y010749D01*
X031955Y010590D01*
X031955Y009967D01*
X031874Y009886D01*
X031874Y009884D01*
X031710Y009884D01*
X031710Y009305D01*
X031660Y009305D01*
X031660Y009884D01*
X031497Y009884D01*
X031497Y009886D01*
X031415Y009967D01*
X031415Y010164D01*
X031524Y010273D01*
X031585Y010420D01*
X031585Y013387D01*
X031638Y013335D01*
X031756Y013286D01*
X032513Y013286D01*
X032630Y013335D01*
X032720Y013425D01*
X032758Y013515D01*
X032847Y013426D01*
X033159Y013426D01*
X033159Y013922D01*
X033314Y013922D01*
X033314Y014077D01*
X033159Y014077D01*
X033159Y014573D01*
X032847Y014573D01*
X032758Y014484D01*
X032720Y014574D01*
X032630Y014664D01*
X032513Y014713D01*
X031756Y014713D01*
X031638Y014664D01*
X031548Y014574D01*
X031499Y014457D01*
X031499Y014399D01*
X031371Y014399D01*
X031371Y014457D01*
X031323Y014574D01*
X031233Y014664D01*
X031115Y014713D01*
X030358Y014713D01*
X030240Y014664D01*
X030185Y014610D01*
X030130Y014664D01*
X030013Y014713D01*
X029256Y014713D01*
X029138Y014664D01*
X029048Y014574D01*
X028999Y014457D01*
X028999Y013879D01*
X027270Y012149D01*
X024235Y012149D01*
X024235Y013384D01*
X024996Y012623D01*
X025109Y012510D01*
X025256Y012450D01*
X026115Y012450D01*
X026262Y012510D01*
X026374Y012623D01*
X026631Y012880D01*
X026942Y012880D01*
X027305Y013243D01*
X027305Y013756D01*
X028876Y013756D01*
X028999Y013915D02*
X027147Y013915D01*
X027062Y014000D02*
X027305Y013756D01*
X027305Y013598D02*
X028718Y013598D01*
X028559Y013439D02*
X027305Y013439D01*
X027305Y013280D02*
X028401Y013280D01*
X028242Y013122D02*
X027185Y013122D01*
X027026Y012963D02*
X028084Y012963D01*
X027925Y012805D02*
X026556Y012805D01*
X026398Y012646D02*
X027766Y012646D01*
X027608Y012488D02*
X026207Y012488D01*
X026035Y012850D02*
X025335Y012850D01*
X024235Y013950D01*
X024235Y019050D01*
X027085Y021900D01*
X027085Y030500D01*
X028135Y031550D01*
X036235Y031550D01*
X036735Y031050D01*
X036735Y029700D01*
X036935Y029500D01*
X037435Y029500D01*
X037935Y029850D02*
X037935Y030000D01*
X037435Y030500D01*
X037376Y030559D01*
X037376Y032000D01*
X037385Y032000D01*
X037335Y031950D01*
X027935Y031950D01*
X026685Y030700D01*
X026685Y022150D01*
X023835Y019300D01*
X023835Y011750D01*
X023835Y008000D01*
X023335Y007500D01*
X020435Y007500D01*
X020435Y006000D01*
X020406Y006000D01*
X020551Y006116D01*
X021415Y006146D02*
X022096Y006146D01*
X022096Y006079D02*
X022885Y006079D01*
X022885Y005920D01*
X022096Y005920D01*
X022096Y005433D01*
X022201Y005327D01*
X022885Y005327D01*
X022885Y005919D01*
X023045Y005919D01*
X023045Y005327D01*
X023728Y005327D01*
X023834Y005433D01*
X023834Y005920D01*
X023045Y005920D01*
X023045Y006079D01*
X023834Y006079D01*
X023834Y006566D01*
X023728Y006672D01*
X023045Y006672D01*
X023045Y006080D01*
X022885Y006080D01*
X022885Y006672D01*
X022201Y006672D01*
X022096Y006566D01*
X022096Y006079D01*
X022096Y006305D02*
X021415Y006305D01*
X021415Y006463D02*
X022096Y006463D01*
X022151Y006622D02*
X021387Y006622D01*
X021234Y006780D02*
X025457Y006780D01*
X025422Y006728D02*
X025274Y006250D01*
X025274Y006250D01*
X025274Y005749D01*
X025422Y005271D01*
X025422Y005271D01*
X025704Y004857D01*
X026095Y004545D01*
X026095Y004545D01*
X026561Y004362D01*
X026562Y004362D01*
X027061Y004324D01*
X027549Y004436D01*
X027983Y004686D01*
X028323Y005053D01*
X028323Y005053D01*
X028541Y005504D01*
X028541Y005504D01*
X028615Y006000D01*
X028541Y006495D01*
X028323Y006946D01*
X027983Y007313D01*
X027983Y007313D01*
X027549Y007563D01*
X027061Y007675D01*
X026561Y007637D01*
X026095Y007454D01*
X025704Y007142D01*
X025422Y006728D01*
X025422Y006728D01*
X025389Y006622D02*
X023778Y006622D01*
X023834Y006463D02*
X025340Y006463D01*
X025291Y006305D02*
X023834Y006305D01*
X023834Y006146D02*
X025274Y006146D01*
X025274Y005987D02*
X023045Y005987D01*
X023045Y005829D02*
X022885Y005829D01*
X022885Y005987D02*
X021415Y005987D01*
X021415Y005829D02*
X022096Y005829D01*
X022096Y005670D02*
X021415Y005670D01*
X021415Y005512D02*
X022096Y005512D01*
X022175Y005353D02*
X021377Y005353D01*
X021176Y005195D02*
X025473Y005195D01*
X025396Y005353D02*
X023754Y005353D01*
X023834Y005512D02*
X025347Y005512D01*
X025298Y005670D02*
X023834Y005670D01*
X023834Y005829D02*
X025274Y005829D01*
X025274Y005749D02*
X025274Y005749D01*
X025581Y005036D02*
X011845Y005036D01*
X011845Y004878D02*
X025690Y004878D01*
X025704Y004857D02*
X025704Y004857D01*
X025704Y004857D01*
X025876Y004719D02*
X011845Y004719D01*
X011845Y004561D02*
X026075Y004561D01*
X026459Y004402D02*
X011845Y004402D01*
X011845Y004244D02*
X029239Y004244D01*
X029239Y004402D02*
X027402Y004402D01*
X027549Y004436D02*
X027549Y004436D01*
X027765Y004561D02*
X029239Y004561D01*
X029239Y004719D02*
X028014Y004719D01*
X027983Y004686D02*
X027983Y004686D01*
X028161Y004878D02*
X029239Y004878D01*
X029239Y005036D02*
X028308Y005036D01*
X028392Y005195D02*
X029239Y005195D01*
X029239Y005353D02*
X028468Y005353D01*
X028542Y005512D02*
X029239Y005512D01*
X029239Y005670D02*
X028566Y005670D01*
X028590Y005829D02*
X029239Y005829D01*
X029239Y005987D02*
X028613Y005987D01*
X028593Y006146D02*
X029239Y006146D01*
X029239Y006305D02*
X028569Y006305D01*
X028545Y006463D02*
X029239Y006463D01*
X029239Y006622D02*
X028480Y006622D01*
X028541Y006495D02*
X028541Y006495D01*
X028403Y006780D02*
X029239Y006780D01*
X029239Y006939D02*
X028327Y006939D01*
X028323Y006946D02*
X028323Y006946D01*
X028183Y007097D02*
X029239Y007097D01*
X029239Y007256D02*
X028036Y007256D01*
X027807Y007414D02*
X029239Y007414D01*
X029239Y007573D02*
X027507Y007573D01*
X026397Y007573D02*
X023974Y007573D01*
X024062Y007660D02*
X024062Y007660D01*
X024133Y007731D02*
X029239Y007731D01*
X029239Y007890D02*
X024223Y007890D01*
X024235Y008049D02*
X029239Y008049D01*
X029279Y008207D02*
X024235Y008207D01*
X024235Y008366D02*
X029488Y008366D01*
X029955Y008780D02*
X030061Y008675D01*
X030320Y008675D01*
X030320Y009254D01*
X029955Y009254D01*
X029955Y008780D01*
X029955Y008841D02*
X024235Y008841D01*
X024235Y008683D02*
X030053Y008683D01*
X030320Y008683D02*
X030370Y008683D01*
X030370Y008841D02*
X030320Y008841D01*
X030320Y009000D02*
X030370Y009000D01*
X030370Y009158D02*
X030320Y009158D01*
X030320Y009317D02*
X030370Y009317D01*
X030370Y009475D02*
X030320Y009475D01*
X030320Y009634D02*
X030370Y009634D01*
X030370Y009793D02*
X030320Y009793D01*
X030599Y009951D02*
X024235Y009951D01*
X024235Y009793D02*
X029969Y009793D01*
X029955Y009634D02*
X024235Y009634D01*
X024235Y009475D02*
X029955Y009475D01*
X029955Y009317D02*
X024235Y009317D01*
X024235Y009158D02*
X029955Y009158D01*
X029955Y009000D02*
X024235Y009000D01*
X024235Y008524D02*
X032095Y008524D01*
X032355Y008830D02*
X032685Y008500D01*
X033935Y008500D01*
X034185Y008250D01*
X034185Y003750D01*
X033935Y003500D01*
X011935Y003500D01*
X011445Y003990D01*
X011445Y006000D01*
X012080Y005987D02*
X013397Y005987D01*
X013397Y005829D02*
X012080Y005829D01*
X012080Y005670D02*
X013397Y005670D01*
X013397Y005512D02*
X012080Y005512D01*
X012000Y005353D02*
X013434Y005353D01*
X013635Y005195D02*
X011845Y005195D01*
X011045Y005195D02*
X006835Y005195D01*
X006835Y005036D02*
X011045Y005036D01*
X011045Y004878D02*
X006835Y004878D01*
X006893Y004719D02*
X011045Y004719D01*
X011045Y004561D02*
X006998Y004561D01*
X007055Y004402D02*
X011045Y004402D01*
X011045Y004244D02*
X007055Y004244D01*
X007055Y004085D02*
X011045Y004085D01*
X011045Y003926D02*
X007055Y003926D01*
X007055Y003768D02*
X011104Y003768D01*
X011260Y003609D02*
X007055Y003609D01*
X007003Y003451D02*
X011418Y003451D01*
X011577Y003292D02*
X006905Y003292D01*
X006689Y003134D02*
X011773Y003134D01*
X012074Y003926D02*
X029239Y003926D01*
X029239Y004085D02*
X011916Y004085D01*
X010891Y005353D02*
X009480Y005353D01*
X009560Y005512D02*
X010810Y005512D01*
X010810Y005670D02*
X009560Y005670D01*
X009560Y005829D02*
X010810Y005829D01*
X010810Y005987D02*
X009560Y005987D01*
X009648Y006146D02*
X010810Y006146D01*
X010810Y006305D02*
X009806Y006305D01*
X009965Y006463D02*
X010810Y006463D01*
X010867Y006622D02*
X010123Y006622D01*
X010282Y006780D02*
X013577Y006780D01*
X013424Y006622D02*
X012024Y006622D01*
X012080Y006463D02*
X013397Y006463D01*
X013397Y006305D02*
X012080Y006305D01*
X012080Y006146D02*
X013397Y006146D01*
X014035Y006939D02*
X010440Y006939D01*
X010599Y007097D02*
X014035Y007097D01*
X014435Y007500D02*
X020435Y007500D01*
X020035Y007097D02*
X014835Y007097D01*
X014835Y006939D02*
X020035Y006939D01*
X019577Y006780D02*
X015234Y006780D01*
X015387Y006622D02*
X016151Y006622D01*
X016201Y006672D02*
X016096Y006566D01*
X016096Y006079D01*
X016885Y006079D01*
X016885Y005920D01*
X016096Y005920D01*
X016096Y005433D01*
X016201Y005327D01*
X016885Y005327D01*
X016885Y005919D01*
X017045Y005919D01*
X017045Y005327D01*
X017728Y005327D01*
X017834Y005433D01*
X017834Y005920D01*
X017045Y005920D01*
X017045Y006079D01*
X017834Y006079D01*
X017834Y006566D01*
X017728Y006672D01*
X017045Y006672D01*
X017045Y006080D01*
X016885Y006080D01*
X016885Y006672D01*
X016201Y006672D01*
X016096Y006463D02*
X015415Y006463D01*
X015415Y006305D02*
X016096Y006305D01*
X016096Y006146D02*
X015415Y006146D01*
X015415Y005987D02*
X016885Y005987D01*
X016885Y005829D02*
X017045Y005829D01*
X017045Y005987D02*
X019397Y005987D01*
X019397Y005829D02*
X017834Y005829D01*
X017834Y005670D02*
X019397Y005670D01*
X019397Y005512D02*
X017834Y005512D01*
X017754Y005353D02*
X019434Y005353D01*
X019635Y005195D02*
X015176Y005195D01*
X015377Y005353D02*
X016175Y005353D01*
X016096Y005512D02*
X015415Y005512D01*
X015415Y005670D02*
X016096Y005670D01*
X016096Y005829D02*
X015415Y005829D01*
X014435Y006000D02*
X014435Y007500D01*
X010435Y007500D01*
X008935Y006000D01*
X008926Y006000D01*
X006685Y006000D01*
X005935Y005750D02*
X005935Y006250D01*
X006485Y006800D01*
X009135Y006800D01*
X010335Y008000D01*
X023135Y008000D01*
X023435Y008300D01*
X023435Y019500D01*
X026285Y022350D01*
X026285Y030900D01*
X027735Y032350D01*
X036535Y032350D01*
X036985Y032800D01*
X038835Y032800D01*
X039185Y032450D01*
X039185Y030250D01*
X038435Y029500D01*
X039055Y029452D02*
X041234Y029452D01*
X041144Y029293D02*
X039055Y029293D01*
X038947Y029135D02*
X041085Y029135D01*
X041085Y028976D02*
X038835Y028976D01*
X038994Y028818D02*
X041106Y028818D01*
X041172Y028659D02*
X039055Y028659D01*
X039055Y028501D02*
X041121Y028501D01*
X040962Y028342D02*
X039055Y028342D01*
X038996Y028184D02*
X040804Y028184D01*
X040645Y028025D02*
X038838Y028025D01*
X038945Y027866D02*
X040551Y027866D01*
X040535Y027708D02*
X039055Y027708D01*
X039055Y027549D02*
X040535Y027549D01*
X040535Y027391D02*
X039055Y027391D01*
X039045Y027232D02*
X040535Y027232D01*
X040535Y027074D02*
X038886Y027074D01*
X038728Y026915D02*
X040535Y026915D01*
X040535Y026757D02*
X038857Y026757D01*
X038915Y026598D02*
X040535Y026598D01*
X040535Y026440D02*
X038915Y026440D01*
X038896Y026281D02*
X040535Y026281D01*
X040535Y026122D02*
X038737Y026122D01*
X038848Y025964D02*
X040535Y025964D01*
X040535Y025805D02*
X039006Y025805D01*
X039055Y025647D02*
X040535Y025647D01*
X040535Y025488D02*
X039055Y025488D01*
X039055Y025330D02*
X040535Y025330D01*
X040535Y025171D02*
X038984Y025171D01*
X038825Y025013D02*
X040535Y025013D01*
X040535Y024854D02*
X038957Y024854D01*
X039055Y024696D02*
X040535Y024696D01*
X040535Y024537D02*
X039055Y024537D01*
X039055Y024379D02*
X040535Y024379D01*
X040535Y024220D02*
X039033Y024220D01*
X038874Y024061D02*
X040535Y024061D01*
X040535Y023903D02*
X038909Y023903D01*
X039055Y023744D02*
X040535Y023744D01*
X040535Y023586D02*
X039055Y023586D01*
X039055Y023427D02*
X040535Y023427D01*
X040535Y023269D02*
X039055Y023269D01*
X038923Y023110D02*
X040535Y023110D01*
X040535Y022952D02*
X038860Y022952D01*
X039019Y022793D02*
X040513Y022793D01*
X040355Y022635D02*
X039055Y022635D01*
X039055Y022476D02*
X040196Y022476D01*
X040038Y022317D02*
X039055Y022317D01*
X038971Y022159D02*
X039879Y022159D01*
X039721Y022000D02*
X038813Y022000D01*
X038772Y021842D02*
X039562Y021842D01*
X039403Y021683D02*
X038915Y021683D01*
X038915Y021525D02*
X039245Y021525D01*
X039086Y021366D02*
X038915Y021366D01*
X038928Y021208D02*
X038822Y021208D01*
X038769Y021049D02*
X038664Y021049D01*
X038611Y020891D02*
X030703Y020891D01*
X030862Y021049D02*
X037207Y021049D01*
X037237Y021020D02*
X037415Y021020D01*
X037415Y021479D01*
X036955Y021479D01*
X036955Y021301D01*
X037237Y021020D01*
X037415Y021049D02*
X037455Y021049D01*
X037455Y021208D02*
X037415Y021208D01*
X037415Y021366D02*
X037455Y021366D01*
X037664Y021049D02*
X038207Y021049D01*
X038237Y021020D02*
X038415Y021020D01*
X038415Y021479D01*
X037955Y021479D01*
X037955Y021301D01*
X038237Y021020D01*
X038415Y021049D02*
X038455Y021049D01*
X038455Y021208D02*
X038415Y021208D01*
X038415Y021366D02*
X038455Y021366D01*
X038048Y021208D02*
X037822Y021208D01*
X037915Y021366D02*
X037955Y021366D01*
X037955Y021525D02*
X037915Y021525D01*
X037915Y021683D02*
X037955Y021683D01*
X038099Y021842D02*
X037772Y021842D01*
X037813Y022000D02*
X038058Y022000D01*
X037099Y021842D02*
X030970Y021842D01*
X031055Y021683D02*
X036955Y021683D01*
X036955Y021525D02*
X031055Y021525D01*
X031055Y021366D02*
X036955Y021366D01*
X037048Y021208D02*
X031020Y021208D01*
X030813Y022000D02*
X037058Y022000D01*
X036899Y022159D02*
X030971Y022159D01*
X031055Y022317D02*
X036815Y022317D01*
X036815Y022476D02*
X031055Y022476D01*
X031055Y022635D02*
X036815Y022635D01*
X036852Y022793D02*
X031019Y022793D01*
X030860Y022952D02*
X037011Y022952D01*
X036948Y023110D02*
X030923Y023110D01*
X031055Y023269D02*
X036815Y023269D01*
X036815Y023427D02*
X031055Y023427D01*
X031055Y023586D02*
X036815Y023586D01*
X036815Y023744D02*
X031055Y023744D01*
X030909Y023903D02*
X036962Y023903D01*
X036997Y024061D02*
X032509Y024061D01*
X032509Y024039D02*
X032509Y024341D01*
X032003Y024341D01*
X032003Y023934D01*
X032404Y023934D01*
X032509Y024039D01*
X032509Y024220D02*
X036838Y024220D01*
X036815Y024379D02*
X032003Y024379D01*
X032003Y024341D02*
X032003Y024477D01*
X031868Y024477D01*
X031868Y024884D01*
X031467Y024884D01*
X031362Y024779D01*
X031362Y024477D01*
X031867Y024477D01*
X031867Y024341D01*
X031362Y024341D01*
X031362Y024039D01*
X031467Y023934D01*
X031868Y023934D01*
X031868Y024341D01*
X032003Y024341D01*
X032003Y024220D02*
X031868Y024220D01*
X031867Y024379D02*
X031055Y024379D01*
X031055Y024537D02*
X031362Y024537D01*
X031362Y024696D02*
X031055Y024696D01*
X030957Y024854D02*
X031437Y024854D01*
X031386Y025013D02*
X030825Y025013D01*
X030984Y025171D02*
X031246Y025171D01*
X031868Y024854D02*
X032003Y024854D01*
X032003Y024884D02*
X032003Y024477D01*
X032509Y024477D01*
X032509Y024779D01*
X032404Y024884D01*
X032003Y024884D01*
X032003Y024696D02*
X031868Y024696D01*
X031868Y024537D02*
X032003Y024537D01*
X032003Y024061D02*
X031868Y024061D01*
X031362Y024061D02*
X030874Y024061D01*
X031033Y024220D02*
X031362Y024220D01*
X032434Y024854D02*
X036913Y024854D01*
X036815Y024696D02*
X032509Y024696D01*
X032509Y024537D02*
X036815Y024537D01*
X037045Y025013D02*
X032484Y025013D01*
X032624Y025171D02*
X036887Y025171D01*
X036815Y025330D02*
X032649Y025330D01*
X032649Y025488D02*
X036815Y025488D01*
X036815Y025647D02*
X032649Y025647D01*
X032649Y025805D02*
X036864Y025805D01*
X037023Y025964D02*
X032643Y025964D01*
X032544Y026122D02*
X037134Y026122D01*
X036975Y026281D02*
X031585Y026281D01*
X031585Y026440D02*
X036955Y026440D01*
X036955Y026598D02*
X031585Y026598D01*
X031585Y026757D02*
X037014Y026757D01*
X037143Y026915D02*
X031585Y026915D01*
X031585Y027074D02*
X036984Y027074D01*
X036826Y027232D02*
X031585Y027232D01*
X031585Y027391D02*
X036815Y027391D01*
X036815Y027549D02*
X031585Y027549D01*
X031585Y027708D02*
X036815Y027708D01*
X036926Y027866D02*
X031585Y027866D01*
X031585Y028025D02*
X037033Y028025D01*
X036875Y028184D02*
X031585Y028184D01*
X031585Y028342D02*
X036815Y028342D01*
X036815Y028501D02*
X031585Y028501D01*
X031585Y028659D02*
X036462Y028659D01*
X036301Y028818D02*
X031585Y028818D01*
X031585Y028976D02*
X036143Y028976D01*
X035991Y029135D02*
X031585Y029135D01*
X031585Y029293D02*
X035935Y029293D01*
X035935Y029452D02*
X031585Y029452D01*
X031585Y029610D02*
X035935Y029610D01*
X035935Y029769D02*
X031585Y029769D01*
X031585Y029928D02*
X035935Y029928D01*
X035935Y030086D02*
X031585Y030086D01*
X031585Y030245D02*
X035935Y030245D01*
X035935Y030403D02*
X031585Y030403D01*
X031585Y030562D02*
X035935Y030562D01*
X035899Y030720D02*
X031672Y030720D01*
X031535Y031150D02*
X031185Y030800D01*
X031185Y025590D01*
X031935Y025590D01*
X031185Y025590D02*
X030526Y025590D01*
X030435Y025500D01*
X029415Y025488D02*
X028335Y025488D01*
X028335Y025330D02*
X028955Y025330D01*
X029085Y025171D02*
X028335Y025171D01*
X028335Y025013D02*
X029072Y025013D01*
X028913Y024854D02*
X028335Y024854D01*
X028335Y024696D02*
X028815Y024696D01*
X028815Y024537D02*
X028335Y024537D01*
X028335Y024379D02*
X028815Y024379D01*
X028838Y024220D02*
X028335Y024220D01*
X028335Y024061D02*
X028997Y024061D01*
X028962Y023903D02*
X028335Y023903D01*
X028335Y023744D02*
X028815Y023744D01*
X028815Y023586D02*
X028335Y023586D01*
X028335Y023427D02*
X028815Y023427D01*
X028815Y023269D02*
X028335Y023269D01*
X028335Y023110D02*
X028948Y023110D01*
X029011Y022952D02*
X028335Y022952D01*
X028335Y022793D02*
X028852Y022793D01*
X028815Y022635D02*
X028335Y022635D01*
X028335Y022476D02*
X028815Y022476D01*
X028815Y022317D02*
X028335Y022317D01*
X028335Y022159D02*
X028899Y022159D01*
X029058Y022000D02*
X028335Y022000D01*
X028335Y021842D02*
X028901Y021842D01*
X028815Y021683D02*
X028335Y021683D01*
X028335Y021525D02*
X028815Y021525D01*
X028815Y021366D02*
X028292Y021366D01*
X028159Y021208D02*
X028850Y021208D01*
X029009Y021049D02*
X028001Y021049D01*
X027842Y020891D02*
X029168Y020891D01*
X029703Y020891D02*
X030168Y020891D01*
X030009Y021049D02*
X029862Y021049D01*
X027935Y021550D02*
X025035Y018650D01*
X025035Y014350D01*
X025385Y014000D01*
X025285Y013500D02*
X024635Y014150D01*
X024635Y018850D01*
X027535Y021750D01*
X027535Y030350D01*
X028335Y031150D01*
X029785Y031150D01*
X030435Y030500D01*
X029435Y030500D02*
X028435Y030500D01*
X027935Y030000D01*
X027935Y021550D01*
X027684Y020732D02*
X038452Y020732D01*
X038294Y020573D02*
X027525Y020573D01*
X027366Y020415D02*
X038135Y020415D01*
X037977Y020256D02*
X027208Y020256D01*
X027049Y020098D02*
X037818Y020098D01*
X037659Y019939D02*
X026891Y019939D01*
X026732Y019781D02*
X037501Y019781D01*
X037342Y019622D02*
X026574Y019622D01*
X026415Y019464D02*
X037184Y019464D01*
X037025Y019305D02*
X026257Y019305D01*
X026098Y019147D02*
X027049Y019147D01*
X026808Y018988D02*
X025940Y018988D01*
X025781Y018829D02*
X026650Y018829D01*
X026491Y018671D02*
X025622Y018671D01*
X025464Y018512D02*
X026333Y018512D01*
X026174Y018354D02*
X025435Y018354D01*
X025435Y018195D02*
X026015Y018195D01*
X025857Y018037D02*
X025435Y018037D01*
X025665Y017878D02*
X025705Y017878D01*
X025705Y017720D02*
X025665Y017720D01*
X025665Y017561D02*
X025705Y017561D01*
X026185Y017800D02*
X027135Y018750D01*
X037035Y018750D01*
X040935Y022650D01*
X040935Y027750D01*
X042185Y029000D01*
X042185Y029010D01*
X042051Y028300D02*
X042717Y028300D01*
X042978Y028408D01*
X043135Y028565D01*
X043135Y027187D01*
X043059Y027372D01*
X042898Y027533D01*
X042689Y027619D01*
X042235Y027619D01*
X042235Y027100D01*
X042135Y027100D01*
X042135Y027619D01*
X041682Y027619D01*
X041472Y027533D01*
X041335Y027396D01*
X041335Y027584D01*
X042051Y028300D01*
X041935Y028184D02*
X043135Y028184D01*
X043135Y028342D02*
X042819Y028342D01*
X043071Y028501D02*
X043135Y028501D01*
X043135Y028025D02*
X041776Y028025D01*
X041618Y027866D02*
X043135Y027866D01*
X043135Y027708D02*
X041459Y027708D01*
X041513Y027549D02*
X041335Y027549D01*
X042135Y027549D02*
X042235Y027549D01*
X042235Y027391D02*
X042135Y027391D01*
X042135Y027232D02*
X042235Y027232D01*
X042235Y026999D02*
X042235Y026480D01*
X042689Y026480D01*
X042898Y026566D01*
X043059Y026727D01*
X043135Y026912D01*
X043135Y024815D01*
X041335Y023015D01*
X041335Y026703D01*
X041472Y026566D01*
X041682Y026480D01*
X042135Y026480D01*
X042135Y026999D01*
X042235Y026999D01*
X042235Y026915D02*
X042135Y026915D01*
X042135Y026757D02*
X042235Y026757D01*
X042235Y026598D02*
X042135Y026598D01*
X041441Y026598D02*
X041335Y026598D01*
X041335Y026440D02*
X043135Y026440D01*
X043135Y026598D02*
X042930Y026598D01*
X043071Y026757D02*
X043135Y026757D01*
X043135Y026281D02*
X041335Y026281D01*
X041335Y026122D02*
X043135Y026122D01*
X043135Y025964D02*
X041335Y025964D01*
X041335Y025805D02*
X043135Y025805D01*
X043135Y025647D02*
X041335Y025647D01*
X041335Y025488D02*
X043135Y025488D01*
X043135Y025330D02*
X041335Y025330D01*
X041335Y025171D02*
X043135Y025171D01*
X043135Y025013D02*
X041335Y025013D01*
X041335Y024854D02*
X043135Y024854D01*
X043016Y024696D02*
X041335Y024696D01*
X041335Y024537D02*
X042857Y024537D01*
X042699Y024379D02*
X041335Y024379D01*
X041335Y024220D02*
X042540Y024220D01*
X042382Y024061D02*
X041335Y024061D01*
X041335Y023903D02*
X042223Y023903D01*
X042065Y023744D02*
X041335Y023744D01*
X041335Y023586D02*
X041906Y023586D01*
X041747Y023427D02*
X041335Y023427D01*
X041335Y023269D02*
X041589Y023269D01*
X041430Y023110D02*
X041335Y023110D01*
X042652Y022000D02*
X046100Y022000D01*
X046100Y021842D02*
X042493Y021842D01*
X042335Y021683D02*
X046100Y021683D01*
X046100Y021525D02*
X042176Y021525D01*
X042018Y021366D02*
X046100Y021366D01*
X046100Y021208D02*
X041859Y021208D01*
X041701Y021049D02*
X046100Y021049D01*
X046100Y020891D02*
X041542Y020891D01*
X041384Y020732D02*
X046100Y020732D01*
X046100Y020573D02*
X041225Y020573D01*
X041066Y020415D02*
X046100Y020415D01*
X046100Y020256D02*
X040908Y020256D01*
X040749Y020098D02*
X046100Y020098D01*
X046100Y019939D02*
X040591Y019939D01*
X040432Y019781D02*
X046100Y019781D01*
X046100Y022159D02*
X042810Y022159D01*
X042969Y022317D02*
X046100Y022317D01*
X046100Y022476D02*
X043127Y022476D01*
X043286Y022635D02*
X046100Y022635D01*
X046100Y022793D02*
X043445Y022793D01*
X043603Y022952D02*
X046100Y022952D01*
X046100Y023110D02*
X043762Y023110D01*
X043920Y023269D02*
X046100Y023269D01*
X046100Y023427D02*
X044079Y023427D01*
X044237Y023586D02*
X046100Y023586D01*
X046100Y023744D02*
X044396Y023744D01*
X044554Y023903D02*
X046100Y023903D01*
X046100Y024061D02*
X044713Y024061D01*
X044871Y024220D02*
X046100Y024220D01*
X046100Y024379D02*
X044935Y024379D01*
X044935Y024537D02*
X046100Y024537D01*
X046100Y024696D02*
X044935Y024696D01*
X044935Y024854D02*
X046100Y024854D01*
X046100Y025013D02*
X044935Y025013D01*
X044935Y025171D02*
X046100Y025171D01*
X046100Y025330D02*
X044935Y025330D01*
X044935Y025488D02*
X046100Y025488D01*
X046100Y025647D02*
X044935Y025647D01*
X044935Y025805D02*
X046100Y025805D01*
X046100Y025964D02*
X044935Y025964D01*
X044935Y026122D02*
X046100Y026122D01*
X046100Y026281D02*
X044935Y026281D01*
X044935Y026440D02*
X046100Y026440D01*
X046100Y026598D02*
X044935Y026598D01*
X044935Y026757D02*
X046100Y026757D01*
X046100Y026915D02*
X044935Y026915D01*
X044935Y027074D02*
X046100Y027074D01*
X046100Y027232D02*
X044935Y027232D01*
X044935Y027391D02*
X046100Y027391D01*
X046100Y027549D02*
X044935Y027549D01*
X044935Y027708D02*
X046100Y027708D01*
X046100Y027866D02*
X044935Y027866D01*
X044935Y028025D02*
X046100Y028025D01*
X046100Y028184D02*
X044935Y028184D01*
X044935Y028342D02*
X046100Y028342D01*
X046100Y028501D02*
X044935Y028501D01*
X044935Y028659D02*
X046100Y028659D01*
X046100Y028818D02*
X044935Y028818D01*
X044935Y028976D02*
X046100Y028976D01*
X046100Y029135D02*
X044935Y029135D01*
X044935Y029293D02*
X046100Y029293D01*
X046100Y029452D02*
X044935Y029452D01*
X044935Y029610D02*
X046100Y029610D01*
X046100Y029769D02*
X044935Y029769D01*
X044935Y029928D02*
X046100Y029928D01*
X046100Y030086D02*
X044935Y030086D01*
X044935Y030245D02*
X046100Y030245D01*
X046100Y030403D02*
X044935Y030403D01*
X044935Y030562D02*
X046100Y030562D01*
X046100Y030720D02*
X044935Y030720D01*
X044935Y030879D02*
X046100Y030879D01*
X046100Y031037D02*
X044935Y031037D01*
X044935Y031196D02*
X046100Y031196D01*
X046100Y031354D02*
X044935Y031354D01*
X044935Y031513D02*
X046100Y031513D01*
X046100Y031671D02*
X044935Y031671D01*
X044935Y031830D02*
X046100Y031830D01*
X046100Y031989D02*
X044935Y031989D01*
X044935Y032147D02*
X046100Y032147D01*
X046100Y032306D02*
X044935Y032306D01*
X044935Y032464D02*
X046100Y032464D01*
X046100Y032623D02*
X044935Y032623D01*
X044935Y032781D02*
X046100Y032781D01*
X046100Y032940D02*
X044935Y032940D01*
X044935Y033098D02*
X046100Y033098D01*
X046100Y033257D02*
X044935Y033257D01*
X044935Y033415D02*
X046100Y033415D01*
X046100Y033574D02*
X044935Y033574D01*
X044935Y033733D02*
X046100Y033733D01*
X046100Y033891D02*
X044935Y033891D01*
X044935Y034050D02*
X046100Y034050D01*
X046100Y034208D02*
X044935Y034208D01*
X044935Y034367D02*
X046100Y034367D01*
X046100Y034525D02*
X044935Y034525D01*
X044935Y034684D02*
X046100Y034684D01*
X046100Y034842D02*
X044935Y034842D01*
X044926Y035001D02*
X046100Y035001D01*
X046100Y035159D02*
X044841Y035159D01*
X044683Y035318D02*
X046100Y035318D01*
X046100Y035477D02*
X044524Y035477D01*
X044365Y035635D02*
X046100Y035635D01*
X046100Y035794D02*
X044207Y035794D01*
X044048Y035952D02*
X046100Y035952D01*
X046100Y036111D02*
X043890Y036111D01*
X043731Y036269D02*
X046100Y036269D01*
X046100Y036428D02*
X043573Y036428D01*
X043414Y036586D02*
X046100Y036586D01*
X046096Y036745D02*
X043256Y036745D01*
X043285Y036903D02*
X046066Y036903D01*
X046037Y037062D02*
X043285Y037062D01*
X043244Y037221D02*
X046000Y037221D01*
X045924Y037379D02*
X043178Y037379D01*
X043021Y037538D02*
X045849Y037538D01*
X045750Y037696D02*
X036485Y037696D01*
X036485Y037538D02*
X041349Y037538D01*
X041192Y037379D02*
X036485Y037379D01*
X036485Y037855D02*
X045614Y037855D01*
X045487Y038004D02*
X045487Y038004D01*
X045473Y038013D02*
X036485Y038013D01*
X036485Y038172D02*
X045243Y038172D01*
X044943Y038330D02*
X036485Y038330D01*
X041085Y037062D02*
X028606Y037062D01*
X028601Y036903D02*
X041085Y036903D01*
X041124Y036745D02*
X028577Y036745D01*
X028553Y036586D02*
X041190Y036586D01*
X041343Y036428D02*
X028504Y036428D01*
X028427Y036269D02*
X042600Y036269D01*
X042758Y036111D02*
X028351Y036111D01*
X028230Y035952D02*
X042917Y035952D01*
X043076Y035794D02*
X028083Y035794D01*
X027983Y035686D02*
X027983Y035686D01*
X027983Y035686D01*
X027894Y035635D02*
X043234Y035635D01*
X043393Y035477D02*
X042914Y035477D01*
X042898Y035493D02*
X042689Y035579D01*
X042235Y035579D01*
X042235Y035060D01*
X042135Y035060D01*
X042135Y035579D01*
X041682Y035579D01*
X041472Y035493D01*
X041312Y035332D01*
X041225Y035123D01*
X041225Y035060D01*
X042135Y035060D01*
X042135Y034959D01*
X042235Y034959D01*
X042235Y034440D01*
X042689Y034440D01*
X042898Y034526D01*
X043059Y034687D01*
X043145Y034896D01*
X043145Y034959D01*
X042236Y034959D01*
X042236Y035060D01*
X043145Y035060D01*
X043145Y035123D01*
X043059Y035332D01*
X042898Y035493D01*
X043065Y035318D02*
X043551Y035318D01*
X043710Y035159D02*
X043130Y035159D01*
X043123Y034842D02*
X044027Y034842D01*
X044135Y034684D02*
X043056Y034684D01*
X042896Y034525D02*
X044135Y034525D01*
X044135Y034367D02*
X023005Y034367D01*
X023005Y034525D02*
X041475Y034525D01*
X041472Y034526D02*
X041682Y034440D01*
X042135Y034440D01*
X042135Y034959D01*
X041225Y034959D01*
X041225Y034896D01*
X041312Y034687D01*
X041472Y034526D01*
X041315Y034684D02*
X023005Y034684D01*
X023005Y034842D02*
X041248Y034842D01*
X041241Y035159D02*
X023005Y035159D01*
X023005Y035001D02*
X042135Y035001D01*
X042236Y035001D02*
X043868Y035001D01*
X044535Y034900D02*
X042455Y036980D01*
X042185Y036980D01*
X041127Y037221D02*
X028582Y037221D01*
X028558Y037379D02*
X028685Y037379D01*
X028685Y037538D02*
X028520Y037538D01*
X028541Y037495D02*
X028541Y037495D01*
X028444Y037696D02*
X028665Y037696D01*
X028665Y037855D02*
X028367Y037855D01*
X028323Y037946D02*
X028323Y037946D01*
X028261Y038013D02*
X028665Y038013D01*
X028665Y038172D02*
X028114Y038172D01*
X027953Y038330D02*
X028665Y038330D01*
X026095Y038454D02*
X026095Y038454D01*
X025940Y038330D02*
X024187Y038330D01*
X023879Y038172D02*
X025741Y038172D01*
X025704Y038142D02*
X025704Y038142D01*
X025704Y038142D01*
X025616Y038013D02*
X023654Y038013D01*
X023504Y037855D02*
X025508Y037855D01*
X025422Y037728D02*
X025422Y037728D01*
X025412Y037696D02*
X023371Y037696D01*
X023264Y037538D02*
X025363Y037538D01*
X025314Y037379D02*
X023191Y037379D01*
X023117Y037221D02*
X025274Y037221D01*
X025274Y037062D02*
X023072Y037062D01*
X023045Y036903D02*
X025274Y036903D01*
X025274Y036749D02*
X025274Y036749D01*
X025275Y036745D02*
X023017Y036745D01*
X023005Y036586D02*
X025324Y036586D01*
X025373Y036428D02*
X023005Y036428D01*
X023005Y036269D02*
X025423Y036269D01*
X025531Y036111D02*
X023005Y036111D01*
X023005Y035952D02*
X025639Y035952D01*
X025704Y035857D02*
X025704Y035857D01*
X025704Y035857D01*
X025783Y035794D02*
X023005Y035794D01*
X023005Y035635D02*
X025982Y035635D01*
X026269Y035477D02*
X023005Y035477D01*
X023005Y035318D02*
X041306Y035318D01*
X041456Y035477D02*
X027620Y035477D01*
X027549Y035436D02*
X027549Y035436D01*
X027061Y035324D02*
X027061Y035324D01*
X027443Y032623D02*
X023005Y032623D01*
X023005Y032781D02*
X036401Y032781D01*
X036560Y032940D02*
X023005Y032940D01*
X023005Y033098D02*
X036719Y033098D01*
X036646Y033026D02*
X036646Y033026D01*
X037385Y032100D02*
X037285Y032000D01*
X037376Y032000D01*
X038435Y032000D02*
X038435Y030500D01*
X039270Y029769D02*
X042850Y029769D01*
X042979Y029610D02*
X043009Y029610D01*
X042692Y029928D02*
X039429Y029928D01*
X039412Y029910D02*
X039412Y029910D01*
X039551Y030086D02*
X042533Y030086D01*
X042375Y030245D02*
X039585Y030245D01*
X039585Y030403D02*
X041378Y030403D01*
X041219Y030562D02*
X039585Y030562D01*
X039585Y030720D02*
X041138Y030720D01*
X041085Y030879D02*
X039585Y030879D01*
X039585Y031037D02*
X041085Y031037D01*
X041112Y031196D02*
X039585Y031196D01*
X039585Y031354D02*
X041178Y031354D01*
X041315Y031513D02*
X039585Y031513D01*
X039585Y031671D02*
X041587Y031671D01*
X041494Y032306D02*
X039585Y032306D01*
X039585Y032464D02*
X041277Y032464D01*
X041162Y032623D02*
X039547Y032623D01*
X039419Y032781D02*
X041096Y032781D01*
X041085Y032940D02*
X039261Y032940D01*
X039102Y033098D02*
X041089Y033098D01*
X041154Y033257D02*
X023005Y033257D01*
X023005Y033415D02*
X041257Y033415D01*
X041448Y033574D02*
X023005Y033574D01*
X023005Y033733D02*
X044135Y033733D01*
X044135Y033891D02*
X023005Y033891D01*
X023005Y034050D02*
X044135Y034050D01*
X044135Y034208D02*
X023005Y034208D01*
X023005Y032464D02*
X027284Y032464D01*
X027126Y032306D02*
X023005Y032306D01*
X023005Y032147D02*
X026967Y032147D01*
X026809Y031989D02*
X023005Y031989D01*
X023005Y031830D02*
X026650Y031830D01*
X026492Y031671D02*
X023005Y031671D01*
X023005Y031513D02*
X026333Y031513D01*
X026175Y031354D02*
X023005Y031354D01*
X023005Y031196D02*
X026016Y031196D01*
X025909Y031037D02*
X023005Y031037D01*
X023005Y030879D02*
X025885Y030879D01*
X025885Y030720D02*
X023005Y030720D01*
X023005Y030562D02*
X025885Y030562D01*
X025885Y030403D02*
X023005Y030403D01*
X023005Y030245D02*
X025885Y030245D01*
X025885Y030086D02*
X023005Y030086D01*
X023005Y029928D02*
X025885Y029928D01*
X025885Y029769D02*
X023005Y029769D01*
X023005Y029610D02*
X025885Y029610D01*
X025885Y029452D02*
X023005Y029452D01*
X023005Y029293D02*
X025885Y029293D01*
X025885Y029135D02*
X023005Y029135D01*
X023005Y028976D02*
X025885Y028976D01*
X025885Y028818D02*
X023005Y028818D01*
X023005Y028659D02*
X025885Y028659D01*
X025885Y028501D02*
X023005Y028501D01*
X023005Y028342D02*
X025885Y028342D01*
X025885Y028184D02*
X023005Y028184D01*
X023005Y028025D02*
X025885Y028025D01*
X025885Y027866D02*
X023005Y027866D01*
X023005Y027708D02*
X025885Y027708D01*
X025885Y027549D02*
X023005Y027549D01*
X023005Y027391D02*
X025885Y027391D01*
X025885Y027232D02*
X023005Y027232D01*
X023005Y027074D02*
X025885Y027074D01*
X025885Y026915D02*
X023005Y026915D01*
X023005Y026757D02*
X025885Y026757D01*
X025885Y026598D02*
X023005Y026598D01*
X023005Y026440D02*
X025885Y026440D01*
X025885Y026281D02*
X023005Y026281D01*
X023005Y026122D02*
X025885Y026122D01*
X025885Y025964D02*
X023005Y025964D01*
X023005Y025805D02*
X025885Y025805D01*
X025885Y025647D02*
X023005Y025647D01*
X023005Y025488D02*
X025885Y025488D01*
X025885Y025330D02*
X023005Y025330D01*
X023005Y025171D02*
X025885Y025171D01*
X025885Y025013D02*
X023005Y025013D01*
X023005Y024854D02*
X025885Y024854D01*
X025885Y024696D02*
X023005Y024696D01*
X023005Y024537D02*
X025885Y024537D01*
X025885Y024379D02*
X023005Y024379D01*
X023005Y024220D02*
X025885Y024220D01*
X025885Y024061D02*
X023005Y024061D01*
X023005Y023903D02*
X025885Y023903D01*
X025885Y023744D02*
X023005Y023744D01*
X023005Y023586D02*
X025885Y023586D01*
X025885Y023427D02*
X023005Y023427D01*
X023005Y023269D02*
X025885Y023269D01*
X025885Y023110D02*
X023005Y023110D01*
X023005Y022952D02*
X025885Y022952D01*
X025885Y022793D02*
X023005Y022793D01*
X023005Y022635D02*
X025885Y022635D01*
X025846Y022476D02*
X023005Y022476D01*
X023005Y022317D02*
X025688Y022317D01*
X025529Y022159D02*
X023005Y022159D01*
X023005Y022000D02*
X025371Y022000D01*
X025212Y021842D02*
X023005Y021842D01*
X023005Y021683D02*
X025053Y021683D01*
X024895Y021525D02*
X023005Y021525D01*
X023005Y021366D02*
X024736Y021366D01*
X024578Y021208D02*
X023005Y021208D01*
X023005Y021049D02*
X024419Y021049D01*
X024261Y020891D02*
X023005Y020891D01*
X023005Y020732D02*
X024102Y020732D01*
X023944Y020573D02*
X023005Y020573D01*
X023005Y020415D02*
X023785Y020415D01*
X023627Y020256D02*
X023005Y020256D01*
X023005Y020098D02*
X023468Y020098D01*
X023309Y019939D02*
X023005Y019939D01*
X023005Y019781D02*
X023151Y019781D01*
X023053Y019622D02*
X023005Y019622D01*
X023005Y019464D02*
X023035Y019464D01*
X023035Y019305D02*
X023005Y019305D01*
X023005Y019147D02*
X023035Y019147D01*
X023035Y018988D02*
X023005Y018988D01*
X023005Y018829D02*
X023035Y018829D01*
X023035Y018671D02*
X023005Y018671D01*
X023005Y018512D02*
X023035Y018512D01*
X023035Y018354D02*
X023005Y018354D01*
X023005Y018195D02*
X023035Y018195D01*
X023035Y018037D02*
X023005Y018037D01*
X023005Y017878D02*
X023035Y017878D01*
X023035Y017720D02*
X023005Y017720D01*
X023005Y017561D02*
X023035Y017561D01*
X023035Y017403D02*
X023005Y017403D01*
X023005Y017244D02*
X023035Y017244D01*
X023035Y017086D02*
X023005Y017086D01*
X023005Y016927D02*
X023035Y016927D01*
X023035Y016768D02*
X023005Y016768D01*
X023005Y016610D02*
X023035Y016610D01*
X023035Y016451D02*
X023005Y016451D01*
X023005Y016293D02*
X023035Y016293D01*
X023035Y016134D02*
X023005Y016134D01*
X023005Y015976D02*
X023035Y015976D01*
X023035Y015817D02*
X023005Y015817D01*
X023005Y015659D02*
X023035Y015659D01*
X023035Y015500D02*
X023005Y015500D01*
X023005Y015342D02*
X023035Y015342D01*
X023035Y015183D02*
X023005Y015183D01*
X023005Y015024D02*
X023035Y015024D01*
X023035Y014866D02*
X023005Y014866D01*
X023005Y014707D02*
X023035Y014707D01*
X023035Y014549D02*
X023005Y014549D01*
X023005Y014390D02*
X023035Y014390D01*
X023035Y014232D02*
X023005Y014232D01*
X023005Y014073D02*
X023035Y014073D01*
X023035Y013915D02*
X023005Y013915D01*
X023005Y013756D02*
X023035Y013756D01*
X023035Y013598D02*
X023005Y013598D01*
X023005Y013439D02*
X023035Y013439D01*
X023035Y013280D02*
X023005Y013280D01*
X023005Y013122D02*
X023035Y013122D01*
X023035Y012963D02*
X023005Y012963D01*
X023005Y012805D02*
X023035Y012805D01*
X023035Y012646D02*
X023005Y012646D01*
X023005Y012488D02*
X023035Y012488D01*
X023035Y012329D02*
X023005Y012329D01*
X023005Y012171D02*
X023035Y012171D01*
X023035Y012012D02*
X023005Y012012D01*
X023005Y011854D02*
X023035Y011854D01*
X023035Y011695D02*
X023005Y011695D01*
X023005Y011536D02*
X023035Y011536D01*
X023035Y011378D02*
X023005Y011378D01*
X023013Y011219D02*
X023035Y011219D01*
X023027Y011061D02*
X023035Y011061D01*
X023035Y010902D02*
X023009Y010902D01*
X022987Y010744D02*
X023035Y010744D01*
X023035Y010585D02*
X022965Y010585D01*
X022930Y010427D02*
X023035Y010427D01*
X023035Y010268D02*
X022871Y010268D01*
X022811Y010110D02*
X023035Y010110D01*
X023035Y009951D02*
X022750Y009951D01*
X022645Y009793D02*
X023035Y009793D01*
X023035Y009634D02*
X022540Y009634D01*
X022433Y009475D02*
X023035Y009475D01*
X023035Y009317D02*
X022266Y009317D01*
X022100Y009158D02*
X023035Y009158D01*
X023035Y009000D02*
X021876Y009000D01*
X021609Y008841D02*
X023035Y008841D01*
X023035Y008683D02*
X021174Y008683D01*
X021006Y008628D02*
X021006Y008628D01*
X021544Y008802D02*
X021544Y008802D01*
X023035Y008524D02*
X002763Y008524D01*
X002376Y008366D02*
X010174Y008366D01*
X009977Y008207D02*
X002105Y008207D01*
X001917Y008049D02*
X009819Y008049D01*
X009660Y007890D02*
X001750Y007890D01*
X001787Y007940D02*
X001787Y007940D01*
X001630Y007731D02*
X009502Y007731D01*
X009343Y007573D02*
X001510Y007573D01*
X001430Y007414D02*
X009185Y007414D01*
X009026Y007256D02*
X001358Y007256D01*
X001287Y007097D02*
X006217Y007097D01*
X006059Y006939D02*
X001254Y006939D01*
X001222Y006780D02*
X005900Y006780D01*
X005742Y006622D02*
X001190Y006622D01*
X001191Y006463D02*
X005591Y006463D01*
X005535Y005987D02*
X001208Y005987D01*
X001205Y005829D02*
X005535Y005829D01*
X005535Y005670D02*
X001205Y005670D01*
X001205Y005512D02*
X005607Y005512D01*
X005766Y005353D02*
X001205Y005353D01*
X001205Y005195D02*
X005924Y005195D01*
X006035Y005036D02*
X001205Y005036D01*
X001205Y004878D02*
X002211Y004878D01*
X001978Y004719D02*
X001205Y004719D01*
X001205Y004561D02*
X001872Y004561D01*
X001815Y004402D02*
X001205Y004402D01*
X001205Y004244D02*
X001815Y004244D01*
X001815Y004085D02*
X001205Y004085D01*
X001205Y003926D02*
X001815Y003926D01*
X001815Y003768D02*
X001205Y003768D01*
X001205Y003609D02*
X001815Y003609D01*
X001867Y003451D02*
X001205Y003451D01*
X001205Y003292D02*
X001966Y003292D01*
X002181Y003134D02*
X001205Y003134D01*
X002689Y003134D02*
X003181Y003134D01*
X002966Y003292D02*
X002905Y003292D01*
X003689Y003134D02*
X005181Y003134D01*
X004966Y003292D02*
X004706Y003292D01*
X004852Y003451D02*
X004867Y003451D01*
X004455Y003451D02*
X004415Y003451D01*
X004415Y003609D02*
X004455Y003609D01*
X004455Y003768D02*
X004415Y003768D01*
X004415Y003926D02*
X004455Y003926D01*
X004455Y004085D02*
X004415Y004085D01*
X004415Y004244D02*
X004455Y004244D01*
X004455Y004402D02*
X004415Y004402D01*
X004415Y004561D02*
X004455Y004561D01*
X004455Y004719D02*
X004415Y004719D01*
X004194Y004719D02*
X003893Y004719D01*
X003998Y004561D02*
X004024Y004561D01*
X003660Y004878D02*
X005211Y004878D01*
X004978Y004719D02*
X004677Y004719D01*
X004847Y004561D02*
X004872Y004561D01*
X005660Y004878D02*
X006035Y004878D01*
X005978Y004719D02*
X005893Y004719D01*
X006435Y005250D02*
X005935Y005750D01*
X006435Y005250D02*
X006435Y004000D01*
X005966Y003292D02*
X005905Y003292D01*
X005689Y003134D02*
X006181Y003134D01*
X004455Y003292D02*
X004415Y003292D01*
X004164Y003292D02*
X003905Y003292D01*
X004003Y003451D02*
X004019Y003451D01*
X002978Y004719D02*
X002893Y004719D01*
X002660Y004878D02*
X003211Y004878D01*
X001205Y006146D02*
X001199Y006161D01*
X007034Y005353D02*
X008371Y005353D01*
X008291Y005512D02*
X007193Y005512D01*
X014406Y006000D02*
X014435Y006000D01*
X016885Y006146D02*
X017045Y006146D01*
X017045Y006305D02*
X016885Y006305D01*
X016885Y006463D02*
X017045Y006463D01*
X017045Y006622D02*
X016885Y006622D01*
X017778Y006622D02*
X019424Y006622D01*
X019397Y006463D02*
X017834Y006463D01*
X017834Y006305D02*
X019397Y006305D01*
X019397Y006146D02*
X017834Y006146D01*
X017045Y005670D02*
X016885Y005670D01*
X016885Y005512D02*
X017045Y005512D01*
X017045Y005353D02*
X016885Y005353D01*
X020835Y006939D02*
X025565Y006939D01*
X025673Y007097D02*
X020835Y007097D01*
X022885Y006622D02*
X023045Y006622D01*
X023045Y006463D02*
X022885Y006463D01*
X022885Y006305D02*
X023045Y006305D01*
X023045Y006146D02*
X022885Y006146D01*
X022885Y005670D02*
X023045Y005670D01*
X023045Y005512D02*
X022885Y005512D01*
X022885Y005353D02*
X023045Y005353D01*
X023657Y007256D02*
X025846Y007256D01*
X025704Y007142D02*
X025704Y007142D01*
X025704Y007142D01*
X026045Y007414D02*
X023816Y007414D01*
X023674Y007273D02*
X023674Y007273D01*
X024235Y010110D02*
X030615Y010110D01*
X030615Y010268D02*
X024235Y010268D01*
X024235Y010427D02*
X030623Y010427D01*
X030309Y010585D02*
X030149Y010585D01*
X030149Y010571D02*
X030149Y011419D01*
X030149Y011420D02*
X029497Y011420D01*
X029497Y010677D01*
X029603Y010571D01*
X030149Y010571D01*
X030149Y010744D02*
X030309Y010744D01*
X030309Y010902D02*
X030149Y010902D01*
X030149Y011061D02*
X030309Y011061D01*
X030309Y011219D02*
X030149Y011219D01*
X030149Y011378D02*
X030309Y011378D01*
X030149Y011536D02*
X027788Y011536D01*
X027947Y011695D02*
X029497Y011695D01*
X029497Y011854D02*
X028105Y011854D01*
X028264Y012012D02*
X029497Y012012D01*
X029497Y012171D02*
X028422Y012171D01*
X028581Y012329D02*
X029505Y012329D01*
X028898Y012646D02*
X030785Y012646D01*
X030785Y012488D02*
X028739Y012488D01*
X029056Y012805D02*
X030785Y012805D01*
X030785Y012963D02*
X029215Y012963D01*
X029373Y013122D02*
X030785Y013122D01*
X030785Y013280D02*
X029532Y013280D01*
X029634Y014000D02*
X029685Y014000D01*
X027435Y011750D01*
X023835Y011750D01*
X024235Y012171D02*
X027291Y012171D01*
X027449Y012329D02*
X024235Y012329D01*
X024235Y012488D02*
X025163Y012488D01*
X024973Y012646D02*
X024235Y012646D01*
X024235Y012805D02*
X024814Y012805D01*
X024656Y012963D02*
X024235Y012963D01*
X024235Y013122D02*
X024497Y013122D01*
X024339Y013280D02*
X024235Y013280D01*
X025285Y013500D02*
X025685Y013500D01*
X026035Y012850D02*
X026685Y013500D01*
X027062Y014000D02*
X027305Y014243D01*
X027305Y014756D01*
X027062Y014999D01*
X027305Y015243D01*
X027305Y015554D01*
X027962Y016210D01*
X028074Y016323D01*
X028135Y016470D01*
X028135Y017434D01*
X028151Y017450D01*
X037415Y017450D01*
X037562Y017510D01*
X037674Y017623D01*
X038535Y018484D01*
X038535Y012312D01*
X037712Y012312D01*
X037595Y012263D01*
X037505Y012173D01*
X037456Y012055D01*
X037456Y010944D01*
X037505Y010826D01*
X037595Y010736D01*
X037712Y010687D01*
X038245Y010687D01*
X038245Y009679D01*
X033555Y009679D01*
X033555Y009768D01*
X033507Y009886D01*
X033417Y009976D01*
X033299Y010024D01*
X032755Y010024D01*
X032755Y010431D01*
X032755Y010268D02*
X038245Y010268D01*
X038245Y010110D02*
X032755Y010110D01*
X032355Y010670D02*
X033185Y011500D01*
X033142Y011500D01*
X032271Y011536D02*
X031585Y011536D01*
X031585Y011378D02*
X032271Y011378D01*
X032271Y011219D02*
X031585Y011219D01*
X031585Y011061D02*
X032181Y011061D01*
X032022Y010902D02*
X031585Y010902D01*
X031585Y010744D02*
X031955Y010744D01*
X031955Y010585D02*
X031585Y010585D01*
X031585Y010427D02*
X031955Y010427D01*
X031955Y010268D02*
X031520Y010268D01*
X031415Y010110D02*
X031955Y010110D01*
X031939Y009951D02*
X031431Y009951D01*
X031660Y009793D02*
X031710Y009793D01*
X031710Y009634D02*
X031660Y009634D01*
X031660Y009475D02*
X031710Y009475D01*
X031710Y009317D02*
X031660Y009317D01*
X031660Y009158D02*
X031710Y009158D01*
X031710Y009000D02*
X031660Y009000D01*
X031660Y008841D02*
X031710Y008841D01*
X031710Y008683D02*
X031660Y008683D01*
X032355Y008830D02*
X032355Y009280D01*
X032355Y010670D01*
X031185Y010500D02*
X031015Y010330D01*
X031015Y009280D01*
X031185Y010500D02*
X031185Y013500D01*
X030685Y014000D01*
X030737Y014000D01*
X032134Y014000D01*
X032185Y014000D01*
X032731Y014549D02*
X032823Y014549D01*
X032527Y014707D02*
X038535Y014707D01*
X038535Y014549D02*
X033650Y014549D01*
X033626Y014573D02*
X033314Y014573D01*
X033314Y014077D01*
X033731Y014077D01*
X033731Y014468D01*
X033626Y014573D01*
X033731Y014390D02*
X038535Y014390D01*
X038535Y014232D02*
X033731Y014232D01*
X033731Y013922D02*
X033314Y013922D01*
X033314Y013426D01*
X033626Y013426D01*
X033731Y013531D01*
X033731Y013922D01*
X033731Y013915D02*
X038535Y013915D01*
X038535Y014073D02*
X033314Y014073D01*
X033314Y013915D02*
X033159Y013915D01*
X033159Y013756D02*
X033314Y013756D01*
X033314Y013598D02*
X033159Y013598D01*
X033159Y013439D02*
X033314Y013439D01*
X033639Y013439D02*
X038535Y013439D01*
X038535Y013280D02*
X031585Y013280D01*
X031585Y013122D02*
X038535Y013122D01*
X038535Y012963D02*
X031585Y012963D01*
X031585Y012805D02*
X038535Y012805D01*
X038535Y012646D02*
X031585Y012646D01*
X031585Y012488D02*
X032379Y012488D01*
X032278Y012329D02*
X031585Y012329D01*
X031585Y012171D02*
X032271Y012171D01*
X032271Y012012D02*
X031585Y012012D01*
X031585Y011854D02*
X032271Y011854D01*
X032271Y011695D02*
X031585Y011695D01*
X030309Y011695D02*
X030149Y011695D01*
X030149Y011854D02*
X030309Y011854D01*
X030309Y012012D02*
X030149Y012012D01*
X030149Y012171D02*
X030309Y012171D01*
X030309Y012329D02*
X030149Y012329D01*
X029497Y011378D02*
X027584Y011378D01*
X029497Y011219D02*
X024235Y011219D01*
X024235Y011061D02*
X029497Y011061D01*
X029497Y010902D02*
X024235Y010902D01*
X024235Y010744D02*
X029497Y010744D01*
X029589Y010585D02*
X024235Y010585D01*
X027136Y014073D02*
X028999Y014073D01*
X028999Y014232D02*
X027294Y014232D01*
X027305Y014390D02*
X028999Y014390D01*
X029037Y014549D02*
X027305Y014549D01*
X027305Y014707D02*
X029241Y014707D01*
X030027Y014707D02*
X030344Y014707D01*
X031129Y014707D02*
X031741Y014707D01*
X031537Y014549D02*
X031333Y014549D01*
X032726Y013439D02*
X032834Y013439D01*
X033159Y014232D02*
X033314Y014232D01*
X033314Y014390D02*
X033159Y014390D01*
X033159Y014549D02*
X033314Y014549D01*
X033731Y013756D02*
X038535Y013756D01*
X038535Y013598D02*
X033731Y013598D01*
X033906Y012488D02*
X038535Y012488D01*
X038535Y012329D02*
X034006Y012329D01*
X034013Y012171D02*
X035141Y012171D01*
X035142Y012172D02*
X035037Y012066D01*
X035037Y011579D01*
X035826Y011579D01*
X035826Y011420D01*
X035037Y011420D01*
X035037Y010933D01*
X035142Y010827D01*
X035826Y010827D01*
X035826Y011419D01*
X035986Y011419D01*
X035986Y010827D01*
X036669Y010827D01*
X036775Y010933D01*
X036775Y011420D01*
X035986Y011420D01*
X035986Y011579D01*
X036775Y011579D01*
X036775Y012066D01*
X036669Y012172D01*
X035986Y012172D01*
X035986Y011580D01*
X035826Y011580D01*
X035826Y012172D01*
X035142Y012172D01*
X035037Y012012D02*
X034013Y012012D01*
X034013Y011854D02*
X035037Y011854D01*
X035037Y011695D02*
X034013Y011695D01*
X034013Y011536D02*
X035826Y011536D01*
X035826Y011378D02*
X035986Y011378D01*
X035986Y011536D02*
X037456Y011536D01*
X037456Y011378D02*
X036775Y011378D01*
X036775Y011219D02*
X037456Y011219D01*
X037456Y011061D02*
X036775Y011061D01*
X036744Y010902D02*
X037473Y010902D01*
X037587Y010744D02*
X034013Y010744D01*
X034013Y010902D02*
X035067Y010902D01*
X035037Y011061D02*
X034013Y011061D01*
X034013Y011219D02*
X035037Y011219D01*
X035037Y011378D02*
X034013Y011378D01*
X033971Y010585D02*
X038245Y010585D01*
X038245Y009951D02*
X033441Y009951D01*
X033545Y009793D02*
X038245Y009793D01*
X038655Y009280D02*
X038685Y009250D01*
X038655Y009280D02*
X033025Y009280D01*
X034155Y008841D02*
X038245Y008841D01*
X038245Y008683D02*
X034318Y008683D01*
X034476Y008524D02*
X038245Y008524D01*
X038245Y008366D02*
X034570Y008366D01*
X034585Y008207D02*
X038245Y008207D01*
X038245Y008049D02*
X034585Y008049D01*
X034585Y007890D02*
X038245Y007890D01*
X038245Y007731D02*
X034585Y007731D01*
X034585Y007573D02*
X038245Y007573D01*
X038245Y007414D02*
X034585Y007414D01*
X034585Y007256D02*
X038245Y007256D01*
X038245Y007097D02*
X034585Y007097D01*
X034585Y006939D02*
X038245Y006939D01*
X037636Y006780D02*
X034585Y006780D01*
X034585Y006622D02*
X035092Y006622D01*
X035142Y006672D02*
X035037Y006566D01*
X035037Y006079D01*
X035826Y006079D01*
X035826Y005920D01*
X035037Y005920D01*
X035037Y005433D01*
X035142Y005327D01*
X035826Y005327D01*
X035826Y005919D01*
X035986Y005919D01*
X035986Y005327D01*
X036669Y005327D01*
X036775Y005433D01*
X036775Y005920D01*
X035986Y005920D01*
X035986Y006079D01*
X036775Y006079D01*
X036775Y006566D01*
X036669Y006672D01*
X035986Y006672D01*
X035986Y006080D01*
X035826Y006080D01*
X035826Y006672D01*
X035142Y006672D01*
X035037Y006463D02*
X034585Y006463D01*
X034585Y006305D02*
X035037Y006305D01*
X035037Y006146D02*
X034585Y006146D01*
X034585Y005987D02*
X035826Y005987D01*
X035826Y005829D02*
X035986Y005829D01*
X035986Y005987D02*
X037456Y005987D01*
X037456Y005829D02*
X036775Y005829D01*
X036775Y005670D02*
X037456Y005670D01*
X037456Y005512D02*
X036775Y005512D01*
X036695Y005353D02*
X037493Y005353D01*
X037694Y005195D02*
X034585Y005195D01*
X034585Y005353D02*
X035116Y005353D01*
X035037Y005512D02*
X034585Y005512D01*
X034585Y005670D02*
X035037Y005670D01*
X035037Y005829D02*
X034585Y005829D01*
X035826Y005670D02*
X035986Y005670D01*
X035986Y005512D02*
X035826Y005512D01*
X035826Y005353D02*
X035986Y005353D01*
X035986Y006146D02*
X035826Y006146D01*
X035826Y006305D02*
X035986Y006305D01*
X035986Y006463D02*
X035826Y006463D01*
X035826Y006622D02*
X035986Y006622D01*
X036719Y006622D02*
X037483Y006622D01*
X037456Y006463D02*
X036775Y006463D01*
X036775Y006305D02*
X037456Y006305D01*
X037456Y006146D02*
X036775Y006146D01*
X034585Y004402D02*
X040117Y004402D01*
X040117Y004244D02*
X034585Y004244D01*
X034585Y004085D02*
X040117Y004085D01*
X040118Y003926D02*
X034585Y003926D01*
X034585Y003768D02*
X040209Y003768D01*
X041105Y006780D02*
X041265Y006780D01*
X041265Y006939D02*
X041105Y006939D01*
X041105Y007097D02*
X041265Y007097D01*
X041265Y007573D02*
X041105Y007573D01*
X041105Y007731D02*
X041265Y007731D01*
X041265Y007890D02*
X041105Y007890D01*
X041105Y008049D02*
X041265Y008049D01*
X042685Y011500D02*
X038935Y011500D01*
X038935Y018850D01*
X044535Y024450D01*
X044535Y034900D01*
X044135Y033574D02*
X042923Y033574D01*
X043113Y033415D02*
X044135Y033415D01*
X044135Y033257D02*
X043216Y033257D01*
X043282Y033098D02*
X044135Y033098D01*
X044135Y032940D02*
X043285Y032940D01*
X043274Y032781D02*
X044135Y032781D01*
X044135Y032623D02*
X043208Y032623D01*
X043236Y032464D02*
X044135Y032464D01*
X044135Y032306D02*
X043395Y032306D01*
X043553Y032147D02*
X044135Y032147D01*
X044135Y031989D02*
X043712Y031989D01*
X043870Y031830D02*
X044135Y031830D01*
X044135Y031671D02*
X044029Y031671D01*
X043373Y031196D02*
X043258Y031196D01*
X043285Y031037D02*
X043532Y031037D01*
X043635Y030879D02*
X043285Y030879D01*
X043232Y030720D02*
X043635Y030720D01*
X043635Y030562D02*
X043189Y030562D01*
X043347Y030403D02*
X043635Y030403D01*
X043635Y030245D02*
X043506Y030245D01*
X043535Y029650D02*
X043535Y024650D01*
X037185Y018300D01*
X027735Y018300D01*
X027335Y017900D01*
X027335Y017150D01*
X026685Y016500D01*
X026685Y015500D02*
X027735Y016550D01*
X027735Y017600D01*
X027985Y017850D01*
X037335Y017850D01*
X044035Y024550D01*
X044035Y031100D01*
X042185Y032950D01*
X042422Y032147D02*
X039585Y032147D01*
X039585Y031989D02*
X042581Y031989D01*
X042739Y031830D02*
X039585Y031830D01*
X038495Y032000D02*
X038435Y032000D01*
X036335Y030850D02*
X036335Y029350D01*
X036685Y029000D01*
X036335Y030850D02*
X036035Y031150D01*
X031535Y031150D01*
X029035Y028976D02*
X028335Y028976D01*
X028335Y028818D02*
X028877Y028818D01*
X028815Y028659D02*
X028335Y028659D01*
X028335Y028501D02*
X028815Y028501D01*
X028815Y028342D02*
X028335Y028342D01*
X028335Y028184D02*
X028875Y028184D01*
X029033Y028025D02*
X028335Y028025D01*
X028335Y027866D02*
X028926Y027866D01*
X028815Y027708D02*
X028335Y027708D01*
X028335Y027549D02*
X028815Y027549D01*
X028815Y027391D02*
X028335Y027391D01*
X028335Y027232D02*
X028826Y027232D01*
X028984Y027074D02*
X028335Y027074D01*
X028335Y026915D02*
X028974Y026915D01*
X028816Y026757D02*
X028335Y026757D01*
X028335Y026598D02*
X028815Y026598D01*
X028815Y026440D02*
X028335Y026440D01*
X028335Y026281D02*
X028815Y026281D01*
X028936Y026122D02*
X028335Y026122D01*
X028335Y025964D02*
X029094Y025964D01*
X029062Y025805D02*
X028335Y025805D01*
X028335Y025647D02*
X028955Y025647D01*
X028923Y029135D02*
X028335Y029135D01*
X028335Y029293D02*
X028815Y029293D01*
X028815Y029452D02*
X028335Y029452D01*
X028335Y029610D02*
X028815Y029610D01*
X028828Y029769D02*
X028335Y029769D01*
X028429Y029928D02*
X028987Y029928D01*
X028972Y030086D02*
X028588Y030086D01*
X037456Y026520D02*
X037915Y026520D01*
X037915Y026698D01*
X037713Y026901D01*
X037935Y027123D01*
X038158Y026901D01*
X037955Y026698D01*
X037955Y026520D01*
X038415Y026520D01*
X038415Y026479D01*
X037955Y026479D01*
X037955Y026301D01*
X038158Y026099D01*
X037935Y025876D01*
X037713Y026099D01*
X037915Y026301D01*
X037915Y026479D01*
X037456Y026479D01*
X037456Y026520D01*
X037857Y026757D02*
X038014Y026757D01*
X037955Y026598D02*
X037915Y026598D01*
X037915Y026440D02*
X037955Y026440D01*
X037975Y026281D02*
X037896Y026281D01*
X037737Y026122D02*
X038134Y026122D01*
X038023Y025964D02*
X037848Y025964D01*
X037728Y026915D02*
X038143Y026915D01*
X037984Y027074D02*
X037886Y027074D01*
X039112Y029610D02*
X041392Y029610D01*
X042185Y030990D02*
X042185Y031000D01*
X043535Y029650D01*
X043215Y031354D02*
X043193Y031354D01*
X043056Y031513D02*
X043056Y031513D01*
X042898Y031671D02*
X042784Y031671D01*
X042235Y034525D02*
X042135Y034525D01*
X042135Y034684D02*
X042235Y034684D01*
X042235Y034842D02*
X042135Y034842D01*
X042135Y035159D02*
X042235Y035159D01*
X042235Y035318D02*
X042135Y035318D01*
X042135Y035477D02*
X042235Y035477D01*
X042858Y027549D02*
X043135Y027549D01*
X043135Y027391D02*
X043040Y027391D01*
X043117Y027232D02*
X043135Y027232D01*
X038535Y018354D02*
X038405Y018354D01*
X038535Y018195D02*
X038247Y018195D01*
X038088Y018037D02*
X038535Y018037D01*
X038535Y017878D02*
X037930Y017878D01*
X037771Y017720D02*
X038535Y017720D01*
X038535Y017561D02*
X037613Y017561D01*
X038535Y017403D02*
X028135Y017403D01*
X028135Y017244D02*
X038535Y017244D01*
X038535Y017086D02*
X028135Y017086D01*
X028135Y016927D02*
X038535Y016927D01*
X038535Y016768D02*
X028135Y016768D01*
X028135Y016610D02*
X038535Y016610D01*
X038535Y016451D02*
X028128Y016451D01*
X028044Y016293D02*
X038535Y016293D01*
X038535Y016134D02*
X027886Y016134D01*
X027727Y015976D02*
X038535Y015976D01*
X038535Y015817D02*
X027569Y015817D01*
X027410Y015659D02*
X038535Y015659D01*
X038535Y015500D02*
X027305Y015500D01*
X027305Y015342D02*
X038535Y015342D01*
X038535Y015183D02*
X027246Y015183D01*
X027087Y015024D02*
X038535Y015024D01*
X038535Y014866D02*
X027196Y014866D01*
X035826Y012171D02*
X035986Y012171D01*
X035986Y012012D02*
X035826Y012012D01*
X035826Y011854D02*
X035986Y011854D01*
X035986Y011695D02*
X035826Y011695D01*
X035826Y011219D02*
X035986Y011219D01*
X035986Y011061D02*
X035826Y011061D01*
X035826Y010902D02*
X035986Y010902D01*
X036775Y011695D02*
X037456Y011695D01*
X037456Y011854D02*
X036775Y011854D01*
X036775Y012012D02*
X037456Y012012D01*
X037504Y012171D02*
X036670Y012171D01*
X038465Y011500D02*
X038935Y011500D01*
X041185Y012956D02*
X044185Y012956D01*
X045253Y012963D02*
X045285Y012963D01*
X045285Y012805D02*
X045253Y012805D01*
X045253Y012646D02*
X045285Y012646D01*
X045285Y012488D02*
X045253Y012488D01*
X045248Y012329D02*
X045285Y012329D01*
X045285Y012171D02*
X045152Y012171D01*
X045253Y013122D02*
X045285Y013122D01*
X045285Y013280D02*
X045253Y013280D01*
X045253Y013439D02*
X045285Y013439D01*
X045285Y013598D02*
X045242Y013598D01*
X045285Y013756D02*
X045137Y013756D01*
X045285Y013915D02*
X041305Y013915D01*
X042137Y013756D02*
X043233Y013756D01*
X043128Y013598D02*
X042242Y013598D01*
X042253Y013439D02*
X043117Y013439D01*
X043117Y012488D02*
X042253Y012488D01*
X042248Y012329D02*
X043122Y012329D01*
X043219Y012171D02*
X042152Y012171D01*
X043185Y016000D02*
X043235Y016000D01*
X027061Y004324D02*
X027061Y004324D01*
D26*
X028935Y004300D02*
X028935Y007750D01*
X029185Y008000D01*
X029435Y008000D01*
X026185Y014000D02*
X025385Y014000D01*
X026185Y014000D02*
X026685Y014500D01*
X025685Y016500D02*
X026185Y017000D01*
X026185Y017800D01*
X036685Y029000D02*
X037785Y029000D01*
X037935Y029150D01*
X037935Y029850D01*
D27*
X029435Y008000D02*
X029935Y007500D01*
X030185Y007500D01*
X029935Y006000D02*
X029185Y006000D01*
X028935Y004300D02*
X030185Y004300D01*
D28*
X006685Y006000D03*
D29*
X040785Y013400D02*
X041185Y013000D01*
X041185Y012956D01*
X040785Y013400D02*
X040785Y016000D01*
X041985Y017950D02*
X042035Y017950D01*
X043185Y016800D01*
X043185Y016000D01*
D30*
X038685Y011500D02*
X038685Y009250D01*
X038685Y006000D01*
X038465Y006000D01*
X038465Y011500D02*
X038685Y011500D01*
M02*
