G75*
G70*
%OFA0B0*%
%FSLAX24Y24*%
%IPPOS*%
%LPD*%
%AMOC8*
5,1,8,0,0,1.08239X$1,22.5*
%
%ADD10C,0.0080*%
%ADD11OC8,0.0600*%
%ADD12C,0.0600*%
%ADD13C,0.0780*%
%ADD14C,0.0000*%
%ADD15OC8,0.1750*%
%ADD16C,0.0160*%
%ADD17OC8,0.0768*%
D10*
X000685Y002500D02*
X000685Y006043D01*
X000660Y006471D01*
X000701Y006897D01*
X000809Y007311D01*
X000981Y007704D01*
X001212Y008065D01*
X001496Y008385D01*
X001827Y008657D01*
X002197Y008874D01*
X002596Y009030D01*
X003014Y009122D01*
X020678Y009122D01*
X021019Y009182D01*
X021345Y009301D01*
X021646Y009475D01*
X021911Y009698D01*
X022134Y009964D01*
X022307Y010264D01*
X022426Y010591D01*
X022486Y010932D01*
X022485Y011279D01*
X022485Y036697D01*
X022486Y036697D02*
X022540Y037112D01*
X022665Y037512D01*
X022858Y037884D01*
X023112Y038217D01*
X023421Y038501D01*
X023774Y038727D01*
X024161Y038888D01*
X024570Y038980D01*
X024988Y038999D01*
X024988Y039000D02*
X044114Y039000D01*
X044115Y039000D02*
X044530Y038985D01*
X044937Y038899D01*
X045322Y038743D01*
X045675Y038523D01*
X045983Y038245D01*
X046239Y037918D01*
X046434Y037551D01*
X046563Y037155D01*
X046621Y036744D01*
X046620Y036744D02*
X046620Y005068D01*
X046621Y005068D02*
X046605Y004642D01*
X046516Y004225D01*
X046356Y003829D01*
X046129Y003468D01*
X045844Y003151D01*
X045507Y002889D01*
X045130Y002689D01*
X044724Y002558D01*
X044302Y002499D01*
X044302Y002500D02*
X000685Y002500D01*
D11*
X025685Y013500D03*
X026685Y013500D03*
X026685Y014500D03*
X026685Y015500D03*
X025685Y015500D03*
X025685Y014500D03*
X025685Y016500D03*
X025685Y017500D03*
X026685Y017500D03*
X026685Y016500D03*
X029435Y021500D03*
X030435Y021500D03*
X030435Y022500D03*
X030435Y023500D03*
X029435Y023500D03*
X029435Y022500D03*
X029435Y024500D03*
X029435Y025500D03*
X030435Y025500D03*
X030435Y024500D03*
X030435Y026500D03*
X030435Y027500D03*
X029435Y027500D03*
X029435Y026500D03*
X029435Y028500D03*
X029435Y029500D03*
X030435Y029500D03*
X030435Y028500D03*
X030435Y030500D03*
X029435Y030500D03*
X037435Y030500D03*
X038435Y030500D03*
X038435Y029500D03*
X037435Y029500D03*
X037435Y028500D03*
X038435Y028500D03*
X038435Y027500D03*
X037435Y027500D03*
X037435Y026500D03*
X038435Y026500D03*
X038435Y025500D03*
X037435Y025500D03*
X037435Y024500D03*
X038435Y024500D03*
X038435Y023500D03*
X037435Y023500D03*
X037435Y022500D03*
X038435Y022500D03*
X038435Y021500D03*
X037435Y021500D03*
D12*
X006435Y004300D02*
X006435Y003700D01*
X005435Y003700D02*
X005435Y004300D01*
X004435Y004300D02*
X004435Y003700D01*
X003435Y003700D02*
X003435Y004300D01*
X002435Y004300D02*
X002435Y003700D01*
D13*
X041795Y027050D02*
X042575Y027050D01*
X042575Y029010D02*
X041795Y029010D01*
X041795Y030990D02*
X042575Y030990D01*
X042575Y032950D02*
X041795Y032950D01*
X041795Y035010D02*
X042575Y035010D01*
X042575Y036980D02*
X041795Y036980D01*
D14*
X026305Y037000D02*
X026343Y037215D01*
X026452Y037405D01*
X026620Y037546D01*
X026826Y037620D01*
X027044Y037620D01*
X027250Y037546D01*
X027418Y037405D01*
X027527Y037215D01*
X027565Y037000D01*
X027527Y036785D01*
X027418Y036595D01*
X027250Y036454D01*
X027044Y036380D01*
X026826Y036380D01*
X026620Y036454D01*
X026452Y036595D01*
X026343Y036785D01*
X026305Y037000D01*
X026305Y006000D02*
X026343Y006215D01*
X026452Y006405D01*
X026620Y006546D01*
X026826Y006620D01*
X027044Y006620D01*
X027250Y006546D01*
X027418Y006405D01*
X027527Y006215D01*
X027565Y006000D01*
X027527Y005785D01*
X027418Y005595D01*
X027250Y005454D01*
X027044Y005380D01*
X026826Y005380D01*
X026620Y005454D01*
X026452Y005595D01*
X026343Y005785D01*
X026305Y006000D01*
D15*
X040785Y016000D03*
X041985Y017950D03*
X043235Y016000D03*
D16*
X046100Y014000D02*
X046100Y005158D01*
X046096Y005145D01*
X046100Y005055D01*
X046100Y005033D01*
X046061Y004540D01*
X045892Y004066D01*
X045607Y003652D01*
X045224Y003326D01*
X044770Y003110D01*
X044279Y003019D01*
X001205Y003019D01*
X001205Y005976D01*
X001215Y006012D01*
X001205Y006079D01*
X001205Y006146D01*
X005981Y006146D01*
X005981Y006291D02*
X005981Y005708D01*
X006394Y005296D01*
X006977Y005296D01*
X007389Y005708D01*
X007389Y006291D01*
X006977Y006703D01*
X006394Y006703D01*
X005981Y006291D01*
X005995Y006305D02*
X001196Y006305D01*
X001199Y006161D02*
X001188Y006609D01*
X001285Y007094D01*
X001489Y007545D01*
X001787Y007940D01*
X002166Y008258D01*
X002606Y008484D01*
X003066Y008602D01*
X020598Y008602D01*
X020621Y008594D01*
X020701Y008602D01*
X020782Y008602D01*
X020803Y008611D01*
X021006Y008628D01*
X021544Y008802D01*
X022030Y009092D01*
X022439Y009482D01*
X022752Y009953D01*
X022752Y009953D01*
X022951Y010482D01*
X022951Y010482D01*
X023028Y011043D01*
X023005Y011301D01*
X023005Y036678D01*
X023089Y037160D01*
X023296Y037606D01*
X023612Y037984D01*
X024014Y038267D01*
X024476Y038436D01*
X024962Y038480D01*
X024977Y038480D01*
X025070Y038476D01*
X025080Y038480D01*
X026159Y038480D01*
X026095Y038454D01*
X025704Y038142D01*
X025422Y037728D01*
X025274Y037250D01*
X025274Y037250D01*
X025274Y036749D01*
X025422Y036271D01*
X025422Y036271D01*
X025704Y035857D01*
X026095Y035545D01*
X026095Y035545D01*
X026561Y035362D01*
X026562Y035362D01*
X027061Y035324D01*
X027549Y035436D01*
X027983Y035686D01*
X028323Y036053D01*
X028323Y036053D01*
X028541Y036504D01*
X028541Y036504D01*
X028615Y037000D01*
X028541Y037495D01*
X028323Y037946D01*
X027983Y038313D01*
X027694Y038480D01*
X044025Y038480D01*
X044038Y038475D01*
X044128Y038480D01*
X044151Y038480D01*
X044627Y038442D01*
X045086Y038280D01*
X045487Y038004D01*
X045803Y037634D01*
X046012Y037195D01*
X046100Y036720D01*
X046100Y019500D01*
X038985Y019500D01*
X038985Y014000D01*
X046100Y014000D01*
X046100Y013915D02*
X027147Y013915D01*
X027062Y013999D02*
X027305Y013756D01*
X046100Y013756D01*
X046100Y013598D02*
X027305Y013598D01*
X027305Y013756D02*
X027305Y013243D01*
X026942Y012880D01*
X026429Y012880D01*
X026185Y013123D01*
X025942Y012880D01*
X025429Y012880D01*
X025065Y013243D01*
X025065Y013756D01*
X023005Y013756D01*
X023005Y013598D02*
X025065Y013598D01*
X025065Y013756D02*
X025309Y013999D01*
X025065Y014243D01*
X025065Y014756D01*
X025309Y014999D01*
X025065Y015243D01*
X025065Y015756D01*
X025309Y015999D01*
X025065Y016243D01*
X025065Y016756D01*
X025408Y017099D01*
X025205Y017301D01*
X025205Y017479D01*
X025665Y017479D01*
X025665Y017520D01*
X025665Y017979D01*
X025487Y017979D01*
X025205Y017698D01*
X025205Y017520D01*
X025665Y017520D01*
X025705Y017520D01*
X025705Y017979D01*
X025884Y017979D01*
X026086Y017777D01*
X026429Y018119D01*
X026942Y018119D01*
X027305Y017756D01*
X027305Y017243D01*
X027062Y016999D01*
X027305Y016756D01*
X027305Y016243D01*
X027062Y015999D01*
X027305Y015756D01*
X027305Y015243D01*
X027062Y015000D01*
X027305Y014756D01*
X027305Y014243D01*
X027062Y013999D01*
X027136Y014073D02*
X038985Y014073D01*
X038985Y014232D02*
X027294Y014232D01*
X027305Y014390D02*
X038985Y014390D01*
X038985Y014549D02*
X027305Y014549D01*
X027305Y014707D02*
X038985Y014707D01*
X038985Y014866D02*
X027196Y014866D01*
X027087Y015024D02*
X038985Y015024D01*
X038985Y015183D02*
X027246Y015183D01*
X027305Y015342D02*
X038985Y015342D01*
X038985Y015500D02*
X027305Y015500D01*
X027305Y015659D02*
X038985Y015659D01*
X038985Y015817D02*
X027244Y015817D01*
X027086Y015976D02*
X038985Y015976D01*
X038985Y016134D02*
X027197Y016134D01*
X027305Y016293D02*
X038985Y016293D01*
X038985Y016451D02*
X027305Y016451D01*
X027305Y016610D02*
X038985Y016610D01*
X038985Y016768D02*
X027293Y016768D01*
X027135Y016927D02*
X038985Y016927D01*
X038985Y017086D02*
X027148Y017086D01*
X027305Y017244D02*
X038985Y017244D01*
X038985Y017403D02*
X027305Y017403D01*
X027305Y017561D02*
X038985Y017561D01*
X038985Y017720D02*
X027305Y017720D01*
X027183Y017878D02*
X038985Y017878D01*
X038985Y018037D02*
X027025Y018037D01*
X026346Y018037D02*
X023005Y018037D01*
X023005Y018195D02*
X038985Y018195D01*
X038985Y018354D02*
X023005Y018354D01*
X023005Y018512D02*
X038985Y018512D01*
X038985Y018671D02*
X023005Y018671D01*
X023005Y018829D02*
X038985Y018829D01*
X038985Y018988D02*
X023005Y018988D01*
X023005Y019147D02*
X038985Y019147D01*
X038985Y019305D02*
X023005Y019305D01*
X023005Y019464D02*
X038985Y019464D01*
X038634Y021020D02*
X038915Y021301D01*
X038915Y021479D01*
X038456Y021479D01*
X038456Y021520D01*
X038915Y021520D01*
X038915Y021698D01*
X038713Y021901D01*
X039055Y022243D01*
X039055Y022756D01*
X038812Y022999D01*
X039055Y023243D01*
X039055Y023756D01*
X038812Y023999D01*
X039055Y024243D01*
X039055Y024756D01*
X038812Y024999D01*
X039055Y025243D01*
X039055Y025756D01*
X038713Y026099D01*
X038915Y026301D01*
X038915Y026479D01*
X038456Y026479D01*
X038456Y026520D01*
X038915Y026520D01*
X038915Y026698D01*
X038713Y026901D01*
X039055Y027243D01*
X039055Y027756D01*
X038812Y027999D01*
X039055Y028243D01*
X039055Y028756D01*
X038812Y028999D01*
X039055Y029243D01*
X039055Y029756D01*
X038812Y029999D01*
X039055Y030243D01*
X039055Y030756D01*
X038692Y031119D01*
X038179Y031119D01*
X037935Y030876D01*
X037692Y031119D01*
X037179Y031119D01*
X036815Y030756D01*
X036815Y030243D01*
X037059Y029999D01*
X036815Y029756D01*
X036815Y029243D01*
X037059Y028999D01*
X036815Y028756D01*
X036815Y028243D01*
X037059Y027999D01*
X036815Y027756D01*
X036815Y027243D01*
X037158Y026901D01*
X036955Y026698D01*
X036955Y026520D01*
X037415Y026520D01*
X037415Y026479D01*
X036955Y026479D01*
X036955Y026301D01*
X037158Y026099D01*
X036815Y025756D01*
X036815Y025243D01*
X037059Y024999D01*
X036815Y024756D01*
X036815Y024243D01*
X037059Y023999D01*
X036815Y023756D01*
X036815Y023243D01*
X037059Y022999D01*
X036815Y022756D01*
X036815Y022243D01*
X037158Y021901D01*
X036955Y021698D01*
X036955Y021520D01*
X037415Y021520D01*
X037415Y021479D01*
X037455Y021479D01*
X037455Y021020D01*
X037634Y021020D01*
X037915Y021301D01*
X037915Y021479D01*
X037456Y021479D01*
X037456Y021520D01*
X037915Y021520D01*
X037915Y021698D01*
X037713Y021901D01*
X037935Y022123D01*
X038158Y021901D01*
X037955Y021698D01*
X037955Y021520D01*
X038415Y021520D01*
X038415Y021479D01*
X038455Y021479D01*
X038455Y021020D01*
X038634Y021020D01*
X038664Y021049D02*
X046100Y021049D01*
X046100Y020891D02*
X030703Y020891D01*
X030692Y020880D02*
X031055Y021243D01*
X031055Y021756D01*
X030812Y021999D01*
X031055Y022243D01*
X031055Y022756D01*
X030812Y022999D01*
X031055Y023243D01*
X031055Y023756D01*
X030812Y023999D01*
X031055Y024243D01*
X031055Y024756D01*
X030812Y024999D01*
X031055Y025243D01*
X031055Y025756D01*
X030812Y025999D01*
X031055Y026243D01*
X031055Y026756D01*
X030812Y026999D01*
X031055Y027243D01*
X031055Y027756D01*
X030812Y027999D01*
X031055Y028243D01*
X031055Y028756D01*
X030812Y028999D01*
X031055Y029243D01*
X031055Y029756D01*
X030812Y029999D01*
X031055Y030243D01*
X031055Y030756D01*
X030692Y031119D01*
X030179Y031119D01*
X029935Y030876D01*
X029692Y031119D01*
X029179Y031119D01*
X028815Y030756D01*
X028815Y030243D01*
X029059Y029999D01*
X028815Y029756D01*
X028815Y029243D01*
X029059Y028999D01*
X028815Y028756D01*
X028815Y028243D01*
X029059Y027999D01*
X028815Y027756D01*
X028815Y027243D01*
X029059Y026999D01*
X028815Y026756D01*
X028815Y026243D01*
X029158Y025901D01*
X028955Y025698D01*
X028955Y025520D01*
X029415Y025520D01*
X029415Y025479D01*
X028955Y025479D01*
X028955Y025301D01*
X029158Y025099D01*
X028815Y024756D01*
X028815Y024243D01*
X029059Y023999D01*
X028815Y023756D01*
X028815Y023243D01*
X029059Y022999D01*
X028815Y022756D01*
X028815Y022243D01*
X029059Y021999D01*
X028815Y021756D01*
X028815Y021243D01*
X029179Y020880D01*
X029692Y020880D01*
X029935Y021123D01*
X030179Y020880D01*
X030692Y020880D01*
X030862Y021049D02*
X037207Y021049D01*
X037237Y021020D02*
X037415Y021020D01*
X037415Y021479D01*
X036955Y021479D01*
X036955Y021301D01*
X037237Y021020D01*
X037415Y021049D02*
X037455Y021049D01*
X037455Y021208D02*
X037415Y021208D01*
X037415Y021366D02*
X037455Y021366D01*
X037664Y021049D02*
X038207Y021049D01*
X038237Y021020D02*
X038415Y021020D01*
X038415Y021479D01*
X037955Y021479D01*
X037955Y021301D01*
X038237Y021020D01*
X038415Y021049D02*
X038455Y021049D01*
X038455Y021208D02*
X038415Y021208D01*
X038415Y021366D02*
X038455Y021366D01*
X038822Y021208D02*
X046100Y021208D01*
X046100Y021366D02*
X038915Y021366D01*
X038915Y021525D02*
X046100Y021525D01*
X046100Y021683D02*
X038915Y021683D01*
X038772Y021842D02*
X046100Y021842D01*
X046100Y022000D02*
X038813Y022000D01*
X038971Y022159D02*
X046100Y022159D01*
X046100Y022317D02*
X039055Y022317D01*
X039055Y022476D02*
X046100Y022476D01*
X046100Y022635D02*
X039055Y022635D01*
X039019Y022793D02*
X046100Y022793D01*
X046100Y022952D02*
X038860Y022952D01*
X038923Y023110D02*
X046100Y023110D01*
X046100Y023269D02*
X039055Y023269D01*
X039055Y023427D02*
X046100Y023427D01*
X046100Y023586D02*
X039055Y023586D01*
X039055Y023744D02*
X046100Y023744D01*
X046100Y023903D02*
X038909Y023903D01*
X038874Y024061D02*
X046100Y024061D01*
X046100Y024220D02*
X039033Y024220D01*
X039055Y024379D02*
X046100Y024379D01*
X046100Y024537D02*
X039055Y024537D01*
X039055Y024696D02*
X046100Y024696D01*
X046100Y024854D02*
X038957Y024854D01*
X038825Y025013D02*
X046100Y025013D01*
X046100Y025171D02*
X038984Y025171D01*
X039055Y025330D02*
X046100Y025330D01*
X046100Y025488D02*
X039055Y025488D01*
X039055Y025647D02*
X046100Y025647D01*
X046100Y025805D02*
X039006Y025805D01*
X038848Y025964D02*
X046100Y025964D01*
X046100Y026122D02*
X038737Y026122D01*
X038896Y026281D02*
X046100Y026281D01*
X046100Y026440D02*
X038915Y026440D01*
X038915Y026598D02*
X041441Y026598D01*
X041472Y026566D02*
X041682Y026480D01*
X042135Y026480D01*
X042135Y026999D01*
X042235Y026999D01*
X042235Y026480D01*
X042689Y026480D01*
X042898Y026566D01*
X043059Y026727D01*
X043145Y026936D01*
X043145Y026999D01*
X042236Y026999D01*
X042236Y027100D01*
X043145Y027100D01*
X043145Y027163D01*
X043059Y027372D01*
X042898Y027533D01*
X042689Y027619D01*
X042235Y027619D01*
X042235Y027100D01*
X042135Y027100D01*
X042135Y027619D01*
X041682Y027619D01*
X041472Y027533D01*
X041312Y027372D01*
X041225Y027163D01*
X041225Y027100D01*
X042135Y027100D01*
X042135Y026999D01*
X041225Y026999D01*
X041225Y026936D01*
X041312Y026727D01*
X041472Y026566D01*
X041300Y026757D02*
X038857Y026757D01*
X038728Y026915D02*
X041234Y026915D01*
X041254Y027232D02*
X039045Y027232D01*
X039055Y027391D02*
X041331Y027391D01*
X041513Y027549D02*
X039055Y027549D01*
X039055Y027708D02*
X046100Y027708D01*
X046100Y027866D02*
X038945Y027866D01*
X038838Y028025D02*
X046100Y028025D01*
X046100Y028184D02*
X038996Y028184D01*
X039055Y028342D02*
X041551Y028342D01*
X041654Y028300D02*
X041393Y028408D01*
X041193Y028607D01*
X041085Y028868D01*
X041085Y029151D01*
X041193Y029412D01*
X041393Y029611D01*
X041654Y029719D01*
X042717Y029719D01*
X042978Y029611D01*
X043177Y029412D01*
X043285Y029151D01*
X043285Y028868D01*
X043177Y028607D01*
X042978Y028408D01*
X042717Y028300D01*
X041654Y028300D01*
X041300Y028501D02*
X039055Y028501D01*
X039055Y028659D02*
X041172Y028659D01*
X041106Y028818D02*
X038994Y028818D01*
X038835Y028976D02*
X041085Y028976D01*
X041085Y029135D02*
X038947Y029135D01*
X039055Y029293D02*
X041144Y029293D01*
X041234Y029452D02*
X039055Y029452D01*
X039055Y029610D02*
X041392Y029610D01*
X041654Y030280D02*
X041393Y030388D01*
X041193Y030587D01*
X041085Y030848D01*
X041085Y031131D01*
X041193Y031392D01*
X041393Y031591D01*
X041654Y031699D01*
X042717Y031699D01*
X042978Y031591D01*
X043177Y031392D01*
X043285Y031131D01*
X043285Y030848D01*
X043177Y030587D01*
X042978Y030388D01*
X042717Y030280D01*
X041654Y030280D01*
X041378Y030403D02*
X039055Y030403D01*
X039055Y030245D02*
X046100Y030245D01*
X046100Y030403D02*
X042993Y030403D01*
X043152Y030562D02*
X046100Y030562D01*
X046100Y030720D02*
X043232Y030720D01*
X043285Y030879D02*
X046100Y030879D01*
X046100Y031037D02*
X043285Y031037D01*
X043258Y031196D02*
X046100Y031196D01*
X046100Y031354D02*
X043193Y031354D01*
X043056Y031513D02*
X046100Y031513D01*
X046100Y031671D02*
X042784Y031671D01*
X042717Y032240D02*
X042978Y032348D01*
X043177Y032547D01*
X043285Y032808D01*
X043285Y033091D01*
X043177Y033352D01*
X042978Y033551D01*
X042717Y033659D01*
X041654Y033659D01*
X041393Y033551D01*
X041193Y033352D01*
X041085Y033091D01*
X041085Y032808D01*
X041193Y032547D01*
X041393Y032348D01*
X041654Y032240D01*
X042717Y032240D01*
X042876Y032306D02*
X046100Y032306D01*
X046100Y032464D02*
X043094Y032464D01*
X043208Y032623D02*
X046100Y032623D01*
X046100Y032781D02*
X043274Y032781D01*
X043285Y032940D02*
X046100Y032940D01*
X046100Y033098D02*
X043282Y033098D01*
X043216Y033257D02*
X046100Y033257D01*
X046100Y033415D02*
X043113Y033415D01*
X042923Y033574D02*
X046100Y033574D01*
X046100Y033733D02*
X023005Y033733D01*
X023005Y033891D02*
X046100Y033891D01*
X046100Y034050D02*
X023005Y034050D01*
X023005Y034208D02*
X046100Y034208D01*
X046100Y034367D02*
X023005Y034367D01*
X023005Y034525D02*
X041475Y034525D01*
X041472Y034526D02*
X041682Y034440D01*
X042135Y034440D01*
X042135Y034959D01*
X042235Y034959D01*
X042235Y034440D01*
X042689Y034440D01*
X042898Y034526D01*
X043059Y034687D01*
X043145Y034896D01*
X043145Y034959D01*
X042236Y034959D01*
X042236Y035060D01*
X043145Y035060D01*
X043145Y035123D01*
X043059Y035332D01*
X042898Y035493D01*
X042689Y035579D01*
X042235Y035579D01*
X042235Y035060D01*
X042135Y035060D01*
X042135Y035579D01*
X041682Y035579D01*
X041472Y035493D01*
X041312Y035332D01*
X041225Y035123D01*
X041225Y035060D01*
X042135Y035060D01*
X042135Y034959D01*
X041225Y034959D01*
X041225Y034896D01*
X041312Y034687D01*
X041472Y034526D01*
X041315Y034684D02*
X023005Y034684D01*
X023005Y034842D02*
X041248Y034842D01*
X041241Y035159D02*
X023005Y035159D01*
X023005Y035001D02*
X042135Y035001D01*
X042236Y035001D02*
X046100Y035001D01*
X046100Y035159D02*
X043130Y035159D01*
X043065Y035318D02*
X046100Y035318D01*
X046100Y035477D02*
X042914Y035477D01*
X043123Y034842D02*
X046100Y034842D01*
X046100Y034684D02*
X043056Y034684D01*
X042896Y034525D02*
X046100Y034525D01*
X046100Y035635D02*
X027894Y035635D01*
X027983Y035686D02*
X027983Y035686D01*
X028083Y035794D02*
X046100Y035794D01*
X046100Y035952D02*
X028230Y035952D01*
X028351Y036111D02*
X046100Y036111D01*
X046100Y036269D02*
X028427Y036269D01*
X028504Y036428D02*
X041343Y036428D01*
X041393Y036378D02*
X041654Y036270D01*
X042717Y036270D01*
X042978Y036378D01*
X043177Y036577D01*
X043285Y036838D01*
X043285Y037121D01*
X043177Y037382D01*
X042978Y037581D01*
X042717Y037689D01*
X041654Y037689D01*
X041393Y037581D01*
X041193Y037382D01*
X041085Y037121D01*
X041085Y036838D01*
X041193Y036577D01*
X041393Y036378D01*
X041190Y036586D02*
X028553Y036586D01*
X028577Y036745D02*
X041124Y036745D01*
X041085Y036903D02*
X028601Y036903D01*
X028606Y037062D02*
X041085Y037062D01*
X041127Y037221D02*
X028582Y037221D01*
X028558Y037379D02*
X041192Y037379D01*
X041349Y037538D02*
X028520Y037538D01*
X028541Y037495D02*
X028541Y037495D01*
X028444Y037696D02*
X045750Y037696D01*
X045849Y037538D02*
X043021Y037538D01*
X043178Y037379D02*
X045924Y037379D01*
X046000Y037221D02*
X043244Y037221D01*
X043285Y037062D02*
X046037Y037062D01*
X046066Y036903D02*
X043285Y036903D01*
X043247Y036745D02*
X046096Y036745D01*
X046100Y036586D02*
X043181Y036586D01*
X043028Y036428D02*
X046100Y036428D01*
X045614Y037855D02*
X028367Y037855D01*
X028323Y037946D02*
X028323Y037946D01*
X028323Y037946D01*
X028261Y038013D02*
X045473Y038013D01*
X045487Y038004D02*
X045487Y038004D01*
X045243Y038172D02*
X028114Y038172D01*
X027953Y038330D02*
X044943Y038330D01*
X042235Y035477D02*
X042135Y035477D01*
X042135Y035318D02*
X042235Y035318D01*
X042235Y035159D02*
X042135Y035159D01*
X042135Y034842D02*
X042235Y034842D01*
X042235Y034684D02*
X042135Y034684D01*
X042135Y034525D02*
X042235Y034525D01*
X041306Y035318D02*
X023005Y035318D01*
X023005Y035477D02*
X026269Y035477D01*
X025982Y035635D02*
X023005Y035635D01*
X023005Y035794D02*
X025783Y035794D01*
X025704Y035857D02*
X025704Y035857D01*
X025704Y035857D01*
X025639Y035952D02*
X023005Y035952D01*
X023005Y036111D02*
X025531Y036111D01*
X025423Y036269D02*
X023005Y036269D01*
X023005Y036428D02*
X025373Y036428D01*
X025324Y036586D02*
X023005Y036586D01*
X023017Y036745D02*
X025275Y036745D01*
X025274Y036749D02*
X025274Y036749D01*
X025274Y036903D02*
X023045Y036903D01*
X023072Y037062D02*
X025274Y037062D01*
X025274Y037221D02*
X023117Y037221D01*
X023191Y037379D02*
X025314Y037379D01*
X025363Y037538D02*
X023264Y037538D01*
X023371Y037696D02*
X025412Y037696D01*
X025422Y037728D02*
X025422Y037728D01*
X025508Y037855D02*
X023504Y037855D01*
X023654Y038013D02*
X025616Y038013D01*
X025704Y038142D02*
X025704Y038142D01*
X025704Y038142D01*
X025741Y038172D02*
X023879Y038172D01*
X024187Y038330D02*
X025940Y038330D01*
X026095Y038454D02*
X026095Y038454D01*
X027061Y035324D02*
X027061Y035324D01*
X027549Y035436D02*
X027549Y035436D01*
X027620Y035477D02*
X041456Y035477D01*
X041448Y033574D02*
X023005Y033574D01*
X023005Y033415D02*
X041257Y033415D01*
X041154Y033257D02*
X023005Y033257D01*
X023005Y033098D02*
X041089Y033098D01*
X041085Y032940D02*
X023005Y032940D01*
X023005Y032781D02*
X041096Y032781D01*
X041162Y032623D02*
X023005Y032623D01*
X023005Y032464D02*
X041277Y032464D01*
X041494Y032306D02*
X023005Y032306D01*
X023005Y032147D02*
X046100Y032147D01*
X046100Y031989D02*
X023005Y031989D01*
X023005Y031830D02*
X046100Y031830D01*
X046100Y030086D02*
X038899Y030086D01*
X038884Y029928D02*
X046100Y029928D01*
X046100Y029769D02*
X039043Y029769D01*
X039055Y030562D02*
X041219Y030562D01*
X041138Y030720D02*
X039055Y030720D01*
X038933Y030879D02*
X041085Y030879D01*
X041085Y031037D02*
X038774Y031037D01*
X038096Y031037D02*
X037774Y031037D01*
X037933Y030879D02*
X037938Y030879D01*
X037096Y031037D02*
X030774Y031037D01*
X030933Y030879D02*
X036938Y030879D01*
X036815Y030720D02*
X031055Y030720D01*
X031055Y030562D02*
X036815Y030562D01*
X036815Y030403D02*
X031055Y030403D01*
X031055Y030245D02*
X036815Y030245D01*
X036972Y030086D02*
X030899Y030086D01*
X030884Y029928D02*
X036987Y029928D01*
X036828Y029769D02*
X031043Y029769D01*
X031055Y029610D02*
X036815Y029610D01*
X036815Y029452D02*
X031055Y029452D01*
X031055Y029293D02*
X036815Y029293D01*
X036923Y029135D02*
X030947Y029135D01*
X030835Y028976D02*
X037035Y028976D01*
X036877Y028818D02*
X030994Y028818D01*
X031055Y028659D02*
X036815Y028659D01*
X036815Y028501D02*
X031055Y028501D01*
X031055Y028342D02*
X036815Y028342D01*
X036875Y028184D02*
X030996Y028184D01*
X030838Y028025D02*
X037033Y028025D01*
X036926Y027866D02*
X030945Y027866D01*
X031055Y027708D02*
X036815Y027708D01*
X036815Y027549D02*
X031055Y027549D01*
X031055Y027391D02*
X036815Y027391D01*
X036826Y027232D02*
X031045Y027232D01*
X030886Y027074D02*
X036984Y027074D01*
X037143Y026915D02*
X030896Y026915D01*
X031055Y026757D02*
X037014Y026757D01*
X036955Y026598D02*
X031055Y026598D01*
X031055Y026440D02*
X036955Y026440D01*
X036975Y026281D02*
X031055Y026281D01*
X030935Y026122D02*
X037134Y026122D01*
X037023Y025964D02*
X030848Y025964D01*
X031006Y025805D02*
X036864Y025805D01*
X036815Y025647D02*
X031055Y025647D01*
X031055Y025488D02*
X036815Y025488D01*
X036815Y025330D02*
X031055Y025330D01*
X030984Y025171D02*
X036887Y025171D01*
X037045Y025013D02*
X030825Y025013D01*
X030957Y024854D02*
X036913Y024854D01*
X036815Y024696D02*
X031055Y024696D01*
X031055Y024537D02*
X036815Y024537D01*
X036815Y024379D02*
X031055Y024379D01*
X031033Y024220D02*
X036838Y024220D01*
X036997Y024061D02*
X030874Y024061D01*
X030909Y023903D02*
X036962Y023903D01*
X036815Y023744D02*
X031055Y023744D01*
X031055Y023586D02*
X036815Y023586D01*
X036815Y023427D02*
X031055Y023427D01*
X031055Y023269D02*
X036815Y023269D01*
X036948Y023110D02*
X030923Y023110D01*
X030860Y022952D02*
X037011Y022952D01*
X036852Y022793D02*
X031019Y022793D01*
X031055Y022635D02*
X036815Y022635D01*
X036815Y022476D02*
X031055Y022476D01*
X031055Y022317D02*
X036815Y022317D01*
X036899Y022159D02*
X030971Y022159D01*
X030813Y022000D02*
X037058Y022000D01*
X037099Y021842D02*
X030970Y021842D01*
X031055Y021683D02*
X036955Y021683D01*
X036955Y021525D02*
X031055Y021525D01*
X031055Y021366D02*
X036955Y021366D01*
X037048Y021208D02*
X031020Y021208D01*
X030168Y020891D02*
X029703Y020891D01*
X029862Y021049D02*
X030009Y021049D01*
X029168Y020891D02*
X023005Y020891D01*
X023005Y021049D02*
X029009Y021049D01*
X028850Y021208D02*
X023005Y021208D01*
X023005Y021366D02*
X028815Y021366D01*
X028815Y021525D02*
X023005Y021525D01*
X023005Y021683D02*
X028815Y021683D01*
X028901Y021842D02*
X023005Y021842D01*
X023005Y022000D02*
X029058Y022000D01*
X028899Y022159D02*
X023005Y022159D01*
X023005Y022317D02*
X028815Y022317D01*
X028815Y022476D02*
X023005Y022476D01*
X023005Y022635D02*
X028815Y022635D01*
X028852Y022793D02*
X023005Y022793D01*
X023005Y022952D02*
X029011Y022952D01*
X028948Y023110D02*
X023005Y023110D01*
X023005Y023269D02*
X028815Y023269D01*
X028815Y023427D02*
X023005Y023427D01*
X023005Y023586D02*
X028815Y023586D01*
X028815Y023744D02*
X023005Y023744D01*
X023005Y023903D02*
X028962Y023903D01*
X028997Y024061D02*
X023005Y024061D01*
X023005Y024220D02*
X028838Y024220D01*
X028815Y024379D02*
X023005Y024379D01*
X023005Y024537D02*
X028815Y024537D01*
X028815Y024696D02*
X023005Y024696D01*
X023005Y024854D02*
X028913Y024854D01*
X029072Y025013D02*
X023005Y025013D01*
X023005Y025171D02*
X029085Y025171D01*
X028955Y025330D02*
X023005Y025330D01*
X023005Y025488D02*
X029415Y025488D01*
X029062Y025805D02*
X023005Y025805D01*
X023005Y025647D02*
X028955Y025647D01*
X029094Y025964D02*
X023005Y025964D01*
X023005Y026122D02*
X028936Y026122D01*
X028815Y026281D02*
X023005Y026281D01*
X023005Y026440D02*
X028815Y026440D01*
X028815Y026598D02*
X023005Y026598D01*
X023005Y026757D02*
X028816Y026757D01*
X028974Y026915D02*
X023005Y026915D01*
X023005Y027074D02*
X028984Y027074D01*
X028826Y027232D02*
X023005Y027232D01*
X023005Y027391D02*
X028815Y027391D01*
X028815Y027549D02*
X023005Y027549D01*
X023005Y027708D02*
X028815Y027708D01*
X028926Y027866D02*
X023005Y027866D01*
X023005Y028025D02*
X029033Y028025D01*
X028875Y028184D02*
X023005Y028184D01*
X023005Y028342D02*
X028815Y028342D01*
X028815Y028501D02*
X023005Y028501D01*
X023005Y028659D02*
X028815Y028659D01*
X028877Y028818D02*
X023005Y028818D01*
X023005Y028976D02*
X029035Y028976D01*
X028923Y029135D02*
X023005Y029135D01*
X023005Y029293D02*
X028815Y029293D01*
X028815Y029452D02*
X023005Y029452D01*
X023005Y029610D02*
X028815Y029610D01*
X028828Y029769D02*
X023005Y029769D01*
X023005Y029928D02*
X028987Y029928D01*
X028972Y030086D02*
X023005Y030086D01*
X023005Y030245D02*
X028815Y030245D01*
X028815Y030403D02*
X023005Y030403D01*
X023005Y030562D02*
X028815Y030562D01*
X028815Y030720D02*
X023005Y030720D01*
X023005Y030879D02*
X028938Y030879D01*
X029096Y031037D02*
X023005Y031037D01*
X023005Y031196D02*
X041112Y031196D01*
X041178Y031354D02*
X023005Y031354D01*
X023005Y031513D02*
X041315Y031513D01*
X041587Y031671D02*
X023005Y031671D01*
X029774Y031037D02*
X030096Y031037D01*
X029938Y030879D02*
X029933Y030879D01*
X037456Y026520D02*
X037915Y026520D01*
X037915Y026698D01*
X037713Y026901D01*
X037935Y027123D01*
X038158Y026901D01*
X037955Y026698D01*
X037955Y026520D01*
X038415Y026520D01*
X038415Y026479D01*
X037955Y026479D01*
X037955Y026301D01*
X038158Y026099D01*
X037935Y025876D01*
X037713Y026099D01*
X037915Y026301D01*
X037915Y026479D01*
X037456Y026479D01*
X037456Y026520D01*
X037857Y026757D02*
X038014Y026757D01*
X037955Y026598D02*
X037915Y026598D01*
X037915Y026440D02*
X037955Y026440D01*
X037975Y026281D02*
X037896Y026281D01*
X037737Y026122D02*
X038134Y026122D01*
X038023Y025964D02*
X037848Y025964D01*
X037728Y026915D02*
X038143Y026915D01*
X037984Y027074D02*
X037886Y027074D01*
X038886Y027074D02*
X042135Y027074D01*
X042236Y027074D02*
X046100Y027074D01*
X046100Y027232D02*
X043117Y027232D01*
X043040Y027391D02*
X046100Y027391D01*
X046100Y027549D02*
X042858Y027549D01*
X043137Y026915D02*
X046100Y026915D01*
X046100Y026757D02*
X043071Y026757D01*
X042930Y026598D02*
X046100Y026598D01*
X046100Y028342D02*
X042819Y028342D01*
X043071Y028501D02*
X046100Y028501D01*
X046100Y028659D02*
X043199Y028659D01*
X043264Y028818D02*
X046100Y028818D01*
X046100Y028976D02*
X043285Y028976D01*
X043285Y029135D02*
X046100Y029135D01*
X046100Y029293D02*
X043226Y029293D01*
X043137Y029452D02*
X046100Y029452D01*
X046100Y029610D02*
X042979Y029610D01*
X042235Y027549D02*
X042135Y027549D01*
X042135Y027391D02*
X042235Y027391D01*
X042235Y027232D02*
X042135Y027232D01*
X042135Y026915D02*
X042235Y026915D01*
X042235Y026757D02*
X042135Y026757D01*
X042135Y026598D02*
X042235Y026598D01*
X038058Y022000D02*
X037813Y022000D01*
X037772Y021842D02*
X038099Y021842D01*
X037955Y021683D02*
X037915Y021683D01*
X037915Y021525D02*
X037955Y021525D01*
X037955Y021366D02*
X037915Y021366D01*
X037822Y021208D02*
X038048Y021208D01*
X046100Y020732D02*
X023005Y020732D01*
X023005Y020573D02*
X046100Y020573D01*
X046100Y020415D02*
X023005Y020415D01*
X023005Y020256D02*
X046100Y020256D01*
X046100Y020098D02*
X023005Y020098D01*
X023005Y019939D02*
X046100Y019939D01*
X046100Y019781D02*
X023005Y019781D01*
X023005Y019622D02*
X046100Y019622D01*
X046100Y013439D02*
X027305Y013439D01*
X027305Y013280D02*
X046100Y013280D01*
X046100Y013122D02*
X027185Y013122D01*
X027026Y012963D02*
X046100Y012963D01*
X046100Y012805D02*
X023005Y012805D01*
X023005Y012963D02*
X025345Y012963D01*
X025186Y013122D02*
X023005Y013122D01*
X023005Y013280D02*
X025065Y013280D01*
X025065Y013439D02*
X023005Y013439D01*
X023005Y013915D02*
X025224Y013915D01*
X025235Y014073D02*
X023005Y014073D01*
X023005Y014232D02*
X025076Y014232D01*
X025065Y014390D02*
X023005Y014390D01*
X023005Y014549D02*
X025065Y014549D01*
X025065Y014707D02*
X023005Y014707D01*
X023005Y014866D02*
X025175Y014866D01*
X025284Y015024D02*
X023005Y015024D01*
X023005Y015183D02*
X025125Y015183D01*
X025065Y015342D02*
X023005Y015342D01*
X023005Y015500D02*
X025065Y015500D01*
X025065Y015659D02*
X023005Y015659D01*
X023005Y015817D02*
X025126Y015817D01*
X025285Y015976D02*
X023005Y015976D01*
X023005Y016134D02*
X025174Y016134D01*
X025065Y016293D02*
X023005Y016293D01*
X023005Y016451D02*
X025065Y016451D01*
X025065Y016610D02*
X023005Y016610D01*
X023005Y016768D02*
X025078Y016768D01*
X025236Y016927D02*
X023005Y016927D01*
X023005Y017086D02*
X025395Y017086D01*
X025262Y017244D02*
X023005Y017244D01*
X023005Y017403D02*
X025205Y017403D01*
X025205Y017561D02*
X023005Y017561D01*
X023005Y017720D02*
X025227Y017720D01*
X025385Y017878D02*
X023005Y017878D01*
X025665Y017878D02*
X025705Y017878D01*
X025705Y017720D02*
X025665Y017720D01*
X025665Y017561D02*
X025705Y017561D01*
X025985Y017878D02*
X026187Y017878D01*
X026184Y013122D02*
X026186Y013122D01*
X026345Y012963D02*
X026026Y012963D01*
X023005Y012646D02*
X046100Y012646D01*
X046100Y012488D02*
X023005Y012488D01*
X023005Y012329D02*
X046100Y012329D01*
X046100Y012171D02*
X023005Y012171D01*
X023005Y012012D02*
X046100Y012012D01*
X046100Y011854D02*
X023005Y011854D01*
X023005Y011695D02*
X046100Y011695D01*
X046100Y011536D02*
X023005Y011536D01*
X023005Y011378D02*
X046100Y011378D01*
X046100Y011219D02*
X023013Y011219D01*
X023027Y011061D02*
X046100Y011061D01*
X046100Y010902D02*
X023009Y010902D01*
X022987Y010744D02*
X046100Y010744D01*
X046100Y010585D02*
X022965Y010585D01*
X022930Y010427D02*
X046100Y010427D01*
X046100Y010268D02*
X022871Y010268D01*
X022811Y010110D02*
X046100Y010110D01*
X046100Y009951D02*
X022750Y009951D01*
X022645Y009793D02*
X046100Y009793D01*
X046100Y009634D02*
X022540Y009634D01*
X022433Y009475D02*
X046100Y009475D01*
X046100Y009317D02*
X022266Y009317D01*
X022100Y009158D02*
X046100Y009158D01*
X046100Y009000D02*
X021876Y009000D01*
X021609Y008841D02*
X046100Y008841D01*
X046100Y008683D02*
X021174Y008683D01*
X021006Y008628D02*
X021006Y008628D01*
X021544Y008802D02*
X021544Y008802D01*
X025422Y006728D02*
X025422Y006728D01*
X025274Y006250D01*
X025274Y006250D01*
X025274Y005749D01*
X025422Y005271D01*
X025422Y005271D01*
X025704Y004857D01*
X026095Y004545D01*
X026095Y004545D01*
X026561Y004362D01*
X026562Y004362D01*
X027061Y004324D01*
X027549Y004436D01*
X027983Y004686D01*
X028323Y005053D01*
X028541Y005504D01*
X028615Y006000D01*
X028541Y006495D01*
X028323Y006946D01*
X027983Y007313D01*
X027983Y007313D01*
X027549Y007563D01*
X027061Y007675D01*
X026562Y007637D01*
X026561Y007637D02*
X026095Y007454D01*
X025704Y007142D01*
X025422Y006728D01*
X025457Y006780D02*
X001222Y006780D01*
X001190Y006622D02*
X006312Y006622D01*
X006154Y006463D02*
X001191Y006463D01*
X001199Y006161D02*
X001205Y006146D01*
X001208Y005987D02*
X005981Y005987D01*
X005981Y005829D02*
X001205Y005829D01*
X001205Y005670D02*
X006019Y005670D01*
X006178Y005512D02*
X001205Y005512D01*
X001205Y005353D02*
X006336Y005353D01*
X006312Y004919D02*
X006084Y004825D01*
X005935Y004676D01*
X005787Y004825D01*
X005559Y004919D01*
X005312Y004919D01*
X005084Y004825D01*
X004910Y004651D01*
X004860Y004530D01*
X004842Y004571D01*
X004707Y004706D01*
X004531Y004779D01*
X004455Y004779D01*
X004455Y004020D01*
X004415Y004020D01*
X004415Y004779D01*
X004340Y004779D01*
X004163Y004706D01*
X004028Y004571D01*
X004011Y004530D01*
X003961Y004651D01*
X003787Y004825D01*
X003559Y004919D01*
X003312Y004919D01*
X003084Y004825D01*
X002935Y004676D01*
X002787Y004825D01*
X002559Y004919D01*
X002312Y004919D01*
X002084Y004825D01*
X001910Y004651D01*
X001815Y004423D01*
X001815Y003576D01*
X001910Y003348D01*
X002084Y003174D01*
X002312Y003080D01*
X002559Y003080D01*
X002787Y003174D01*
X002935Y003323D01*
X003084Y003174D01*
X003312Y003080D01*
X003559Y003080D01*
X003787Y003174D01*
X003961Y003348D01*
X004011Y003469D01*
X004028Y003428D01*
X004163Y003293D01*
X004340Y003220D01*
X004415Y003220D01*
X004415Y003979D01*
X004455Y003979D01*
X004455Y003220D01*
X004531Y003220D01*
X004707Y003293D01*
X004842Y003428D01*
X004860Y003469D01*
X004910Y003348D01*
X005084Y003174D01*
X005312Y003080D01*
X005559Y003080D01*
X005787Y003174D01*
X005935Y003323D01*
X006084Y003174D01*
X006312Y003080D01*
X006559Y003080D01*
X006787Y003174D01*
X006961Y003348D01*
X007055Y003576D01*
X007055Y004423D01*
X006961Y004651D01*
X006787Y004825D01*
X006559Y004919D01*
X006312Y004919D01*
X006211Y004878D02*
X005660Y004878D01*
X005893Y004719D02*
X005978Y004719D01*
X006660Y004878D02*
X025690Y004878D01*
X025704Y004857D02*
X025704Y004857D01*
X025704Y004857D01*
X025581Y005036D02*
X001205Y005036D01*
X001205Y004878D02*
X002211Y004878D01*
X001978Y004719D02*
X001205Y004719D01*
X001205Y004561D02*
X001872Y004561D01*
X001815Y004402D02*
X001205Y004402D01*
X001205Y004244D02*
X001815Y004244D01*
X001815Y004085D02*
X001205Y004085D01*
X001205Y003926D02*
X001815Y003926D01*
X001815Y003768D02*
X001205Y003768D01*
X001205Y003609D02*
X001815Y003609D01*
X001867Y003451D02*
X001205Y003451D01*
X001205Y003292D02*
X001966Y003292D01*
X002181Y003134D02*
X001205Y003134D01*
X002689Y003134D02*
X003181Y003134D01*
X002966Y003292D02*
X002905Y003292D01*
X003689Y003134D02*
X005181Y003134D01*
X004966Y003292D02*
X004706Y003292D01*
X004852Y003451D02*
X004867Y003451D01*
X004455Y003451D02*
X004415Y003451D01*
X004415Y003609D02*
X004455Y003609D01*
X004455Y003768D02*
X004415Y003768D01*
X004415Y003926D02*
X004455Y003926D01*
X004455Y004085D02*
X004415Y004085D01*
X004415Y004244D02*
X004455Y004244D01*
X004455Y004402D02*
X004415Y004402D01*
X004415Y004561D02*
X004455Y004561D01*
X004455Y004719D02*
X004415Y004719D01*
X004194Y004719D02*
X003893Y004719D01*
X003998Y004561D02*
X004024Y004561D01*
X003660Y004878D02*
X005211Y004878D01*
X004978Y004719D02*
X004677Y004719D01*
X004847Y004561D02*
X004872Y004561D01*
X004455Y003292D02*
X004415Y003292D01*
X004164Y003292D02*
X003905Y003292D01*
X004003Y003451D02*
X004019Y003451D01*
X002978Y004719D02*
X002893Y004719D01*
X002660Y004878D02*
X003211Y004878D01*
X001205Y005195D02*
X025473Y005195D01*
X025396Y005353D02*
X007034Y005353D01*
X007193Y005512D02*
X025347Y005512D01*
X025298Y005670D02*
X007352Y005670D01*
X007389Y005829D02*
X025274Y005829D01*
X025274Y005749D02*
X025274Y005749D01*
X025274Y005987D02*
X007389Y005987D01*
X007389Y006146D02*
X025274Y006146D01*
X025291Y006305D02*
X007376Y006305D01*
X007217Y006463D02*
X025340Y006463D01*
X025389Y006622D02*
X007059Y006622D01*
X006893Y004719D02*
X025876Y004719D01*
X026075Y004561D02*
X006998Y004561D01*
X007055Y004402D02*
X026459Y004402D01*
X027061Y004324D02*
X027061Y004324D01*
X027402Y004402D02*
X046012Y004402D01*
X046063Y004561D02*
X027765Y004561D01*
X027983Y004686D02*
X027983Y004686D01*
X028013Y004719D02*
X046075Y004719D01*
X046088Y004878D02*
X028161Y004878D01*
X028308Y005036D02*
X046100Y005036D01*
X046100Y005195D02*
X028392Y005195D01*
X028468Y005353D02*
X046100Y005353D01*
X046100Y005512D02*
X028542Y005512D01*
X028541Y005504D02*
X028541Y005504D01*
X028566Y005670D02*
X046100Y005670D01*
X046100Y005829D02*
X028590Y005829D01*
X028613Y005987D02*
X046100Y005987D01*
X046100Y006146D02*
X028593Y006146D01*
X028569Y006305D02*
X046100Y006305D01*
X046100Y006463D02*
X028545Y006463D01*
X028541Y006495D02*
X028541Y006495D01*
X028480Y006622D02*
X046100Y006622D01*
X046100Y006780D02*
X028403Y006780D01*
X028327Y006939D02*
X046100Y006939D01*
X046100Y007097D02*
X028183Y007097D01*
X028323Y006946D02*
X028323Y006946D01*
X028036Y007256D02*
X046100Y007256D01*
X046100Y007414D02*
X027807Y007414D01*
X027549Y007563D02*
X027549Y007563D01*
X027507Y007573D02*
X046100Y007573D01*
X046100Y007731D02*
X001630Y007731D01*
X001510Y007573D02*
X026397Y007573D01*
X026562Y007637D02*
X026561Y007637D01*
X026095Y007454D02*
X026095Y007454D01*
X026045Y007414D02*
X001430Y007414D01*
X001358Y007256D02*
X025846Y007256D01*
X025704Y007142D02*
X025704Y007142D01*
X025673Y007097D02*
X001287Y007097D01*
X001254Y006939D02*
X025565Y006939D01*
X027061Y007675D02*
X027061Y007675D01*
X044820Y003134D02*
X006689Y003134D01*
X006905Y003292D02*
X045154Y003292D01*
X045371Y003451D02*
X007003Y003451D01*
X007055Y003609D02*
X045557Y003609D01*
X045607Y003652D02*
X045607Y003652D01*
X045687Y003768D02*
X007055Y003768D01*
X007055Y003926D02*
X045796Y003926D01*
X045899Y004085D02*
X007055Y004085D01*
X007055Y004244D02*
X045956Y004244D01*
X046100Y007890D02*
X001750Y007890D01*
X001787Y007940D02*
X001787Y007940D01*
X001917Y008049D02*
X046100Y008049D01*
X046100Y008207D02*
X002105Y008207D01*
X002376Y008366D02*
X046100Y008366D01*
X046100Y008524D02*
X002763Y008524D01*
X005905Y003292D02*
X005966Y003292D01*
X006181Y003134D02*
X005689Y003134D01*
D17*
X006685Y006000D03*
M02*
