%
M48
M72
T01C0.0400
T02C0.0512
T03C0.0520
T04C0.1102
T05C0.1260
%
T01
X2435Y4000
X3435Y4000
X4435Y4000
X5435Y4000
X6435Y4000
X25685Y13500
X26685Y13500
X26685Y14500
X26685Y15500
X25685Y15500
X25685Y14500
X25685Y16500
X25685Y17500
X26685Y17500
X26685Y16500
X29435Y21500
X30435Y21500
X30435Y22500
X30435Y23500
X29435Y23500
X29435Y22500
X29435Y24500
X29435Y25500
X30435Y25500
X30435Y24500
X30435Y26500
X30435Y27500
X29435Y27500
X29435Y26500
X29435Y28500
X29435Y29500
X30435Y29500
X30435Y28500
X30435Y30500
X29435Y30500
X37435Y30500
X38435Y30500
X38435Y29500
X37435Y29500
X37435Y28500
X38435Y28500
X38435Y27500
X37435Y27500
X37435Y26500
X38435Y26500
X38435Y25500
X37435Y25500
X37435Y24500
X38435Y24500
X38435Y23500
X37435Y23500
X37435Y22500
X38435Y22500
X38435Y21500
X37435Y21500
T02
X6685Y6000
T03
X42185Y36980
X42185Y27050
X42185Y29010
X42185Y30990
X42185Y32950
X42185Y35010
T04
X40785Y16000
X41985Y17950
X43235Y16000
T05
X26935Y6000
X26935Y37000
M30
