G75*
G70*
%OFA0B0*%
%FSLAX24Y24*%
%IPPOS*%
%LPD*%
%AMOC8*
5,1,8,0,0,1.08239X$1,22.5*
%
%ADD10C,0.0080*%
%ADD11R,0.0030X0.0030*%
%ADD12R,0.0120X0.0030*%
%ADD13R,0.0300X0.0030*%
%ADD14R,0.0210X0.0030*%
%ADD15R,0.0480X0.0030*%
%ADD16R,0.0270X0.0030*%
%ADD17R,0.0090X0.0030*%
%ADD18R,0.0600X0.0030*%
%ADD19R,0.0330X0.0030*%
%ADD20R,0.0180X0.0030*%
%ADD21R,0.0660X0.0030*%
%ADD22R,0.0420X0.0030*%
%ADD23R,0.0360X0.0030*%
%ADD24R,0.0240X0.0030*%
%ADD25R,0.0570X0.0030*%
%ADD26R,0.0750X0.0030*%
%ADD27R,0.1110X0.0030*%
%ADD28R,0.1050X0.0030*%
%ADD29R,0.0690X0.0030*%
%ADD30R,0.1020X0.0030*%
%ADD31R,0.0720X0.0030*%
%ADD32R,0.1080X0.0030*%
%ADD33R,0.0150X0.0030*%
%ADD34R,0.1140X0.0030*%
%ADD35R,0.1200X0.0030*%
%ADD36R,0.1260X0.0030*%
%ADD37R,0.0930X0.0030*%
%ADD38R,0.0900X0.0030*%
%ADD39R,0.0960X0.0030*%
%ADD40R,0.0870X0.0030*%
%ADD41R,0.0990X0.0030*%
%ADD42R,0.1320X0.0030*%
%ADD43R,0.1170X0.0030*%
%ADD44R,0.0060X0.0030*%
%ADD45R,0.0390X0.0030*%
%ADD46R,0.0810X0.0030*%
%ADD47R,0.1230X0.0030*%
%ADD48R,0.1410X0.0030*%
%ADD49R,0.1500X0.0030*%
%ADD50R,0.1560X0.0030*%
%ADD51R,0.1650X0.0030*%
%ADD52R,0.1710X0.0030*%
%ADD53R,0.1770X0.0030*%
%ADD54R,0.3270X0.0030*%
%ADD55R,0.3330X0.0030*%
%ADD56R,0.4470X0.0030*%
%ADD57R,0.4530X0.0030*%
%ADD58R,0.4590X0.0030*%
%ADD59R,0.4380X0.0030*%
%ADD60R,0.3780X0.0030*%
%ADD61R,0.3750X0.0030*%
%ADD62R,0.2670X0.0030*%
%ADD63R,0.0450X0.0030*%
%ADD64R,0.1380X0.0030*%
%ADD65R,0.0540X0.0030*%
%ADD66R,0.0510X0.0030*%
%ADD67R,0.3810X0.0030*%
%ADD68R,0.5610X0.0030*%
%ADD69R,0.5550X0.0030*%
%ADD70R,0.5520X0.0030*%
%ADD71R,0.5460X0.0030*%
%ADD72R,0.5370X0.0030*%
%ADD73R,0.2010X0.0030*%
%ADD74R,0.1950X0.0030*%
%ADD75R,0.1920X0.0030*%
%ADD76R,0.1860X0.0030*%
%ADD77R,0.3390X0.0030*%
%ADD78R,0.1800X0.0030*%
%ADD79R,0.1740X0.0030*%
%ADD80C,0.0050*%
%ADD81R,0.0010X0.0200*%
%ADD82R,0.0010X0.0220*%
%ADD83R,0.0010X0.0240*%
%ADD84R,0.0010X0.0350*%
%ADD85R,0.0010X0.0370*%
%ADD86R,0.0010X0.0390*%
%ADD87R,0.0010X0.0600*%
%ADD88R,0.0010X0.0620*%
%ADD89R,0.0010X0.0640*%
%ADD90R,0.0010X0.0010*%
%ADD91R,0.0010X0.1030*%
%ADD92R,0.0010X0.1050*%
%ADD93R,0.0010X0.1070*%
%ADD94R,0.0010X0.0040*%
%ADD95R,0.0010X0.0030*%
%ADD96R,0.0144X0.0003*%
%ADD97R,0.0144X0.0003*%
%ADD98R,0.0744X0.0003*%
%ADD99R,0.0336X0.0003*%
%ADD100R,0.0216X0.0003*%
%ADD101R,0.0744X0.0003*%
%ADD102R,0.0336X0.0003*%
%ADD103R,0.0216X0.0003*%
%ADD104R,0.0768X0.0003*%
%ADD105R,0.0312X0.0003*%
%ADD106R,0.0240X0.0003*%
%ADD107R,0.0768X0.0003*%
%ADD108R,0.0312X0.0003*%
%ADD109R,0.0240X0.0003*%
%ADD110R,0.0792X0.0003*%
%ADD111R,0.0120X0.0003*%
%ADD112R,0.0792X0.0003*%
%ADD113R,0.0120X0.0003*%
%ADD114R,0.0816X0.0003*%
%ADD115R,0.0096X0.0003*%
%ADD116R,0.0096X0.0003*%
%ADD117R,0.0816X0.0003*%
%ADD118R,0.0096X0.0003*%
%ADD119R,0.0096X0.0003*%
%ADD120R,0.0336X0.0003*%
%ADD121R,0.0336X0.0003*%
%ADD122R,0.0840X0.0003*%
%ADD123R,0.0840X0.0003*%
%ADD124R,0.0816X0.0003*%
%ADD125R,0.0816X0.0003*%
%ADD126R,0.0312X0.0003*%
%ADD127R,0.0264X0.0003*%
%ADD128R,0.0312X0.0003*%
%ADD129R,0.0264X0.0003*%
%ADD130R,0.0912X0.0003*%
%ADD131R,0.0912X0.0003*%
%ADD132R,0.0912X0.0003*%
%ADD133R,0.0192X0.0003*%
%ADD134R,0.0912X0.0003*%
%ADD135R,0.0192X0.0003*%
%ADD136R,0.0936X0.0003*%
%ADD137R,0.0936X0.0003*%
%ADD138R,0.0936X0.0003*%
%ADD139R,0.0936X0.0003*%
%ADD140R,0.0864X0.0003*%
%ADD141R,0.0864X0.0003*%
%ADD142R,0.0005X0.1605*%
%ADD143R,0.0005X0.1560*%
%ADD144R,0.0005X0.0065*%
%ADD145R,0.0005X0.0045*%
%ADD146R,0.0005X0.0070*%
%ADD147R,0.0005X0.0085*%
%ADD148R,0.0005X0.0090*%
%ADD149R,0.0005X0.0135*%
%ADD150R,0.0005X0.0110*%
%ADD151R,0.0005X0.0175*%
%ADD152R,0.0005X0.0180*%
%ADD153R,0.0005X0.0220*%
%ADD154R,0.0005X0.0265*%
%ADD155R,0.0005X0.0615*%
%ADD156R,0.0005X0.0595*%
%ADD157R,0.0005X0.0575*%
%ADD158R,0.0005X0.0375*%
%ADD159R,0.0005X0.0050*%
%ADD160R,0.0005X0.0155*%
%ADD161R,0.0005X0.0150*%
%ADD162R,0.0005X0.0130*%
%ADD163R,0.0005X0.0040*%
%ADD164R,0.0005X0.0305*%
%ADD165R,0.0005X0.0285*%
%ADD166R,0.0005X0.0105*%
%ADD167R,0.0005X0.0060*%
%ADD168R,0.0005X0.0370*%
%ADD169R,0.0005X0.0395*%
%ADD170R,0.0005X0.0415*%
%ADD171R,0.0005X0.0330*%
%ADD172R,0.0005X0.0240*%
%ADD173R,0.0005X0.1050*%
%ADD174R,0.0005X0.1055*%
%ADD175R,0.0005X0.1060*%
%ADD176R,0.0005X0.0195*%
%ADD177R,0.0005X0.0080*%
%ADD178R,0.0005X0.0115*%
%ADD179R,0.0005X0.0260*%
%ADD180R,0.0005X0.0020*%
%ADD181R,0.0005X0.0570*%
%ADD182R,0.0005X0.0380*%
%ADD183R,0.0005X0.0075*%
%ADD184R,0.0005X0.0025*%
%ADD185R,0.0005X0.0015*%
%ADD186C,0.0100*%
%ADD187C,0.0040*%
%ADD188C,0.0060*%
%ADD189R,0.0160X0.0008*%
%ADD190R,0.0176X0.0008*%
%ADD191R,0.0192X0.0008*%
%ADD192R,0.0192X0.0008*%
%ADD193R,0.0280X0.0008*%
%ADD194R,0.0296X0.0008*%
%ADD195R,0.0312X0.0008*%
%ADD196R,0.0296X0.0008*%
%ADD197R,0.0280X0.0008*%
%ADD198R,0.0480X0.0008*%
%ADD199R,0.0496X0.0008*%
%ADD200R,0.0512X0.0008*%
%ADD201R,0.0512X0.0008*%
%ADD202R,0.0008X0.0008*%
%ADD203R,0.0008X0.0008*%
%ADD204R,0.0824X0.0008*%
%ADD205R,0.0840X0.0008*%
%ADD206R,0.0856X0.0008*%
%ADD207R,0.0856X0.0008*%
%ADD208R,0.0032X0.0008*%
%ADD209R,0.0032X0.0008*%
%ADD210R,0.0024X0.0008*%
%ADD211C,0.0140*%
%ADD212R,0.0380X0.0660*%
%ADD213R,0.0492X0.2441*%
%ADD214R,0.2441X0.0492*%
%ADD215C,0.0197*%
%ADD216C,0.0000*%
D10*
X000685Y002500D02*
X000685Y006043D01*
X000660Y006471D01*
X000701Y006897D01*
X000809Y007311D01*
X000981Y007704D01*
X001212Y008065D01*
X001496Y008385D01*
X001827Y008657D01*
X002197Y008874D01*
X002596Y009030D01*
X003014Y009122D01*
X020678Y009122D01*
X020386Y007653D02*
X020032Y007299D01*
X020032Y006590D01*
X020386Y007653D02*
X023339Y007653D01*
X023339Y006590D01*
X023339Y005409D02*
X023339Y004346D01*
X020386Y004346D01*
X020032Y004700D01*
X020032Y005409D01*
X020248Y005449D02*
X020402Y005150D01*
X020617Y004891D01*
X020884Y004686D01*
X021188Y004543D01*
X021517Y004470D01*
X021853Y004470D01*
X022182Y004543D01*
X022486Y004686D01*
X022753Y004891D01*
X022968Y005150D01*
X023122Y005449D01*
X023122Y006551D02*
X022968Y006850D01*
X022753Y007109D01*
X022486Y007314D01*
X022182Y007457D01*
X021853Y007530D01*
X021517Y007530D01*
X021188Y007457D01*
X020884Y007314D01*
X020617Y007109D01*
X020402Y006850D01*
X020248Y006551D01*
X017339Y006590D02*
X017339Y007653D01*
X014386Y007653D01*
X014032Y007299D01*
X014032Y006590D01*
X014032Y005409D02*
X014032Y004700D01*
X014386Y004346D01*
X017339Y004346D01*
X017339Y005409D01*
X017122Y005449D02*
X016968Y005150D01*
X016753Y004891D01*
X016486Y004686D01*
X016182Y004543D01*
X015853Y004470D01*
X015517Y004470D01*
X015188Y004543D01*
X014884Y004686D01*
X014617Y004891D01*
X014402Y005150D01*
X014248Y005449D01*
X014248Y006551D02*
X014402Y006850D01*
X014617Y007109D01*
X014884Y007314D01*
X015188Y007457D01*
X015517Y007530D01*
X015853Y007530D01*
X016182Y007457D01*
X016486Y007314D01*
X016753Y007109D01*
X016968Y006850D01*
X017122Y006551D01*
X011622Y006531D02*
X011622Y007437D01*
X008748Y007437D01*
X008748Y006531D01*
X008748Y005468D02*
X008748Y004563D01*
X011622Y004563D01*
X011622Y005468D01*
X011790Y004449D02*
X011790Y003829D01*
X011790Y004139D02*
X011376Y004139D01*
X011145Y004243D02*
X011145Y003829D01*
X010835Y003829D01*
X010732Y003932D01*
X010732Y004243D01*
X010501Y004346D02*
X010087Y003932D01*
X010191Y003829D01*
X010397Y003829D01*
X010501Y003932D01*
X010501Y004346D01*
X010397Y004449D01*
X010191Y004449D01*
X010087Y004346D01*
X010087Y003932D01*
X009856Y003829D02*
X009443Y003829D01*
X009856Y004243D01*
X009856Y004346D01*
X009753Y004449D01*
X009546Y004449D01*
X009443Y004346D01*
X009212Y004346D02*
X009108Y004449D01*
X008902Y004449D01*
X008798Y004346D01*
X009212Y004346D02*
X009212Y004243D01*
X008798Y003829D01*
X009212Y003829D01*
X011376Y003829D02*
X011376Y004449D01*
X009856Y007811D02*
X009443Y007811D01*
X009650Y007811D02*
X009650Y008432D01*
X009443Y008225D01*
X009212Y007811D02*
X008798Y007811D01*
X008798Y008432D01*
X000685Y002500D02*
X044302Y002500D01*
X044302Y002499D02*
X044724Y002558D01*
X045130Y002689D01*
X045507Y002889D01*
X045844Y003151D01*
X046129Y003468D01*
X046356Y003829D01*
X046516Y004225D01*
X046605Y004642D01*
X046621Y005068D01*
X046620Y005068D02*
X046620Y036744D01*
X045745Y036797D02*
X045358Y037184D01*
X045262Y037184D01*
X045165Y037087D01*
X045165Y036894D01*
X045262Y036797D01*
X045165Y036383D02*
X045745Y036383D01*
X045745Y036190D02*
X045745Y036576D01*
X045745Y036797D02*
X045745Y037184D01*
X045552Y037405D02*
X045745Y037598D01*
X045552Y037792D01*
X045165Y037792D01*
X045165Y037405D02*
X045552Y037405D01*
X045165Y036383D02*
X045358Y036190D01*
X046621Y036744D02*
X046563Y037155D01*
X046434Y037551D01*
X046239Y037918D01*
X045983Y038245D01*
X045675Y038523D01*
X045322Y038743D01*
X044937Y038899D01*
X044530Y038985D01*
X044115Y039000D01*
X044114Y039000D02*
X024988Y039000D01*
X026266Y037000D02*
X026302Y037217D01*
X026407Y037411D01*
X026569Y037560D01*
X026771Y037649D01*
X026990Y037667D01*
X027204Y037613D01*
X027388Y037492D01*
X027523Y037318D01*
X027595Y037110D01*
X027595Y036890D01*
X027523Y036682D01*
X027388Y036508D01*
X027204Y036387D01*
X026990Y036333D01*
X026771Y036351D01*
X026569Y036440D01*
X026407Y036589D01*
X026302Y036783D01*
X026266Y037000D01*
X024988Y038999D02*
X024570Y038980D01*
X024161Y038888D01*
X023774Y038727D01*
X023421Y038501D01*
X023112Y038217D01*
X022858Y037884D01*
X022665Y037512D01*
X022540Y037112D01*
X022486Y036697D01*
X022485Y036697D02*
X022485Y011279D01*
X022486Y010932D01*
X022426Y010591D01*
X022307Y010264D01*
X022134Y009964D01*
X021911Y009698D01*
X021646Y009475D01*
X021345Y009301D01*
X021019Y009182D01*
X020678Y009122D01*
X026266Y006000D02*
X026302Y006217D01*
X026407Y006411D01*
X026569Y006560D01*
X026771Y006649D01*
X026990Y006667D01*
X027204Y006613D01*
X027388Y006492D01*
X027523Y006318D01*
X027595Y006110D01*
X027595Y005890D01*
X027523Y005682D01*
X027388Y005508D01*
X027204Y005387D01*
X026990Y005333D01*
X026771Y005351D01*
X026569Y005440D01*
X026407Y005589D01*
X026302Y005783D01*
X026266Y006000D01*
X029680Y008133D02*
X033691Y008133D01*
X035532Y007653D02*
X035532Y006590D01*
X035532Y007653D02*
X038485Y007653D01*
X038839Y007299D01*
X038839Y006590D01*
X038839Y005409D02*
X038839Y004700D01*
X038485Y004346D01*
X035532Y004346D01*
X035532Y005409D01*
X035748Y006551D02*
X035902Y006850D01*
X036117Y007109D01*
X036384Y007314D01*
X036688Y007457D01*
X037017Y007530D01*
X037353Y007530D01*
X037682Y007457D01*
X037986Y007314D01*
X038253Y007109D01*
X038468Y006850D01*
X038622Y006551D01*
X038622Y005449D02*
X038468Y005150D01*
X038253Y004891D01*
X037986Y004686D01*
X037682Y004543D01*
X037353Y004470D01*
X037017Y004470D01*
X036688Y004543D01*
X036384Y004686D01*
X036117Y004891D01*
X035902Y005150D01*
X035748Y005449D01*
X040792Y006213D02*
X041579Y006213D01*
X041185Y005673D01*
X040792Y006213D01*
X043792Y005786D02*
X044579Y005786D01*
X044185Y006326D01*
X043792Y005786D01*
X038839Y010200D02*
X038485Y009846D01*
X035532Y009846D01*
X035532Y010909D01*
X035532Y012090D02*
X035532Y013153D01*
X038485Y013153D01*
X038839Y012799D01*
X038839Y012090D01*
X038839Y010909D02*
X038839Y010200D01*
X038622Y012051D02*
X038468Y012350D01*
X038253Y012609D01*
X037986Y012814D01*
X037682Y012957D01*
X037353Y013030D01*
X037017Y013030D01*
X036688Y012957D01*
X036384Y012814D01*
X036117Y012609D01*
X035902Y012350D01*
X035748Y012051D01*
X035748Y010949D02*
X035902Y010650D01*
X036117Y010391D01*
X036384Y010186D01*
X036688Y010043D01*
X037017Y009970D01*
X037353Y009970D01*
X037682Y010043D01*
X037986Y010186D01*
X038253Y010391D01*
X038468Y010650D01*
X038622Y010949D01*
X040792Y011286D02*
X041579Y011286D01*
X041185Y011826D01*
X040792Y011286D01*
X043792Y011713D02*
X044185Y011173D01*
X044579Y011713D01*
X043792Y011713D01*
X046145Y014326D02*
X040772Y014326D01*
X040772Y017673D02*
X046145Y017673D01*
X046145Y014326D01*
X045347Y019340D02*
X045140Y019340D01*
X045037Y019443D01*
X045037Y019857D01*
X045140Y019960D01*
X045347Y019960D01*
X045451Y019857D01*
X045451Y019443D02*
X045347Y019340D01*
X044806Y019443D02*
X044806Y019857D01*
X044703Y019960D01*
X044393Y019960D01*
X044393Y019340D01*
X044703Y019340D01*
X044806Y019443D01*
X044756Y020290D02*
X044756Y020703D01*
X044549Y020910D01*
X044343Y020703D01*
X044343Y020290D01*
X044343Y020600D02*
X044756Y020600D01*
X044987Y020807D02*
X044987Y020393D01*
X045090Y020290D01*
X045297Y020290D01*
X045401Y020393D01*
X045401Y020807D02*
X045297Y020910D01*
X045090Y020910D01*
X044987Y020807D01*
X043467Y020910D02*
X043467Y020496D01*
X043260Y020290D01*
X043053Y020496D01*
X043053Y020910D01*
X042823Y020807D02*
X042823Y020703D01*
X042719Y020600D01*
X042823Y020496D01*
X042823Y020393D01*
X042719Y020290D01*
X042512Y020290D01*
X042409Y020393D01*
X042178Y020290D02*
X041764Y020290D01*
X042178Y020703D01*
X042178Y020807D01*
X042075Y020910D01*
X041868Y020910D01*
X041764Y020807D01*
X041534Y020600D02*
X041120Y020600D01*
X040889Y020807D02*
X040475Y020393D01*
X040475Y020290D01*
X040629Y019960D02*
X040525Y019857D01*
X040525Y019753D01*
X040629Y019650D01*
X040939Y019650D01*
X040939Y019857D02*
X040836Y019960D01*
X040629Y019960D01*
X040939Y019857D02*
X040939Y019443D01*
X040836Y019340D01*
X040629Y019340D01*
X040525Y019443D01*
X041170Y019650D02*
X041584Y019650D01*
X041814Y019857D02*
X041918Y019960D01*
X042125Y019960D01*
X042228Y019857D01*
X042228Y019753D01*
X042125Y019650D01*
X042228Y019546D01*
X042228Y019443D01*
X042125Y019340D01*
X041918Y019340D01*
X041814Y019443D01*
X042021Y019650D02*
X042125Y019650D01*
X042459Y019857D02*
X042562Y019960D01*
X042769Y019960D01*
X042873Y019857D01*
X042873Y019753D01*
X042459Y019340D01*
X042873Y019340D01*
X043103Y019546D02*
X043310Y019340D01*
X043517Y019546D01*
X043517Y019960D01*
X043103Y019960D02*
X043103Y019546D01*
X042719Y020600D02*
X042616Y020600D01*
X042823Y020807D02*
X042719Y020910D01*
X042512Y020910D01*
X042409Y020807D01*
X040889Y020807D02*
X040889Y020910D01*
X040475Y020910D01*
X032012Y011500D02*
X031472Y011893D01*
X031472Y011106D01*
X032012Y011500D01*
D11*
X035075Y014210D03*
X034985Y014450D03*
X034895Y014630D03*
X035465Y014270D03*
X035645Y015470D03*
X036275Y015470D03*
X036515Y016640D03*
X036485Y016730D03*
X036485Y016760D03*
X036485Y017090D03*
X036485Y017120D03*
X036515Y017330D03*
X036515Y017360D03*
X036515Y017390D03*
X035405Y017330D03*
X035405Y017300D03*
X035405Y017270D03*
X035405Y017030D03*
X035405Y016760D03*
X034865Y016010D03*
X034865Y015980D03*
X034925Y015500D03*
X034925Y015470D03*
X034625Y015470D03*
X037625Y015200D03*
X038105Y015020D03*
X038195Y014840D03*
D12*
X038180Y014780D03*
X038060Y014990D03*
X037970Y015230D03*
X038060Y015470D03*
X038210Y015530D03*
X038030Y015800D03*
X037850Y015860D03*
X037700Y015800D03*
X037430Y015530D03*
X037040Y015800D03*
X036500Y015860D03*
X036320Y015530D03*
X035870Y015860D03*
X035690Y015530D03*
X035270Y015530D03*
X034940Y015590D03*
X034940Y015620D03*
X034850Y015890D03*
X034850Y015920D03*
X034010Y015890D03*
X033950Y015860D03*
X033920Y015830D03*
X033860Y015800D03*
X033800Y015770D03*
X033200Y016640D03*
X032330Y016190D03*
X032300Y016220D03*
X032270Y016280D03*
X032360Y015950D03*
X032390Y015920D03*
X032480Y015860D03*
X032540Y015830D03*
X032660Y015770D03*
X034910Y014690D03*
X035030Y014480D03*
X035120Y014240D03*
X036980Y014930D03*
X037730Y016310D03*
X036440Y016880D03*
X036440Y016910D03*
X036440Y017030D03*
X036470Y017510D03*
X037700Y017900D03*
X035360Y017480D03*
X035360Y016670D03*
X034040Y018200D03*
X034010Y018230D03*
X033920Y018290D03*
X033860Y018320D03*
X032660Y018350D03*
X032600Y018320D03*
X032540Y018290D03*
X032480Y018260D03*
X032390Y018200D03*
X032360Y018170D03*
D13*
X032210Y017630D03*
X032180Y017540D03*
X032180Y017510D03*
X032180Y016610D03*
X032180Y016580D03*
X033230Y015770D03*
X034220Y016610D03*
X035360Y015680D03*
X035780Y015500D03*
X035840Y015830D03*
X036470Y015830D03*
X036410Y015500D03*
X036560Y015230D03*
X037340Y015500D03*
X038150Y015830D03*
X037670Y016760D03*
X037670Y017420D03*
X037040Y017270D03*
X035930Y016730D03*
X035930Y016700D03*
X034970Y014750D03*
X036560Y014240D03*
X038120Y014720D03*
X033230Y018350D03*
X033260Y018500D03*
D14*
X033185Y017630D03*
X032225Y016400D03*
X033635Y015710D03*
X035045Y014510D03*
X035135Y014270D03*
X036185Y014480D03*
X036245Y014420D03*
X036875Y014390D03*
X037415Y014270D03*
X038045Y014960D03*
X037955Y015200D03*
X037775Y015830D03*
X037415Y015860D03*
X037715Y016910D03*
X037715Y016940D03*
X037715Y016970D03*
X037715Y017000D03*
X037715Y017030D03*
X037715Y017090D03*
X037715Y017120D03*
X037715Y017150D03*
X037715Y017210D03*
X037715Y017240D03*
X037715Y017270D03*
X037715Y017300D03*
X035885Y016880D03*
X035885Y016850D03*
X035675Y015200D03*
D15*
X035600Y015110D03*
X036560Y015200D03*
X036560Y014270D03*
X037490Y014360D03*
X037580Y016640D03*
X037580Y017540D03*
X033650Y016910D03*
X033650Y016880D03*
X032750Y016850D03*
D16*
X032195Y016550D03*
X032195Y016520D03*
X032195Y016490D03*
X032195Y017570D03*
X032195Y017600D03*
X032225Y017660D03*
X034205Y017540D03*
X034835Y017300D03*
X035915Y016790D03*
X035915Y016760D03*
X036425Y017570D03*
X037025Y016910D03*
X037685Y016820D03*
X037685Y016790D03*
X037685Y017390D03*
X037415Y015830D03*
X036935Y015830D03*
X036875Y015500D03*
X036305Y015110D03*
X036245Y015080D03*
X036275Y014390D03*
X036935Y014420D03*
X036995Y014450D03*
X038015Y014930D03*
X037925Y015170D03*
X035165Y014300D03*
X035075Y014540D03*
D17*
X034925Y014660D03*
X035495Y014300D03*
X035675Y015560D03*
X035705Y015680D03*
X035705Y015710D03*
X035735Y015800D03*
X035735Y015860D03*
X035735Y015890D03*
X035765Y016040D03*
X035945Y015800D03*
X035975Y015770D03*
X035975Y015620D03*
X035945Y015560D03*
X035915Y015530D03*
X036305Y015560D03*
X036335Y015680D03*
X036335Y015710D03*
X036365Y015800D03*
X036365Y015860D03*
X036365Y015890D03*
X036395Y016040D03*
X036575Y015800D03*
X036605Y015770D03*
X036605Y015620D03*
X036575Y015560D03*
X036545Y015530D03*
X036755Y015560D03*
X036755Y015590D03*
X036755Y015620D03*
X036755Y015650D03*
X036755Y015680D03*
X036785Y015740D03*
X036815Y015800D03*
X037055Y015770D03*
X037055Y015740D03*
X037055Y015680D03*
X037055Y015650D03*
X037025Y015590D03*
X037025Y015560D03*
X036995Y015530D03*
X036785Y015530D03*
X037205Y015530D03*
X037205Y015560D03*
X037205Y015650D03*
X037205Y015680D03*
X037235Y015740D03*
X037265Y015770D03*
X037295Y015800D03*
X037505Y015800D03*
X037475Y015680D03*
X037445Y015590D03*
X037445Y015560D03*
X037475Y015470D03*
X037625Y015470D03*
X037655Y015620D03*
X037655Y015650D03*
X037685Y015740D03*
X037685Y015770D03*
X037955Y015680D03*
X037955Y015650D03*
X037955Y015620D03*
X037955Y015590D03*
X037955Y015560D03*
X037985Y015530D03*
X037985Y015740D03*
X038255Y015770D03*
X038255Y015800D03*
X038285Y015860D03*
X038255Y015710D03*
X038255Y015680D03*
X038225Y015590D03*
X038225Y015560D03*
X037595Y015170D03*
X038165Y014810D03*
X038315Y016040D03*
X037865Y016460D03*
X037895Y016520D03*
X037925Y016580D03*
X037805Y016400D03*
X037775Y016370D03*
X037775Y016340D03*
X036455Y016850D03*
X036485Y017480D03*
X037745Y017870D03*
X037775Y017840D03*
X037805Y017810D03*
X037835Y017780D03*
X037865Y017750D03*
X037895Y017690D03*
X037925Y017600D03*
X035525Y015800D03*
X035525Y015740D03*
X035495Y015710D03*
X035315Y015800D03*
X035285Y015770D03*
X035255Y015740D03*
X035255Y015710D03*
X035225Y015650D03*
X035225Y015620D03*
X035015Y015710D03*
X035015Y015740D03*
X035045Y015770D03*
X035075Y015830D03*
X035105Y015890D03*
X035135Y015950D03*
X035165Y016010D03*
X034865Y015950D03*
X034775Y015800D03*
X034775Y015770D03*
X034745Y015740D03*
X034745Y015710D03*
X034655Y015590D03*
X034655Y015560D03*
X034925Y015560D03*
X034925Y015530D03*
X034895Y015710D03*
X034895Y015740D03*
X034895Y015770D03*
X034595Y015830D03*
X034595Y015860D03*
X034595Y015890D03*
X034595Y015920D03*
X034325Y016190D03*
X034295Y016160D03*
X034265Y016130D03*
X034235Y016100D03*
X034145Y016010D03*
X034115Y015980D03*
X034085Y015950D03*
X034055Y015920D03*
X035375Y016700D03*
X035375Y017120D03*
X035375Y017150D03*
X035375Y017180D03*
X035375Y017450D03*
X034115Y018140D03*
X034085Y018170D03*
X033965Y018260D03*
X033185Y017000D03*
X032105Y016220D03*
X032075Y016250D03*
X032045Y016310D03*
X032165Y016130D03*
X032195Y016100D03*
X032225Y016070D03*
X032255Y016040D03*
X032285Y016010D03*
X032315Y015980D03*
X032435Y015890D03*
X031865Y016730D03*
X031835Y016940D03*
X031835Y016970D03*
X031835Y017000D03*
X031835Y017030D03*
X031835Y017060D03*
X031835Y017090D03*
X031835Y017120D03*
X031835Y017150D03*
X031835Y017180D03*
X031865Y017390D03*
X032045Y017810D03*
X032075Y017870D03*
X032165Y017990D03*
X032195Y018020D03*
X032225Y018050D03*
X032255Y018080D03*
X032285Y018110D03*
X032315Y018140D03*
X032435Y018230D03*
D18*
X033230Y018320D03*
X033230Y015800D03*
X035390Y014360D03*
X035450Y014390D03*
X035510Y014420D03*
X035570Y014450D03*
X036560Y014300D03*
X036560Y015170D03*
X037520Y015020D03*
X037580Y015050D03*
X037640Y015080D03*
X037700Y015110D03*
D19*
X037895Y015140D03*
X037985Y014900D03*
X038105Y015500D03*
X037655Y016730D03*
X037025Y016940D03*
X037655Y017450D03*
X035945Y017300D03*
X035945Y017270D03*
X035945Y017240D03*
X035945Y016670D03*
X034865Y016880D03*
X034835Y017240D03*
X034835Y017270D03*
X034235Y017570D03*
X033695Y016670D03*
X033215Y016670D03*
X032975Y015680D03*
X033245Y015620D03*
X032165Y016640D03*
X032165Y016670D03*
X032165Y016700D03*
X032165Y016730D03*
X032165Y017390D03*
X032165Y017420D03*
X032165Y017450D03*
X032165Y017480D03*
X032255Y017690D03*
X033185Y017690D03*
X035645Y015170D03*
X036125Y015020D03*
X035105Y014570D03*
X035195Y014330D03*
X037445Y014300D03*
D20*
X038150Y014750D03*
X037580Y015140D03*
X036890Y015050D03*
X036860Y015080D03*
X036140Y014570D03*
X036140Y014540D03*
X036170Y014510D03*
X036200Y014450D03*
X035510Y014330D03*
X034940Y014720D03*
X035360Y015470D03*
X034670Y015680D03*
X033710Y015740D03*
X032240Y016340D03*
X032240Y016370D03*
X033650Y018410D03*
X035870Y016940D03*
X035870Y016910D03*
X035360Y016640D03*
X036440Y017540D03*
X037640Y017930D03*
X037730Y017180D03*
X037730Y017060D03*
D21*
X037430Y014960D03*
X037550Y014420D03*
X036560Y014330D03*
X035660Y014510D03*
X035540Y015050D03*
X033200Y015650D03*
X032840Y016790D03*
X033560Y016790D03*
X033230Y018470D03*
D22*
X033650Y017510D03*
X032720Y017510D03*
X032720Y017480D03*
X032720Y017450D03*
X032720Y017420D03*
X032720Y017390D03*
X032720Y017360D03*
X032720Y017330D03*
X032720Y017300D03*
X032720Y017270D03*
X032720Y017240D03*
X032720Y017210D03*
X032720Y017180D03*
X032720Y017150D03*
X032720Y017120D03*
X032720Y017090D03*
X032720Y017060D03*
X032720Y017030D03*
X032720Y017000D03*
X032720Y016970D03*
X032720Y016700D03*
X032720Y016670D03*
X032720Y016640D03*
X032720Y016610D03*
X032720Y016580D03*
X032720Y016550D03*
X032720Y016520D03*
X032720Y016490D03*
X032720Y016460D03*
X032720Y016430D03*
X032720Y016400D03*
X032720Y016370D03*
X035630Y015140D03*
X037460Y014330D03*
X037610Y016670D03*
X037610Y017510D03*
D23*
X037640Y017480D03*
X037040Y017240D03*
X037040Y017210D03*
X037040Y017000D03*
X037040Y016970D03*
X037640Y016700D03*
X035960Y016640D03*
X034850Y016940D03*
X033710Y016730D03*
X033710Y016700D03*
X032150Y016760D03*
X032150Y016790D03*
X032150Y016820D03*
X032150Y016850D03*
X032150Y016880D03*
X032150Y017240D03*
X032150Y017270D03*
X032150Y017300D03*
X032150Y017330D03*
X032150Y017360D03*
X035000Y014780D03*
X036170Y015050D03*
X036350Y014360D03*
X038090Y014690D03*
D24*
X036830Y014360D03*
X036830Y015110D03*
X035420Y015830D03*
X035360Y015500D03*
X034190Y016640D03*
X034190Y016670D03*
X034190Y016700D03*
X034190Y016730D03*
X034190Y016760D03*
X034190Y016790D03*
X034190Y016820D03*
X034190Y016850D03*
X034190Y016880D03*
X034190Y016910D03*
X034190Y016940D03*
X034190Y016970D03*
X034190Y017000D03*
X034190Y017030D03*
X034190Y017060D03*
X034190Y017090D03*
X034190Y017120D03*
X034190Y017150D03*
X034190Y017180D03*
X034190Y017210D03*
X034190Y017240D03*
X034190Y017270D03*
X034190Y017300D03*
X034190Y017330D03*
X034190Y017360D03*
X034190Y017390D03*
X034190Y017420D03*
X034190Y017450D03*
X034190Y017480D03*
X034190Y017510D03*
X033200Y017660D03*
X032810Y018410D03*
X032210Y016460D03*
X032210Y016430D03*
X032810Y015710D03*
X035330Y017540D03*
X035900Y016820D03*
X037010Y017300D03*
X037700Y017330D03*
X037700Y017360D03*
X037700Y016880D03*
X037700Y016850D03*
D25*
X037535Y017570D03*
X037445Y014990D03*
X037505Y014390D03*
X035645Y014480D03*
X035585Y015080D03*
X033605Y016820D03*
D26*
X035525Y015020D03*
X037565Y014450D03*
D27*
X037415Y014480D03*
X035705Y014960D03*
X033665Y016250D03*
X033635Y016220D03*
X033605Y016190D03*
X033215Y015890D03*
X033215Y018230D03*
D28*
X037415Y014510D03*
D29*
X037445Y014930D03*
X036545Y015140D03*
X035645Y014540D03*
D30*
X035510Y014600D03*
X035690Y014690D03*
X037430Y014540D03*
X037460Y014810D03*
D31*
X035660Y014570D03*
D32*
X035660Y014660D03*
X035690Y014930D03*
X037490Y014840D03*
X037460Y014570D03*
D33*
X036965Y014960D03*
X036935Y014990D03*
X036935Y015020D03*
X036875Y015470D03*
X036935Y015860D03*
X037295Y015470D03*
X036425Y015470D03*
X035795Y015470D03*
X035375Y015650D03*
X035435Y015860D03*
X034955Y015680D03*
X034955Y015650D03*
X034835Y015830D03*
X034835Y015860D03*
X034655Y015650D03*
X034655Y015620D03*
X036125Y014600D03*
X037655Y016280D03*
X038135Y015860D03*
X036425Y016940D03*
X036425Y016970D03*
X036425Y017000D03*
X035345Y017510D03*
X033815Y018350D03*
X033725Y018380D03*
X033185Y017600D03*
X033185Y017570D03*
X033185Y017540D03*
X033185Y017510D03*
X033185Y017480D03*
X033185Y017450D03*
X033185Y017420D03*
X033185Y017390D03*
X033185Y017360D03*
X033185Y017330D03*
X033185Y017300D03*
X033185Y017270D03*
X033185Y017240D03*
X033185Y017210D03*
X033185Y017180D03*
X033185Y017150D03*
X033185Y017120D03*
X033185Y017090D03*
X033185Y017060D03*
X033185Y017030D03*
X032255Y016310D03*
X032285Y016250D03*
X032375Y016160D03*
X032585Y015800D03*
X032705Y015740D03*
X032705Y018380D03*
D34*
X033680Y016310D03*
X033680Y016280D03*
X033560Y016160D03*
X035660Y014900D03*
X035630Y014630D03*
X037520Y014600D03*
X037520Y014870D03*
D35*
X037550Y014630D03*
X035600Y014870D03*
D36*
X035570Y014840D03*
X037580Y014660D03*
D37*
X037415Y014690D03*
D38*
X037400Y014720D03*
X035720Y014720D03*
D39*
X035720Y014750D03*
X037430Y014780D03*
X033230Y015860D03*
X032990Y016730D03*
X033230Y018260D03*
D40*
X033245Y018440D03*
X037355Y014900D03*
X037385Y014750D03*
D41*
X035705Y014780D03*
D42*
X035540Y014810D03*
X033230Y015950D03*
X033230Y018170D03*
D43*
X033695Y016340D03*
X035705Y014990D03*
D44*
X035240Y015560D03*
X035240Y015590D03*
X035060Y015800D03*
X035090Y015860D03*
X035120Y015920D03*
X035150Y015980D03*
X034880Y015800D03*
X034610Y015800D03*
X034610Y015770D03*
X034610Y015740D03*
X034610Y015710D03*
X034640Y015530D03*
X034640Y015500D03*
X034580Y015950D03*
X034580Y015980D03*
X034580Y016010D03*
X034220Y016070D03*
X034190Y016040D03*
X035390Y016730D03*
X035390Y017060D03*
X035390Y017090D03*
X035390Y017210D03*
X035390Y017240D03*
X035390Y017360D03*
X035390Y017390D03*
X035390Y017420D03*
X034280Y017990D03*
X034250Y018020D03*
X034220Y018050D03*
X034190Y018080D03*
X034160Y018110D03*
X032150Y017960D03*
X032120Y017930D03*
X032090Y017900D03*
X032060Y017840D03*
X032030Y017780D03*
X032000Y017750D03*
X032000Y017720D03*
X031970Y017690D03*
X031970Y017660D03*
X031940Y017630D03*
X031940Y017600D03*
X031910Y017570D03*
X031910Y017540D03*
X031910Y017510D03*
X031880Y017480D03*
X031880Y017450D03*
X031880Y017420D03*
X031850Y017360D03*
X031850Y017330D03*
X031850Y017300D03*
X031850Y017270D03*
X031850Y017240D03*
X031850Y017210D03*
X031850Y016910D03*
X031850Y016880D03*
X031850Y016850D03*
X031850Y016820D03*
X031850Y016790D03*
X031850Y016760D03*
X031880Y016700D03*
X031880Y016670D03*
X031880Y016640D03*
X031910Y016610D03*
X031910Y016580D03*
X031910Y016550D03*
X031940Y016520D03*
X031940Y016490D03*
X031970Y016460D03*
X031970Y016430D03*
X032000Y016400D03*
X032000Y016370D03*
X032030Y016340D03*
X032060Y016280D03*
X032120Y016190D03*
X032150Y016160D03*
X035540Y015770D03*
X035720Y015770D03*
X035720Y015740D03*
X035690Y015650D03*
X035690Y015620D03*
X035690Y015590D03*
X035960Y015590D03*
X035990Y015650D03*
X035990Y015680D03*
X035990Y015710D03*
X035990Y015740D03*
X035750Y015920D03*
X035750Y015950D03*
X035750Y015980D03*
X035750Y016010D03*
X036380Y016010D03*
X036380Y015980D03*
X036380Y015950D03*
X036380Y015920D03*
X036350Y015770D03*
X036350Y015740D03*
X036320Y015650D03*
X036320Y015620D03*
X036320Y015590D03*
X036590Y015590D03*
X036620Y015650D03*
X036620Y015680D03*
X036620Y015710D03*
X036620Y015740D03*
X036770Y015710D03*
X036800Y015770D03*
X037070Y015710D03*
X037040Y015620D03*
X037190Y015620D03*
X037190Y015590D03*
X037220Y015710D03*
X037460Y015650D03*
X037460Y015620D03*
X037490Y015710D03*
X037490Y015740D03*
X037490Y015770D03*
X037670Y015710D03*
X037670Y015680D03*
X037640Y015590D03*
X037640Y015560D03*
X037640Y015530D03*
X037640Y015500D03*
X037700Y015860D03*
X037970Y015710D03*
X038000Y015770D03*
X038240Y015650D03*
X038240Y015620D03*
X038270Y015740D03*
X038300Y015890D03*
X038300Y015920D03*
X038300Y015950D03*
X038300Y015980D03*
X038300Y016010D03*
X037850Y016430D03*
X037880Y016490D03*
X037910Y016550D03*
X037940Y016610D03*
X037940Y016640D03*
X037940Y016670D03*
X037940Y016700D03*
X037940Y016730D03*
X037940Y016760D03*
X037940Y016790D03*
X037940Y016820D03*
X037940Y016850D03*
X037940Y016880D03*
X037940Y016910D03*
X037940Y016940D03*
X037940Y016970D03*
X037940Y017000D03*
X037940Y017030D03*
X037940Y017060D03*
X037940Y017090D03*
X037940Y017120D03*
X037940Y017150D03*
X037940Y017180D03*
X037940Y017210D03*
X037940Y017240D03*
X037940Y017270D03*
X037940Y017300D03*
X037940Y017330D03*
X037940Y017360D03*
X037940Y017390D03*
X037940Y017420D03*
X037940Y017450D03*
X037940Y017480D03*
X037940Y017510D03*
X037940Y017540D03*
X037940Y017570D03*
X037910Y017630D03*
X037910Y017660D03*
X037880Y017720D03*
X036500Y017450D03*
X036500Y017420D03*
X036470Y017060D03*
X036470Y016820D03*
X036470Y016790D03*
X038210Y015470D03*
D45*
X037055Y017030D03*
X037055Y017060D03*
X037055Y017090D03*
X037055Y017120D03*
X037055Y017150D03*
X037055Y017180D03*
X034865Y016910D03*
X033455Y015680D03*
X032135Y016910D03*
X032135Y016940D03*
X032135Y016970D03*
X032135Y017000D03*
X032135Y017030D03*
X032135Y017060D03*
X032135Y017090D03*
X032135Y017120D03*
X032135Y017150D03*
X032135Y017180D03*
X032135Y017210D03*
D46*
X033215Y018290D03*
X033215Y015830D03*
D47*
X033215Y015920D03*
X033215Y018200D03*
D48*
X033215Y018140D03*
X033215Y015980D03*
D49*
X033230Y016010D03*
X033230Y018110D03*
D50*
X033230Y018080D03*
X033230Y016040D03*
D51*
X033215Y016070D03*
X033215Y018050D03*
D52*
X033215Y016100D03*
D53*
X033215Y016130D03*
D54*
X035945Y016220D03*
D55*
X036005Y016250D03*
D56*
X035345Y016370D03*
D57*
X035375Y016400D03*
D58*
X035405Y016430D03*
D59*
X035540Y016460D03*
D60*
X035840Y016490D03*
D61*
X035885Y016520D03*
X035915Y016550D03*
X035915Y016580D03*
X035915Y017600D03*
X035915Y017630D03*
X035885Y017660D03*
D62*
X036485Y016610D03*
D63*
X035255Y017570D03*
X033665Y017480D03*
X033665Y017450D03*
X033665Y017420D03*
X033665Y017390D03*
X033665Y017360D03*
X033665Y017330D03*
X033665Y017300D03*
X033665Y017270D03*
X033665Y017240D03*
X033665Y017210D03*
X033665Y017180D03*
X033665Y017150D03*
X033665Y017120D03*
X033665Y017090D03*
X033665Y017060D03*
X033665Y017030D03*
X033665Y017000D03*
X033665Y016970D03*
X033665Y016940D03*
X033215Y016700D03*
X032735Y016880D03*
X032735Y016910D03*
X032735Y016940D03*
D64*
X033200Y016760D03*
D65*
X032780Y016820D03*
D66*
X033635Y016850D03*
D67*
X035855Y017690D03*
D68*
X034925Y017720D03*
D69*
X034925Y017750D03*
D70*
X034910Y017780D03*
D71*
X034910Y017810D03*
D72*
X034895Y017840D03*
D73*
X033215Y017870D03*
D74*
X033215Y017900D03*
D75*
X033230Y017930D03*
D76*
X033230Y017960D03*
D77*
X035975Y017960D03*
D78*
X033230Y017990D03*
D79*
X033230Y018020D03*
D80*
X031560Y021325D02*
X031560Y021625D01*
X031560Y021475D02*
X031110Y021475D01*
X031260Y021325D01*
X025010Y018010D02*
X025010Y017860D01*
X024935Y017785D01*
X024635Y018085D01*
X024935Y018085D01*
X025010Y018010D01*
X024935Y017785D02*
X024635Y017785D01*
X024560Y017860D01*
X024560Y018010D01*
X024635Y018085D01*
X025010Y017625D02*
X025010Y017325D01*
X025010Y017475D02*
X024560Y017475D01*
X024710Y017325D01*
X024692Y016675D02*
X024692Y016325D01*
X024557Y016383D02*
X024499Y016325D01*
X024382Y016325D01*
X024324Y016383D01*
X024324Y016616D01*
X024382Y016675D01*
X024499Y016675D01*
X024557Y016616D01*
X024692Y016500D02*
X024926Y016500D01*
X024926Y016675D02*
X024926Y016325D01*
X024189Y016675D02*
X023955Y016675D01*
X024072Y016675D02*
X024072Y016325D01*
X023821Y016325D02*
X023821Y016558D01*
X023704Y016675D01*
X023587Y016558D01*
X023587Y016325D01*
X023452Y016325D02*
X023219Y016325D01*
X023219Y016675D01*
X023587Y016500D02*
X023821Y016500D01*
X027360Y013475D02*
X027810Y013475D01*
X027810Y013325D02*
X027810Y013625D01*
X027510Y013325D02*
X027360Y013475D01*
X039110Y021475D02*
X039560Y021475D01*
X039560Y021325D02*
X039560Y021625D01*
X039260Y021325D02*
X039110Y021475D01*
X041360Y026275D02*
X041210Y026425D01*
X041660Y026425D01*
X041660Y026275D02*
X041660Y026575D01*
X041660Y028275D02*
X041360Y028575D01*
X041285Y028575D01*
X041210Y028500D01*
X041210Y028350D01*
X041285Y028275D01*
X041660Y028275D02*
X041660Y028575D01*
X041585Y030275D02*
X041660Y030350D01*
X041660Y030500D01*
X041585Y030575D01*
X041510Y030575D01*
X041435Y030500D01*
X041435Y030425D01*
X041435Y030500D02*
X041360Y030575D01*
X041285Y030575D01*
X041210Y030500D01*
X041210Y030350D01*
X041285Y030275D01*
X039626Y029616D02*
X039567Y029675D01*
X039450Y029675D01*
X039392Y029616D01*
X039392Y029558D01*
X039450Y029500D01*
X039567Y029500D01*
X039626Y029441D01*
X039626Y029383D01*
X039567Y029325D01*
X039450Y029325D01*
X039392Y029383D01*
X039257Y029383D02*
X039199Y029325D01*
X039082Y029325D01*
X039024Y029383D01*
X039024Y029616D01*
X039082Y029675D01*
X039199Y029675D01*
X039257Y029616D01*
X036760Y030025D02*
X036460Y030325D01*
X036385Y030325D01*
X036310Y030250D01*
X036310Y030100D01*
X036385Y030025D01*
X036760Y030025D02*
X036760Y030325D01*
X036685Y030485D02*
X036385Y030485D01*
X036310Y030560D01*
X036310Y030710D01*
X036385Y030785D01*
X036685Y030485D01*
X036760Y030560D01*
X036760Y030710D01*
X036685Y030785D01*
X036385Y030785D01*
X041210Y032500D02*
X041435Y032275D01*
X041435Y032575D01*
X041660Y032500D02*
X041210Y032500D01*
X041360Y034255D02*
X041210Y034405D01*
X041660Y034405D01*
X041660Y034255D02*
X041660Y034555D01*
X041660Y036255D02*
X041360Y036555D01*
X041285Y036555D01*
X041210Y036480D01*
X041210Y036330D01*
X041285Y036255D01*
X041660Y036255D02*
X041660Y036555D01*
X045260Y033495D02*
X045494Y033261D01*
X045435Y033319D02*
X045610Y033495D01*
X045610Y033261D02*
X045260Y033261D01*
X045260Y032893D02*
X045610Y032893D01*
X045610Y033126D01*
X045552Y032758D02*
X045610Y032700D01*
X045610Y032583D01*
X045552Y032525D01*
X045318Y032525D01*
X045260Y032583D01*
X045260Y032700D01*
X045318Y032758D01*
X045435Y031690D02*
X045610Y031690D01*
X045610Y031515D01*
X045552Y031457D01*
X045494Y031515D01*
X045494Y031690D01*
X045435Y031690D02*
X045377Y031632D01*
X045377Y031515D01*
X045377Y031328D02*
X045377Y031211D01*
X045318Y031269D02*
X045552Y031269D01*
X045610Y031328D01*
X045610Y031076D02*
X045610Y030901D01*
X045552Y030843D01*
X045494Y030901D01*
X045494Y031076D01*
X045435Y031076D02*
X045610Y031076D01*
X045435Y031076D02*
X045377Y031018D01*
X045377Y030901D01*
X045318Y030708D02*
X045260Y030650D01*
X045260Y030475D01*
X045610Y030475D01*
X045610Y030650D01*
X045552Y030708D01*
X045318Y030708D01*
X045435Y029790D02*
X045610Y029790D01*
X045435Y029790D02*
X045377Y029731D01*
X045377Y029615D01*
X045435Y029556D01*
X045377Y029421D02*
X045377Y029246D01*
X045435Y029188D01*
X045552Y029188D01*
X045610Y029246D01*
X045610Y029421D01*
X045610Y029556D02*
X045260Y029556D01*
X045377Y029059D02*
X045377Y028942D01*
X045318Y029001D02*
X045552Y029001D01*
X045610Y029059D01*
X045610Y028808D02*
X045610Y028632D01*
X045552Y028574D01*
X045494Y028632D01*
X045494Y028808D01*
X045435Y028808D02*
X045610Y028808D01*
X045435Y028808D02*
X045377Y028749D01*
X045377Y028632D01*
X045610Y028439D02*
X045610Y028206D01*
X045260Y028206D01*
X028760Y030025D02*
X028460Y030325D01*
X028385Y030325D01*
X028310Y030250D01*
X028310Y030100D01*
X028385Y030025D01*
X028760Y030025D02*
X028760Y030325D01*
X028685Y030485D02*
X028385Y030485D01*
X028310Y030560D01*
X028310Y030710D01*
X028385Y030785D01*
X028685Y030485D01*
X028760Y030560D01*
X028760Y030710D01*
X028685Y030785D01*
X028385Y030785D01*
X006511Y005125D02*
X006210Y005125D01*
X006210Y004900D01*
X006360Y004975D01*
X006436Y004975D01*
X006511Y004900D01*
X006511Y004750D01*
X006436Y004675D01*
X006285Y004675D01*
X006210Y004750D01*
X002511Y002875D02*
X002210Y002875D01*
X002360Y002875D02*
X002360Y003325D01*
X002210Y003175D01*
D81*
X045865Y027025D03*
X045925Y027025D03*
X045925Y035025D03*
X045865Y035025D03*
D82*
X045875Y035025D03*
X045915Y035025D03*
X045915Y027025D03*
X045875Y027025D03*
D83*
X045885Y027025D03*
X045895Y027025D03*
X045905Y027025D03*
X045885Y035025D03*
X045895Y035025D03*
X045905Y035025D03*
D84*
X045795Y035020D03*
X045735Y035020D03*
X045735Y027020D03*
X045795Y027020D03*
D85*
X045785Y027020D03*
X045745Y027020D03*
X045745Y035020D03*
X045785Y035020D03*
D86*
X045775Y035020D03*
X045765Y035020D03*
X045755Y035020D03*
X045755Y027020D03*
X045765Y027020D03*
X045775Y027020D03*
D87*
X045665Y027015D03*
X045605Y027015D03*
X045605Y035015D03*
X045665Y035015D03*
D88*
X045655Y035015D03*
X045615Y035015D03*
X045615Y027015D03*
X045655Y027015D03*
D89*
X045645Y027015D03*
X045635Y027015D03*
X045625Y027015D03*
X045625Y035015D03*
X045635Y035015D03*
X045645Y035015D03*
D90*
X045595Y035020D03*
X045585Y035020D03*
X045575Y035020D03*
X045565Y035020D03*
X045555Y035020D03*
X045545Y035020D03*
X045535Y035020D03*
X045535Y027020D03*
X045545Y027020D03*
X045555Y027020D03*
X045565Y027020D03*
X045575Y027020D03*
X045585Y027020D03*
X045595Y027020D03*
D91*
X045525Y027020D03*
X045465Y027020D03*
X045465Y035020D03*
X045525Y035020D03*
D92*
X045515Y035020D03*
X045475Y035020D03*
X045475Y027020D03*
X045515Y027020D03*
D93*
X045505Y027020D03*
X045495Y027020D03*
X045485Y027020D03*
X045485Y035020D03*
X045495Y035020D03*
X045505Y035020D03*
D94*
X045455Y035015D03*
X045445Y035015D03*
X045435Y035015D03*
X045425Y035015D03*
X045415Y035015D03*
X045405Y035015D03*
X045395Y035015D03*
X045385Y035015D03*
X045375Y035015D03*
X045365Y035015D03*
X045355Y035015D03*
X045345Y035015D03*
X045335Y035015D03*
X045325Y035015D03*
X045315Y035015D03*
X045305Y035015D03*
X045295Y035015D03*
X045285Y035015D03*
X045275Y035015D03*
X045265Y035015D03*
X045255Y035015D03*
X045245Y035015D03*
X045235Y035015D03*
X045225Y035015D03*
X045215Y035015D03*
X045205Y035015D03*
X045195Y035015D03*
X045185Y035015D03*
X045175Y035015D03*
X045165Y035015D03*
X045155Y035015D03*
X045145Y035015D03*
X045135Y035015D03*
X045125Y035015D03*
X045115Y035015D03*
X045105Y035015D03*
X045095Y035015D03*
X045085Y035015D03*
X045075Y035015D03*
X045065Y035015D03*
X045055Y035015D03*
X045045Y035015D03*
X045035Y035015D03*
X045025Y035015D03*
X045015Y035015D03*
X045005Y035015D03*
X044995Y035015D03*
X044985Y035015D03*
X044975Y035015D03*
X044965Y035015D03*
X044955Y035015D03*
X044945Y035015D03*
X044935Y035015D03*
X044925Y035015D03*
X044915Y035015D03*
X044905Y035015D03*
X044895Y035015D03*
X044885Y035015D03*
X044875Y035015D03*
X044865Y035015D03*
X044855Y035015D03*
X044845Y035015D03*
X044835Y035015D03*
X044835Y027015D03*
X044845Y027015D03*
X044855Y027015D03*
X044865Y027015D03*
X044875Y027015D03*
X044885Y027015D03*
X044895Y027015D03*
X044905Y027015D03*
X044915Y027015D03*
X044925Y027015D03*
X044935Y027015D03*
X044945Y027015D03*
X044955Y027015D03*
X044965Y027015D03*
X044975Y027015D03*
X044985Y027015D03*
X044995Y027015D03*
X045005Y027015D03*
X045015Y027015D03*
X045025Y027015D03*
X045035Y027015D03*
X045045Y027015D03*
X045055Y027015D03*
X045065Y027015D03*
X045075Y027015D03*
X045085Y027015D03*
X045095Y027015D03*
X045105Y027015D03*
X045115Y027015D03*
X045125Y027015D03*
X045135Y027015D03*
X045145Y027015D03*
X045155Y027015D03*
X045165Y027015D03*
X045175Y027015D03*
X045185Y027015D03*
X045195Y027015D03*
X045205Y027015D03*
X045215Y027015D03*
X045225Y027015D03*
X045235Y027015D03*
X045245Y027015D03*
X045255Y027015D03*
X045265Y027015D03*
X045275Y027015D03*
X045285Y027015D03*
X045295Y027015D03*
X045305Y027015D03*
X045315Y027015D03*
X045325Y027015D03*
X045335Y027015D03*
X045345Y027015D03*
X045355Y027015D03*
X045365Y027015D03*
X045375Y027015D03*
X045385Y027015D03*
X045395Y027015D03*
X045405Y027015D03*
X045415Y027015D03*
X045425Y027015D03*
X045435Y027015D03*
X045445Y027015D03*
X045455Y027015D03*
D95*
X044825Y027020D03*
X044825Y035020D03*
D96*
X028176Y002915D03*
X028176Y002912D03*
X028176Y002909D03*
X028176Y002903D03*
X028176Y002900D03*
X028176Y002897D03*
X028176Y002894D03*
D97*
X028176Y002906D03*
D98*
X026748Y002918D03*
X026748Y002924D03*
X026748Y002927D03*
X026748Y002930D03*
X026748Y002933D03*
X026748Y002939D03*
D99*
X027072Y003254D03*
X027072Y003257D03*
X027072Y003260D03*
X027072Y003263D03*
X027072Y003269D03*
X027072Y003272D03*
X027072Y003275D03*
X027216Y003638D03*
X027216Y003644D03*
X027216Y003647D03*
X027216Y003650D03*
X027216Y003653D03*
X027216Y003659D03*
X026784Y003830D03*
X026784Y003833D03*
X026784Y003839D03*
X026784Y003842D03*
X026784Y003845D03*
X026784Y003848D03*
X026736Y003728D03*
X026736Y003725D03*
X026736Y003722D03*
X026736Y003719D03*
X026736Y003713D03*
X026736Y003710D03*
X026712Y003659D03*
X026712Y003653D03*
X026712Y003650D03*
X026712Y003647D03*
X026712Y003644D03*
X026712Y003638D03*
X026616Y003395D03*
X026616Y003392D03*
X026616Y003389D03*
X026616Y003383D03*
X026616Y003380D03*
X026616Y003377D03*
X026616Y003374D03*
X027504Y003155D03*
X027504Y003152D03*
X027504Y003149D03*
X027504Y003143D03*
X027504Y003140D03*
X027504Y003137D03*
X027504Y003134D03*
X027504Y003128D03*
X027504Y003125D03*
X027504Y003122D03*
X027504Y003119D03*
X027504Y003113D03*
X027504Y003110D03*
X027552Y002939D03*
X027552Y002933D03*
X027552Y002930D03*
X027552Y002927D03*
X027552Y002924D03*
X027552Y002918D03*
X027792Y003569D03*
X027792Y003572D03*
X027792Y003575D03*
X027792Y003578D03*
X027792Y003584D03*
X027792Y003587D03*
X027816Y003638D03*
X027816Y003644D03*
X027816Y003647D03*
X027816Y003650D03*
X027816Y003653D03*
X027816Y003659D03*
D100*
X028188Y002939D03*
X028188Y002933D03*
X028188Y002930D03*
X028188Y002927D03*
X028188Y002924D03*
X028188Y002918D03*
D101*
X026748Y002921D03*
X026748Y002936D03*
D102*
X027072Y003266D03*
X027216Y003641D03*
X027216Y003656D03*
X026784Y003836D03*
X026784Y003851D03*
X026736Y003731D03*
X026736Y003716D03*
X026712Y003656D03*
X026712Y003641D03*
X026616Y003386D03*
X027504Y003146D03*
X027504Y003131D03*
X027504Y003116D03*
X027552Y002936D03*
X027552Y002921D03*
X027792Y003566D03*
X027792Y003581D03*
X027816Y003641D03*
X027816Y003656D03*
D103*
X028188Y002936D03*
X028188Y002921D03*
D104*
X026736Y002942D03*
X026736Y002945D03*
X026736Y002948D03*
X026736Y002954D03*
X026736Y002957D03*
X026736Y002960D03*
X026736Y002963D03*
D105*
X026556Y003230D03*
X026556Y003233D03*
X026556Y003239D03*
X026556Y003242D03*
X026556Y003245D03*
X026556Y003248D03*
X026580Y003278D03*
X026580Y003284D03*
X026580Y003287D03*
X026580Y003290D03*
X026580Y003293D03*
X026580Y003299D03*
X026580Y003302D03*
X026580Y003305D03*
X026580Y003308D03*
X026580Y003314D03*
X026580Y003317D03*
X026580Y003320D03*
X026580Y003323D03*
X026628Y003398D03*
X026628Y003404D03*
X026628Y003407D03*
X026628Y003410D03*
X026628Y003413D03*
X026628Y003419D03*
X026628Y003422D03*
X026628Y003425D03*
X026628Y003428D03*
X026628Y003434D03*
X026628Y003437D03*
X026628Y003440D03*
X026628Y003443D03*
X026652Y003470D03*
X026652Y003473D03*
X026652Y003479D03*
X026652Y003482D03*
X026652Y003485D03*
X026652Y003488D03*
X026652Y003494D03*
X026652Y003497D03*
X026652Y003500D03*
X026652Y003503D03*
X026652Y003509D03*
X026652Y003512D03*
X026652Y003515D03*
X026676Y003518D03*
X026676Y003524D03*
X026676Y003527D03*
X026676Y003530D03*
X026676Y003533D03*
X026676Y003539D03*
X026676Y003542D03*
X026676Y003545D03*
X026676Y003548D03*
X026676Y003554D03*
X026676Y003557D03*
X026676Y003560D03*
X026676Y003563D03*
X026676Y003569D03*
X026676Y003572D03*
X026676Y003575D03*
X026676Y003578D03*
X026676Y003584D03*
X026676Y003587D03*
X026700Y003590D03*
X026700Y003593D03*
X026700Y003599D03*
X026700Y003602D03*
X026700Y003605D03*
X026700Y003608D03*
X026700Y003614D03*
X026700Y003617D03*
X026700Y003620D03*
X026700Y003623D03*
X026700Y003629D03*
X026700Y003632D03*
X026700Y003635D03*
X026748Y003734D03*
X026748Y003737D03*
X026748Y003740D03*
X026748Y003743D03*
X026748Y003749D03*
X026748Y003752D03*
X026748Y003755D03*
X026748Y003758D03*
X026748Y003764D03*
X026748Y003767D03*
X026748Y003770D03*
X026748Y003773D03*
X026748Y003779D03*
X026772Y003782D03*
X026772Y003785D03*
X026772Y003788D03*
X026772Y003794D03*
X026772Y003797D03*
X026772Y003800D03*
X026772Y003803D03*
X026772Y003809D03*
X026772Y003812D03*
X026772Y003815D03*
X026772Y003818D03*
X026772Y003824D03*
X026772Y003827D03*
X026796Y003854D03*
X026796Y003857D03*
X026796Y003860D03*
X026796Y003863D03*
X026796Y003869D03*
X026796Y003872D03*
X026796Y003875D03*
X026796Y003878D03*
X026796Y003884D03*
X026796Y003887D03*
X026796Y003890D03*
X026796Y003893D03*
X026796Y003899D03*
X026796Y003902D03*
X026796Y003905D03*
X026796Y003908D03*
X026796Y003914D03*
X026796Y003917D03*
X026796Y003920D03*
X026796Y003923D03*
X027228Y003683D03*
X027228Y003680D03*
X027228Y003677D03*
X027228Y003674D03*
X027228Y003668D03*
X027228Y003665D03*
X027228Y003662D03*
X027180Y003587D03*
X027180Y003584D03*
X027180Y003578D03*
X027180Y003575D03*
X027180Y003572D03*
X027180Y003569D03*
X027180Y003563D03*
X027180Y003560D03*
X027180Y003557D03*
X027180Y003554D03*
X027180Y003548D03*
X027180Y003545D03*
X027180Y003542D03*
X027060Y003248D03*
X027060Y003245D03*
X027060Y003242D03*
X027060Y003239D03*
X027060Y003233D03*
X027060Y003230D03*
X027468Y003254D03*
X027468Y003257D03*
X027468Y003260D03*
X027468Y003263D03*
X027468Y003269D03*
X027468Y003272D03*
X027468Y003275D03*
X027492Y003227D03*
X027492Y003224D03*
X027492Y003218D03*
X027492Y003215D03*
X027492Y003212D03*
X027492Y003209D03*
X027492Y003203D03*
X027492Y003200D03*
X027492Y003197D03*
X027492Y003194D03*
X027492Y003188D03*
X027492Y003185D03*
X027492Y003182D03*
X027492Y003179D03*
X027492Y003173D03*
X027492Y003170D03*
X027492Y003167D03*
X027492Y003164D03*
X027492Y003158D03*
X027516Y003107D03*
X027516Y003104D03*
X027516Y003098D03*
X027516Y003095D03*
X027516Y003092D03*
X027516Y003089D03*
X027516Y003083D03*
X027516Y003080D03*
X027516Y003077D03*
X027516Y003074D03*
X027516Y003068D03*
X027516Y003065D03*
X027516Y003062D03*
X027540Y003008D03*
X027540Y003005D03*
X027540Y003002D03*
X027540Y002999D03*
X027540Y002993D03*
X027540Y002990D03*
X027540Y002987D03*
X027540Y002984D03*
X027540Y002978D03*
X027540Y002975D03*
X027540Y002972D03*
X027540Y002969D03*
X027540Y002963D03*
X027540Y002960D03*
X027540Y002957D03*
X027540Y002954D03*
X027540Y002948D03*
X027540Y002945D03*
X027540Y002942D03*
X027780Y003542D03*
X027780Y003545D03*
X027780Y003548D03*
X027780Y003554D03*
X027780Y003557D03*
X027780Y003560D03*
X027780Y003563D03*
X027828Y003662D03*
X027828Y003665D03*
X027828Y003668D03*
X027828Y003674D03*
X027828Y003677D03*
X027828Y003680D03*
X027828Y003683D03*
X027828Y003689D03*
X027828Y003692D03*
X027828Y003695D03*
X027828Y003698D03*
X027828Y003704D03*
X027828Y003707D03*
D106*
X028176Y003323D03*
X028176Y003320D03*
X028176Y003317D03*
X028176Y003314D03*
X028176Y003308D03*
X028176Y003305D03*
X028176Y003302D03*
X028176Y002963D03*
X028176Y002960D03*
X028176Y002957D03*
X028176Y002954D03*
X028176Y002948D03*
X028176Y002945D03*
X028176Y002942D03*
D107*
X026736Y002951D03*
D108*
X026556Y003236D03*
X026556Y003251D03*
X026580Y003281D03*
X026580Y003296D03*
X026580Y003311D03*
X026628Y003401D03*
X026628Y003416D03*
X026628Y003431D03*
X026652Y003476D03*
X026652Y003491D03*
X026652Y003506D03*
X026676Y003521D03*
X026676Y003536D03*
X026676Y003551D03*
X026676Y003566D03*
X026676Y003581D03*
X026700Y003596D03*
X026700Y003611D03*
X026700Y003626D03*
X026748Y003746D03*
X026748Y003761D03*
X026748Y003776D03*
X026772Y003791D03*
X026772Y003806D03*
X026772Y003821D03*
X026796Y003866D03*
X026796Y003881D03*
X026796Y003896D03*
X026796Y003911D03*
X027228Y003671D03*
X027180Y003581D03*
X027180Y003566D03*
X027180Y003551D03*
X027060Y003251D03*
X027060Y003236D03*
X027468Y003266D03*
X027492Y003221D03*
X027492Y003206D03*
X027492Y003191D03*
X027492Y003176D03*
X027492Y003161D03*
X027516Y003101D03*
X027516Y003086D03*
X027516Y003071D03*
X027540Y003011D03*
X027540Y002996D03*
X027540Y002981D03*
X027540Y002966D03*
X027540Y002951D03*
X027780Y003551D03*
X027828Y003671D03*
X027828Y003686D03*
X027828Y003701D03*
D109*
X028176Y003311D03*
X028176Y002951D03*
D110*
X026724Y002966D03*
X026724Y002981D03*
D111*
X028092Y002981D03*
X028092Y002966D03*
X028260Y002966D03*
X028260Y002981D03*
X028260Y003266D03*
X028092Y003266D03*
D112*
X026724Y002987D03*
X026724Y002984D03*
X026724Y002978D03*
X026724Y002975D03*
X026724Y002972D03*
X026724Y002969D03*
D113*
X028092Y002978D03*
X028092Y002975D03*
X028092Y002972D03*
X028092Y002969D03*
X028092Y002984D03*
X028092Y002987D03*
X028260Y002987D03*
X028260Y002984D03*
X028260Y002978D03*
X028260Y002975D03*
X028260Y002972D03*
X028260Y002969D03*
X028260Y003254D03*
X028260Y003257D03*
X028260Y003260D03*
X028260Y003263D03*
X028260Y003269D03*
X028260Y003272D03*
X028260Y003275D03*
X028092Y003275D03*
X028092Y003272D03*
X028092Y003269D03*
X028092Y003263D03*
X028092Y003260D03*
X028092Y003257D03*
X028092Y003254D03*
D114*
X026784Y003179D03*
X026784Y003173D03*
X026784Y003170D03*
X026784Y003167D03*
X026784Y003164D03*
X026784Y003158D03*
X026784Y003155D03*
X026784Y003152D03*
X026784Y003149D03*
X026784Y003143D03*
X026784Y003140D03*
X026784Y003137D03*
X026784Y003134D03*
X026736Y003035D03*
X026736Y003032D03*
X026736Y003029D03*
X026736Y003023D03*
X026736Y003020D03*
X026736Y003017D03*
X026736Y003014D03*
X026736Y003008D03*
X026736Y003005D03*
X026736Y003002D03*
X026736Y002999D03*
X026736Y002993D03*
X026736Y002990D03*
D115*
X028080Y002999D03*
X028080Y003002D03*
X028080Y003005D03*
X028080Y003008D03*
X028080Y003014D03*
X028080Y003017D03*
X028080Y003020D03*
X028080Y003023D03*
X028080Y003029D03*
X028080Y003032D03*
X028080Y003035D03*
X028080Y003038D03*
X028080Y003044D03*
X028080Y003047D03*
X028080Y003050D03*
X028080Y003053D03*
X028080Y003059D03*
X028080Y003062D03*
X028080Y003065D03*
X028080Y003068D03*
X028080Y003074D03*
X028080Y003077D03*
X028080Y003080D03*
X028080Y003083D03*
X028080Y002993D03*
X028080Y002990D03*
X028080Y003209D03*
X028080Y003212D03*
X028080Y003215D03*
X028080Y003218D03*
X028080Y003224D03*
X028080Y003227D03*
X028080Y003230D03*
X028080Y003233D03*
X028080Y003239D03*
X028080Y003242D03*
X028080Y003245D03*
X028080Y003248D03*
D116*
X028272Y003248D03*
X028272Y003245D03*
X028272Y003242D03*
X028272Y003239D03*
X028272Y003233D03*
X028272Y003230D03*
X028272Y003227D03*
X028272Y003224D03*
X028272Y003218D03*
X028272Y003215D03*
X028272Y003212D03*
X028272Y003209D03*
X028272Y003203D03*
X028272Y003200D03*
X028272Y003197D03*
X028272Y003194D03*
X028272Y003188D03*
X028272Y003185D03*
X028272Y003182D03*
X028272Y003179D03*
X028272Y003173D03*
X028272Y003170D03*
X028272Y003167D03*
X028272Y003164D03*
X028272Y003158D03*
X028272Y003155D03*
X028272Y003152D03*
X028272Y003149D03*
X028272Y003143D03*
X028272Y003140D03*
X028272Y003137D03*
X028272Y003134D03*
X028272Y003128D03*
X028272Y003125D03*
X028272Y003122D03*
X028272Y003119D03*
X028272Y003113D03*
X028272Y003110D03*
X028272Y003107D03*
X028272Y003104D03*
X028272Y003098D03*
X028272Y003095D03*
X028272Y003092D03*
X028272Y003089D03*
X028272Y003083D03*
X028272Y003080D03*
X028272Y003077D03*
X028272Y003074D03*
X028272Y003068D03*
X028272Y003065D03*
X028272Y003062D03*
X028272Y003059D03*
X028272Y003053D03*
X028272Y003050D03*
X028272Y003047D03*
X028272Y003044D03*
X028272Y003038D03*
X028272Y003035D03*
X028272Y003032D03*
X028272Y003029D03*
X028272Y003023D03*
X028272Y003020D03*
X028272Y003017D03*
X028272Y003014D03*
X028272Y003008D03*
X028272Y003005D03*
X028272Y003002D03*
X028272Y002999D03*
X028272Y002993D03*
X028272Y002990D03*
D117*
X026784Y003146D03*
X026784Y003161D03*
X026784Y003176D03*
X026736Y003026D03*
X026736Y003011D03*
X026736Y002996D03*
D118*
X028080Y002996D03*
X028080Y003011D03*
X028080Y003026D03*
X028080Y003041D03*
X028080Y003056D03*
X028080Y003071D03*
X028080Y003206D03*
X028080Y003221D03*
X028080Y003236D03*
X028080Y003251D03*
D119*
X028272Y003251D03*
X028272Y003236D03*
X028272Y003221D03*
X028272Y003206D03*
X028272Y003191D03*
X028272Y003176D03*
X028272Y003161D03*
X028272Y003146D03*
X028272Y003131D03*
X028272Y003116D03*
X028272Y003101D03*
X028272Y003086D03*
X028272Y003071D03*
X028272Y003056D03*
X028272Y003041D03*
X028272Y003026D03*
X028272Y003011D03*
X028272Y002996D03*
D120*
X027768Y003518D03*
X027768Y003524D03*
X027768Y003527D03*
X027768Y003530D03*
X027768Y003533D03*
X027768Y003539D03*
X027480Y003299D03*
X027480Y003293D03*
X027480Y003290D03*
X027480Y003287D03*
X027480Y003284D03*
X027480Y003278D03*
X027480Y003248D03*
X027480Y003245D03*
X027480Y003242D03*
X027480Y003239D03*
X027480Y003233D03*
X027480Y003230D03*
X027528Y003059D03*
X027528Y003053D03*
X027528Y003050D03*
X027528Y003047D03*
X027528Y003044D03*
X027528Y003038D03*
X027528Y003035D03*
X027528Y003032D03*
X027528Y003029D03*
X027528Y003023D03*
X027528Y003020D03*
X027528Y003017D03*
X027528Y003014D03*
X027048Y003209D03*
X027048Y003212D03*
X027048Y003215D03*
X027048Y003218D03*
X027048Y003224D03*
X027048Y003227D03*
X027168Y003518D03*
X027168Y003524D03*
X027168Y003527D03*
X027168Y003530D03*
X027168Y003533D03*
X027168Y003539D03*
X027240Y003689D03*
X027240Y003692D03*
X027240Y003695D03*
X027240Y003698D03*
X027240Y003704D03*
X027240Y003707D03*
X026640Y003467D03*
X026640Y003464D03*
X026640Y003458D03*
X026640Y003455D03*
X026640Y003452D03*
X026640Y003449D03*
X026568Y003275D03*
X026568Y003272D03*
X026568Y003269D03*
X026568Y003263D03*
X026568Y003260D03*
X026568Y003257D03*
X026568Y003254D03*
X026568Y003227D03*
X026568Y003224D03*
X026568Y003218D03*
X026568Y003215D03*
X026568Y003212D03*
X026568Y003209D03*
D121*
X026568Y003206D03*
X026568Y003221D03*
X026568Y003266D03*
X026640Y003446D03*
X026640Y003461D03*
X027048Y003221D03*
X027048Y003206D03*
X027168Y003521D03*
X027168Y003536D03*
X027240Y003686D03*
X027240Y003701D03*
X027480Y003296D03*
X027480Y003281D03*
X027480Y003251D03*
X027480Y003236D03*
X027528Y003056D03*
X027528Y003041D03*
X027528Y003026D03*
X027768Y003521D03*
X027768Y003536D03*
D122*
X027564Y003902D03*
X027564Y003905D03*
X027564Y003908D03*
X027564Y003914D03*
X027564Y003917D03*
X027564Y003920D03*
X027564Y003923D03*
X026796Y003203D03*
X026796Y003200D03*
X026796Y003197D03*
X026796Y003194D03*
X026796Y003188D03*
X026796Y003185D03*
X026796Y003182D03*
X026772Y003128D03*
X026772Y003125D03*
X026772Y003122D03*
X026772Y003119D03*
X026772Y003113D03*
X026772Y003110D03*
X026748Y003083D03*
X026748Y003080D03*
X026748Y003077D03*
X026748Y003074D03*
X026748Y003068D03*
X026748Y003065D03*
X026748Y003062D03*
X026748Y003059D03*
X026748Y003053D03*
X026748Y003050D03*
X026748Y003047D03*
X026748Y003044D03*
X026748Y003038D03*
D123*
X026748Y003041D03*
X026748Y003056D03*
X026748Y003071D03*
X026772Y003116D03*
X026772Y003131D03*
X026796Y003191D03*
X027564Y003911D03*
D124*
X026760Y003101D03*
X026760Y003086D03*
D125*
X026760Y003089D03*
X026760Y003092D03*
X026760Y003095D03*
X026760Y003098D03*
X026760Y003104D03*
X026760Y003107D03*
D126*
X026604Y003329D03*
X026604Y003332D03*
X026604Y003335D03*
X026604Y003338D03*
X026604Y003344D03*
X026604Y003347D03*
X026604Y003350D03*
X026604Y003353D03*
X026604Y003359D03*
X026604Y003362D03*
X026604Y003365D03*
X026604Y003368D03*
X026724Y003662D03*
X026724Y003665D03*
X026724Y003668D03*
X026724Y003674D03*
X026724Y003677D03*
X026724Y003680D03*
X026724Y003683D03*
X026724Y003689D03*
X026724Y003692D03*
X026724Y003695D03*
X026724Y003698D03*
X026724Y003704D03*
X026724Y003707D03*
X027204Y003635D03*
X027204Y003632D03*
X027204Y003629D03*
X027204Y003623D03*
X027204Y003620D03*
X027204Y003617D03*
X027204Y003614D03*
X027204Y003608D03*
X027204Y003605D03*
X027204Y003602D03*
X027204Y003599D03*
X027204Y003593D03*
X027204Y003590D03*
X027084Y003299D03*
X027084Y003293D03*
X027084Y003290D03*
X027084Y003287D03*
X027084Y003284D03*
X027084Y003278D03*
X027804Y003590D03*
X027804Y003593D03*
X027804Y003599D03*
X027804Y003602D03*
X027804Y003605D03*
X027804Y003608D03*
X027804Y003614D03*
X027804Y003617D03*
X027804Y003620D03*
X027804Y003623D03*
X027804Y003629D03*
X027804Y003632D03*
X027804Y003635D03*
D127*
X028164Y003299D03*
X028164Y003293D03*
X028164Y003290D03*
X028164Y003287D03*
X028164Y003284D03*
X028164Y003278D03*
D128*
X027804Y003596D03*
X027804Y003611D03*
X027804Y003626D03*
X027204Y003626D03*
X027204Y003611D03*
X027204Y003596D03*
X027084Y003296D03*
X027084Y003281D03*
X026604Y003326D03*
X026604Y003341D03*
X026604Y003356D03*
X026604Y003371D03*
X026724Y003671D03*
X026724Y003686D03*
X026724Y003701D03*
D129*
X028164Y003296D03*
X028164Y003281D03*
D130*
X027384Y003302D03*
X027384Y003305D03*
X027384Y003308D03*
X027384Y003314D03*
X027384Y003317D03*
X027384Y003320D03*
X027384Y003323D03*
D131*
X027384Y003311D03*
D132*
X027408Y003326D03*
X027408Y003341D03*
X027408Y003356D03*
X027408Y003371D03*
X027432Y003401D03*
X027432Y003416D03*
X027432Y003431D03*
X027456Y003476D03*
X027456Y003491D03*
X027456Y003506D03*
X027552Y003746D03*
X027552Y003761D03*
X027552Y003776D03*
X027576Y003806D03*
X027576Y003821D03*
X027576Y003836D03*
X027576Y003851D03*
D133*
X028176Y003341D03*
X028176Y003326D03*
D134*
X027552Y003734D03*
X027552Y003737D03*
X027552Y003740D03*
X027552Y003743D03*
X027552Y003749D03*
X027552Y003752D03*
X027552Y003755D03*
X027552Y003758D03*
X027552Y003764D03*
X027552Y003767D03*
X027552Y003770D03*
X027552Y003773D03*
X027552Y003779D03*
X027576Y003809D03*
X027576Y003812D03*
X027576Y003815D03*
X027576Y003818D03*
X027576Y003824D03*
X027576Y003827D03*
X027576Y003830D03*
X027576Y003833D03*
X027576Y003839D03*
X027576Y003842D03*
X027576Y003845D03*
X027576Y003848D03*
X027456Y003515D03*
X027456Y003512D03*
X027456Y003509D03*
X027456Y003503D03*
X027456Y003500D03*
X027456Y003497D03*
X027456Y003494D03*
X027456Y003488D03*
X027456Y003485D03*
X027456Y003482D03*
X027456Y003479D03*
X027456Y003473D03*
X027456Y003470D03*
X027432Y003443D03*
X027432Y003440D03*
X027432Y003437D03*
X027432Y003434D03*
X027432Y003428D03*
X027432Y003425D03*
X027432Y003422D03*
X027432Y003419D03*
X027432Y003413D03*
X027432Y003410D03*
X027432Y003407D03*
X027432Y003404D03*
X027432Y003398D03*
X027408Y003368D03*
X027408Y003365D03*
X027408Y003362D03*
X027408Y003359D03*
X027408Y003353D03*
X027408Y003350D03*
X027408Y003347D03*
X027408Y003344D03*
X027408Y003338D03*
X027408Y003335D03*
X027408Y003332D03*
X027408Y003329D03*
D135*
X028176Y003335D03*
X028176Y003338D03*
X028176Y003344D03*
X028176Y003347D03*
X028176Y003332D03*
X028176Y003329D03*
D136*
X027540Y003710D03*
X027540Y003713D03*
X027540Y003719D03*
X027540Y003722D03*
X027540Y003725D03*
X027540Y003728D03*
X027420Y003395D03*
X027420Y003392D03*
X027420Y003389D03*
X027420Y003383D03*
X027420Y003380D03*
X027420Y003377D03*
X027420Y003374D03*
D137*
X027420Y003386D03*
X027540Y003716D03*
X027540Y003731D03*
D138*
X027564Y003791D03*
X027444Y003461D03*
X027444Y003446D03*
D139*
X027444Y003449D03*
X027444Y003452D03*
X027444Y003455D03*
X027444Y003458D03*
X027444Y003464D03*
X027444Y003467D03*
X027564Y003782D03*
X027564Y003785D03*
X027564Y003788D03*
X027564Y003794D03*
X027564Y003797D03*
X027564Y003800D03*
X027564Y003803D03*
D140*
X027576Y003854D03*
X027576Y003857D03*
X027576Y003860D03*
X027576Y003863D03*
X027576Y003869D03*
X027576Y003872D03*
X027576Y003875D03*
X027576Y003878D03*
X027576Y003884D03*
X027576Y003887D03*
X027576Y003890D03*
X027576Y003893D03*
X027576Y003899D03*
D141*
X027576Y003896D03*
X027576Y003881D03*
X027576Y003866D03*
D142*
X043245Y024035D03*
X043250Y024035D03*
X043255Y024035D03*
X043260Y024035D03*
X043265Y024035D03*
X043270Y024035D03*
X043275Y024035D03*
X043280Y024035D03*
X043285Y024035D03*
X043290Y024035D03*
X043295Y024035D03*
X043300Y024035D03*
X043305Y024035D03*
X043310Y024035D03*
X043315Y024035D03*
X043320Y024035D03*
X043325Y024035D03*
X043330Y024035D03*
X043335Y024035D03*
X043340Y024035D03*
X043345Y024035D03*
X043350Y024035D03*
X043355Y024035D03*
X043360Y024035D03*
X043365Y024035D03*
X043370Y024035D03*
X043375Y024035D03*
X043380Y024035D03*
X043385Y024035D03*
X043390Y024035D03*
X043395Y024035D03*
X043400Y024035D03*
X043405Y024035D03*
X043410Y024035D03*
X043415Y024035D03*
X043420Y024035D03*
X043425Y024035D03*
X043430Y024035D03*
X043435Y024035D03*
X043440Y024035D03*
X043445Y024035D03*
X043450Y024035D03*
X043455Y024035D03*
X043460Y024035D03*
X043465Y024035D03*
X043470Y024035D03*
X043475Y024035D03*
X043480Y024035D03*
X043485Y024035D03*
X043490Y024035D03*
X043495Y024035D03*
X043500Y024035D03*
X043505Y024035D03*
X043510Y024035D03*
X043515Y024035D03*
X043520Y024035D03*
X043525Y024035D03*
X043530Y024035D03*
X043535Y024035D03*
X043540Y024035D03*
X043545Y024035D03*
X043550Y024035D03*
X043555Y024035D03*
X043560Y024035D03*
X043565Y024035D03*
X043570Y024035D03*
X043575Y024035D03*
X043580Y024035D03*
X043585Y024035D03*
X043590Y024035D03*
X043595Y024035D03*
X043600Y024035D03*
X043605Y024035D03*
X043610Y024035D03*
X043615Y024035D03*
X043620Y024035D03*
X043625Y024035D03*
X043630Y024035D03*
X043635Y024035D03*
D143*
X043240Y024037D03*
D144*
X042510Y024345D03*
X042505Y024345D03*
X042500Y024345D03*
X042405Y024365D03*
X042400Y024365D03*
X042395Y024365D03*
X042390Y024365D03*
X042385Y024365D03*
X042380Y024365D03*
X042375Y024365D03*
X042370Y024365D03*
X042365Y024365D03*
X042360Y024365D03*
X042355Y024365D03*
X042350Y024365D03*
X042345Y024365D03*
X042340Y024365D03*
X042335Y024365D03*
X042330Y024365D03*
X042325Y024365D03*
X042320Y024365D03*
X042315Y024365D03*
X042310Y024365D03*
X042305Y024365D03*
X042300Y024365D03*
X042120Y024385D03*
X042115Y024385D03*
X042110Y024385D03*
X042105Y024385D03*
X042100Y024385D03*
X042095Y024385D03*
X042090Y024385D03*
X042085Y024385D03*
X042080Y024385D03*
X042075Y024385D03*
X042070Y024385D03*
X042065Y024385D03*
X042060Y024385D03*
X042055Y024385D03*
X042050Y024385D03*
X042045Y024385D03*
X042040Y024385D03*
X042035Y024385D03*
X041985Y024390D03*
X041980Y024390D03*
X041975Y024390D03*
X041970Y024390D03*
X041965Y024390D03*
X041960Y024390D03*
X041955Y024390D03*
X041950Y024390D03*
X041815Y024410D03*
X041810Y024410D03*
X041805Y024410D03*
X041800Y024410D03*
X041795Y024410D03*
X041790Y024410D03*
X041785Y024410D03*
X041780Y024410D03*
X041775Y024410D03*
X041770Y024410D03*
X041765Y024410D03*
X041760Y024410D03*
X041755Y024410D03*
X041750Y024410D03*
X041745Y024410D03*
X041740Y024410D03*
X041735Y024410D03*
X041730Y024410D03*
X041725Y024410D03*
X041720Y024410D03*
X041715Y024410D03*
X041710Y024410D03*
X041705Y024410D03*
X041700Y024410D03*
X041695Y024410D03*
X041690Y024410D03*
X041685Y024410D03*
X041595Y024300D03*
X041640Y024255D03*
X041690Y024210D03*
X041695Y024210D03*
X041700Y024210D03*
X041710Y024190D03*
X041715Y024190D03*
X041720Y024190D03*
X041725Y024190D03*
X041770Y024145D03*
X041815Y024100D03*
X041790Y023970D03*
X041785Y023970D03*
X041780Y023970D03*
X041775Y023970D03*
X041945Y023990D03*
X041950Y023970D03*
X041955Y023970D03*
X041960Y023970D03*
X041965Y023970D03*
X042125Y023815D03*
X042130Y023815D03*
X042135Y023815D03*
X042140Y023815D03*
X042115Y023685D03*
X042110Y023685D03*
X042105Y023685D03*
X042100Y023685D03*
X042095Y023685D03*
X042090Y023685D03*
X042085Y023685D03*
X042080Y023685D03*
X042075Y023685D03*
X042070Y023685D03*
X042065Y023685D03*
X042060Y023685D03*
X042055Y023685D03*
X042050Y023685D03*
X042045Y023685D03*
X042040Y023685D03*
X042035Y023685D03*
X042030Y023685D03*
X042025Y023685D03*
X042020Y023685D03*
X042015Y023685D03*
X042010Y023685D03*
X041830Y023660D03*
X041825Y023660D03*
X041820Y023660D03*
X041815Y023660D03*
X041810Y023660D03*
X041805Y023660D03*
X041800Y023660D03*
X041795Y023660D03*
X041790Y023660D03*
X041785Y023660D03*
X041780Y023660D03*
X041775Y023660D03*
X041770Y023660D03*
X041765Y023660D03*
X041760Y023660D03*
X041755Y023660D03*
X041750Y023660D03*
X041745Y023660D03*
X041740Y023660D03*
X041735Y023660D03*
X041730Y023660D03*
X041725Y023660D03*
X041720Y023660D03*
X041715Y023660D03*
X041710Y023660D03*
X041595Y023640D03*
X041590Y023640D03*
X041585Y023640D03*
X041580Y023640D03*
X041575Y023640D03*
X041570Y023640D03*
X041565Y023640D03*
X041560Y023640D03*
X041555Y023640D03*
X041550Y023640D03*
X041545Y023640D03*
X041540Y023640D03*
X041535Y023640D03*
X041530Y023640D03*
X041440Y023640D03*
X041260Y023615D03*
X041255Y023615D03*
X041250Y023615D03*
X041245Y023615D03*
X041240Y023615D03*
X041235Y023615D03*
X041230Y023615D03*
X041225Y023615D03*
X041045Y023265D03*
X041040Y023265D03*
X041035Y023265D03*
X041030Y023265D03*
X041025Y023245D03*
X040980Y023200D03*
X040975Y023200D03*
X040970Y023200D03*
X040965Y023200D03*
X040935Y023155D03*
X040930Y023155D03*
X040925Y023155D03*
X040920Y023155D03*
X042500Y023485D03*
X042505Y023485D03*
X042510Y023485D03*
X042565Y023420D03*
X042570Y023420D03*
X042575Y023420D03*
X042580Y023420D03*
X042625Y023375D03*
X042675Y023330D03*
X042680Y023330D03*
X042685Y023330D03*
X042740Y023265D03*
X042745Y023265D03*
X042750Y023265D03*
X042755Y023265D03*
X042760Y023245D03*
X042765Y023245D03*
X042770Y023245D03*
X042775Y023245D03*
X042805Y023220D03*
X042810Y023220D03*
X042815Y023220D03*
X042820Y023220D03*
X042515Y023595D03*
X042510Y023595D03*
X042505Y023595D03*
X042500Y023595D03*
X042495Y023595D03*
X042430Y024585D03*
X042475Y024630D03*
X042480Y024630D03*
X042485Y024630D03*
X042490Y024630D03*
X042495Y024650D03*
X042540Y024695D03*
X042545Y024695D03*
X042550Y024695D03*
X042555Y024695D03*
X042610Y024760D03*
X042615Y024760D03*
X042620Y024760D03*
X042800Y024935D03*
X041460Y024430D03*
X041455Y024430D03*
X041450Y024430D03*
X041445Y024430D03*
X041285Y024450D03*
X041280Y024450D03*
X041275Y024450D03*
X041270Y024450D03*
X041220Y024455D03*
X041215Y024455D03*
X041210Y024455D03*
X041205Y024455D03*
X041270Y024585D03*
X041275Y024585D03*
X041280Y024585D03*
X041285Y024585D03*
X041220Y024650D03*
X041215Y024650D03*
X041210Y024650D03*
X041205Y024650D03*
X041045Y024805D03*
X041040Y024805D03*
X041035Y024805D03*
X041030Y024805D03*
X040975Y024870D03*
X040970Y024870D03*
X040965Y024870D03*
X040895Y024935D03*
D145*
X040830Y024970D03*
X041555Y024420D03*
X041560Y024420D03*
X041565Y024420D03*
X041570Y024420D03*
X041575Y024420D03*
X041580Y024420D03*
X041585Y024420D03*
X041590Y024420D03*
X041595Y024420D03*
X041600Y024420D03*
X041605Y024420D03*
X041610Y024420D03*
X041615Y024420D03*
X041620Y024420D03*
X041625Y024420D03*
X041630Y024420D03*
X041635Y024420D03*
X041640Y024420D03*
X041645Y024420D03*
X041650Y024420D03*
X041655Y024420D03*
X041660Y024420D03*
X041665Y024420D03*
X041670Y024420D03*
X041675Y024420D03*
X041680Y024420D03*
X041840Y024400D03*
X041845Y024400D03*
X041850Y024400D03*
X041855Y024400D03*
X041860Y024400D03*
X041865Y024400D03*
X041870Y024400D03*
X041875Y024400D03*
X041880Y024400D03*
X041885Y024400D03*
X041890Y024400D03*
X041895Y024400D03*
X041900Y024400D03*
X042410Y024355D03*
X042415Y024355D03*
X042420Y024355D03*
X042425Y024355D03*
X042430Y024355D03*
X042435Y024355D03*
X042440Y024355D03*
X042445Y024355D03*
X042450Y024355D03*
X042455Y024355D03*
X042460Y024355D03*
X042465Y024355D03*
X042470Y024355D03*
X042475Y024355D03*
X042480Y024355D03*
X042485Y024355D03*
X042490Y024355D03*
X042520Y023715D03*
X042525Y023715D03*
X042530Y023715D03*
X042535Y023715D03*
X042165Y023695D03*
X042160Y023695D03*
X042155Y023695D03*
X042150Y023695D03*
X042145Y023695D03*
X042140Y023695D03*
X042135Y023695D03*
X042130Y023695D03*
X042125Y023695D03*
X041880Y023670D03*
X041875Y023670D03*
X041870Y023670D03*
X041865Y023670D03*
X041860Y023670D03*
X041705Y023650D03*
X041700Y023650D03*
X041695Y023650D03*
X041690Y023650D03*
X041685Y023650D03*
X041680Y023650D03*
X041675Y023650D03*
X041670Y023650D03*
X041665Y023650D03*
X041660Y023650D03*
X041655Y023650D03*
X041650Y023650D03*
X041645Y023650D03*
X041640Y023650D03*
X041635Y023650D03*
X041630Y023650D03*
X041625Y023650D03*
X041620Y023650D03*
X041615Y023650D03*
X041610Y023650D03*
X041605Y023650D03*
X041600Y023650D03*
X041460Y023520D03*
X041455Y023520D03*
X041450Y023520D03*
X041445Y023520D03*
X041395Y023520D03*
X041390Y023520D03*
X041385Y023520D03*
X041380Y023520D03*
X040850Y023100D03*
X040845Y023100D03*
X040840Y023100D03*
X040835Y023100D03*
X042805Y024925D03*
X042810Y024925D03*
X042815Y024925D03*
X042820Y024925D03*
D146*
X042735Y024872D03*
X042690Y024827D03*
X042665Y024802D03*
X042660Y024802D03*
X042655Y024802D03*
X042650Y024802D03*
X042645Y024782D03*
X042640Y024782D03*
X042635Y024782D03*
X042630Y024782D03*
X042600Y024737D03*
X042595Y024737D03*
X042590Y024737D03*
X042585Y024737D03*
X042580Y024717D03*
X042575Y024717D03*
X042570Y024717D03*
X042565Y024717D03*
X042535Y024672D03*
X042530Y024672D03*
X042525Y024672D03*
X042520Y024672D03*
X042510Y024652D03*
X042505Y024652D03*
X042500Y024652D03*
X042465Y024607D03*
X042460Y024607D03*
X042455Y024607D03*
X042385Y024542D03*
X042340Y024497D03*
X042225Y024387D03*
X042220Y024387D03*
X042215Y024387D03*
X042100Y024277D03*
X042055Y024232D03*
X042010Y024187D03*
X041965Y024142D03*
X041960Y024142D03*
X041955Y024142D03*
X041950Y024142D03*
X041945Y024122D03*
X041940Y024122D03*
X041935Y024122D03*
X041930Y024122D03*
X041930Y023992D03*
X041925Y023992D03*
X041935Y023992D03*
X041940Y023992D03*
X041970Y023947D03*
X041975Y023947D03*
X041980Y023947D03*
X041985Y023947D03*
X042010Y023927D03*
X042055Y023882D03*
X042100Y023837D03*
X042105Y023837D03*
X042110Y023837D03*
X042115Y023837D03*
X042145Y023792D03*
X042150Y023792D03*
X042155Y023792D03*
X042160Y023792D03*
X042435Y023837D03*
X042440Y023837D03*
X042445Y023837D03*
X042450Y023837D03*
X042455Y023837D03*
X042460Y023837D03*
X042465Y023837D03*
X042470Y023837D03*
X042475Y023837D03*
X042480Y023837D03*
X042485Y023837D03*
X042490Y023837D03*
X042495Y023837D03*
X042500Y023837D03*
X042505Y023837D03*
X042510Y023837D03*
X042495Y023487D03*
X042520Y023462D03*
X042525Y023462D03*
X042530Y023462D03*
X042535Y023462D03*
X042540Y023442D03*
X042545Y023442D03*
X042550Y023442D03*
X042555Y023442D03*
X042670Y023332D03*
X042695Y023307D03*
X042700Y023307D03*
X042705Y023307D03*
X042710Y023307D03*
X042715Y023287D03*
X042720Y023287D03*
X042725Y023287D03*
X042730Y023287D03*
X042785Y023222D03*
X042790Y023222D03*
X042795Y023222D03*
X042800Y023222D03*
X042515Y024342D03*
X041765Y024147D03*
X041760Y024147D03*
X041755Y024147D03*
X041745Y024167D03*
X041740Y024167D03*
X041735Y024167D03*
X041730Y024167D03*
X041685Y024212D03*
X041680Y024232D03*
X041675Y024232D03*
X041670Y024232D03*
X041665Y024232D03*
X041655Y024252D03*
X041650Y024252D03*
X041645Y024252D03*
X041795Y023992D03*
X041800Y023992D03*
X041805Y023992D03*
X041810Y023992D03*
X041765Y023947D03*
X041760Y023947D03*
X041755Y023947D03*
X041750Y023947D03*
X041705Y023902D03*
X041640Y023837D03*
X041550Y023747D03*
X041435Y023637D03*
X041430Y023637D03*
X041425Y023637D03*
X041305Y023617D03*
X041300Y023617D03*
X041295Y023617D03*
X041290Y023617D03*
X041290Y023507D03*
X041245Y023462D03*
X041180Y023397D03*
X041135Y023352D03*
X041090Y023307D03*
X041020Y023242D03*
X041015Y023242D03*
X041010Y023242D03*
X041000Y023222D03*
X040995Y023222D03*
X040990Y023222D03*
X040985Y023222D03*
X040955Y023177D03*
X040950Y023177D03*
X040945Y023177D03*
X040940Y023177D03*
X040910Y023132D03*
X040905Y023132D03*
X040900Y023132D03*
X040895Y023132D03*
X040890Y023112D03*
X040885Y023112D03*
X040880Y023112D03*
X040875Y023112D03*
X040865Y023087D03*
X040860Y023087D03*
X040855Y023087D03*
X041030Y024102D03*
X041035Y024102D03*
X041040Y024102D03*
X041045Y024102D03*
X041115Y024432D03*
X041120Y024432D03*
X041125Y024432D03*
X041130Y024432D03*
X041140Y024452D03*
X041145Y024452D03*
X041150Y024452D03*
X041155Y024452D03*
X041295Y024562D03*
X041300Y024562D03*
X041305Y024562D03*
X041310Y024562D03*
X041265Y024607D03*
X041260Y024607D03*
X041255Y024607D03*
X041250Y024607D03*
X041240Y024627D03*
X041235Y024627D03*
X041230Y024627D03*
X041225Y024627D03*
X041180Y024672D03*
X041135Y024717D03*
X041090Y024762D03*
X041085Y024762D03*
X041080Y024762D03*
X041075Y024762D03*
X041065Y024782D03*
X041060Y024782D03*
X041055Y024782D03*
X041050Y024782D03*
X041020Y024827D03*
X041015Y024827D03*
X041010Y024827D03*
X041005Y024827D03*
X041000Y024847D03*
X040995Y024847D03*
X040990Y024847D03*
X040985Y024847D03*
X040960Y024872D03*
X040915Y024917D03*
X040850Y024982D03*
X040845Y024982D03*
X040840Y024982D03*
X040835Y024982D03*
D147*
X040875Y024945D03*
X040880Y024945D03*
X040885Y024945D03*
X040890Y024945D03*
X040900Y024925D03*
X040905Y024925D03*
X040910Y024925D03*
X040920Y024905D03*
X040925Y024905D03*
X040930Y024905D03*
X040935Y024905D03*
X040940Y024885D03*
X040980Y024860D03*
X041025Y024815D03*
X041095Y024750D03*
X041100Y024750D03*
X041105Y024750D03*
X041110Y024750D03*
X041115Y024730D03*
X041140Y024705D03*
X041145Y024705D03*
X041150Y024705D03*
X041155Y024705D03*
X041160Y024685D03*
X041165Y024685D03*
X041170Y024685D03*
X041175Y024685D03*
X041185Y024665D03*
X041190Y024665D03*
X041195Y024665D03*
X041200Y024660D03*
X041290Y024575D03*
X041315Y024550D03*
X041320Y024550D03*
X041325Y024550D03*
X041330Y024550D03*
X041335Y024530D03*
X041340Y024530D03*
X041345Y024530D03*
X041350Y024530D03*
X041465Y024420D03*
X041470Y024420D03*
X041475Y024420D03*
X041480Y024420D03*
X041555Y024330D03*
X041560Y024330D03*
X041565Y024330D03*
X041570Y024330D03*
X041575Y024310D03*
X041580Y024310D03*
X041585Y024310D03*
X041590Y024310D03*
X041600Y024290D03*
X041605Y024290D03*
X041610Y024290D03*
X041615Y024290D03*
X041620Y024265D03*
X041625Y024265D03*
X041630Y024265D03*
X041635Y024265D03*
X041660Y024245D03*
X041705Y024200D03*
X041750Y024155D03*
X041775Y024135D03*
X041780Y024135D03*
X041785Y024135D03*
X041790Y024135D03*
X041795Y024110D03*
X041800Y024110D03*
X041805Y024110D03*
X041810Y024110D03*
X041815Y024005D03*
X041770Y023960D03*
X041745Y023935D03*
X041740Y023935D03*
X041735Y023935D03*
X041730Y023935D03*
X041725Y023915D03*
X041720Y023915D03*
X041715Y023915D03*
X041710Y023915D03*
X041700Y023890D03*
X041695Y023890D03*
X041690Y023890D03*
X041685Y023890D03*
X041680Y023870D03*
X041675Y023870D03*
X041670Y023870D03*
X041665Y023870D03*
X041660Y023850D03*
X041655Y023850D03*
X041650Y023850D03*
X041645Y023850D03*
X041635Y023825D03*
X041630Y023825D03*
X041625Y023825D03*
X041620Y023825D03*
X041545Y023740D03*
X041540Y023740D03*
X041535Y023740D03*
X041420Y023630D03*
X041285Y023495D03*
X041280Y023495D03*
X041275Y023495D03*
X041270Y023495D03*
X041265Y023475D03*
X041260Y023475D03*
X041255Y023475D03*
X041250Y023475D03*
X041240Y023450D03*
X041235Y023450D03*
X041230Y023450D03*
X041225Y023450D03*
X041220Y023430D03*
X041215Y023430D03*
X041210Y023430D03*
X041205Y023430D03*
X041200Y023410D03*
X041195Y023410D03*
X041190Y023410D03*
X041185Y023410D03*
X041175Y023385D03*
X041170Y023385D03*
X041165Y023385D03*
X041160Y023385D03*
X041155Y023365D03*
X041150Y023365D03*
X041145Y023365D03*
X041140Y023365D03*
X041130Y023345D03*
X041125Y023345D03*
X041120Y023345D03*
X041110Y023320D03*
X041105Y023320D03*
X041100Y023320D03*
X041095Y023320D03*
X041085Y023300D03*
X041080Y023300D03*
X041075Y023300D03*
X041005Y023235D03*
X040960Y023190D03*
X040915Y023145D03*
X041995Y023935D03*
X042000Y023935D03*
X042005Y023935D03*
X042015Y023915D03*
X042020Y023915D03*
X042025Y023915D03*
X042030Y023915D03*
X042035Y023895D03*
X042060Y023870D03*
X042065Y023870D03*
X042070Y023870D03*
X042075Y023870D03*
X042080Y023850D03*
X042085Y023850D03*
X042090Y023850D03*
X042095Y023850D03*
X042120Y023825D03*
X042235Y023715D03*
X042240Y023715D03*
X042245Y023715D03*
X042250Y023715D03*
X042255Y023695D03*
X042260Y023695D03*
X042265Y023695D03*
X042270Y023695D03*
X042275Y023695D03*
X042450Y023715D03*
X042515Y023715D03*
X042520Y023605D03*
X042525Y023605D03*
X042530Y023605D03*
X042535Y023605D03*
X042515Y023475D03*
X042560Y023430D03*
X042605Y023385D03*
X042610Y023385D03*
X042615Y023385D03*
X042620Y023385D03*
X042630Y023365D03*
X042635Y023365D03*
X042640Y023365D03*
X042645Y023365D03*
X042650Y023345D03*
X042655Y023345D03*
X042660Y023345D03*
X042665Y023345D03*
X042690Y023320D03*
X042735Y023275D03*
X042645Y023715D03*
X042640Y023715D03*
X042635Y023715D03*
X042630Y023715D03*
X042425Y023825D03*
X042420Y023825D03*
X042415Y023825D03*
X042410Y023825D03*
X042030Y024200D03*
X042025Y024200D03*
X042020Y024200D03*
X042015Y024200D03*
X042005Y024180D03*
X042000Y024180D03*
X041995Y024180D03*
X041990Y024175D03*
X041970Y024155D03*
X042035Y024220D03*
X042060Y024245D03*
X042065Y024245D03*
X042070Y024245D03*
X042075Y024245D03*
X042080Y024265D03*
X042085Y024265D03*
X042090Y024265D03*
X042095Y024265D03*
X042120Y024290D03*
X042170Y024355D03*
X042175Y024355D03*
X042180Y024355D03*
X042185Y024355D03*
X042190Y024375D03*
X042195Y024375D03*
X042200Y024375D03*
X042205Y024375D03*
X042300Y024465D03*
X042305Y024465D03*
X042310Y024465D03*
X042315Y024465D03*
X042320Y024485D03*
X042325Y024485D03*
X042330Y024485D03*
X042335Y024485D03*
X042365Y024530D03*
X042370Y024530D03*
X042375Y024530D03*
X042380Y024530D03*
X042390Y024550D03*
X042395Y024550D03*
X042400Y024550D03*
X042410Y024575D03*
X042415Y024575D03*
X042420Y024575D03*
X042425Y024575D03*
X042435Y024595D03*
X042440Y024595D03*
X042445Y024595D03*
X042450Y024595D03*
X042470Y024615D03*
X042515Y024660D03*
X042560Y024705D03*
X042605Y024750D03*
X042625Y024770D03*
X042670Y024815D03*
X042675Y024815D03*
X042680Y024815D03*
X042685Y024815D03*
X042695Y024840D03*
X042700Y024840D03*
X042705Y024840D03*
X042710Y024840D03*
X042715Y024860D03*
X042720Y024860D03*
X042725Y024860D03*
X042730Y024860D03*
X042760Y024905D03*
X042765Y024905D03*
X042770Y024905D03*
X042775Y024905D03*
X042780Y024925D03*
X042785Y024925D03*
X042790Y024925D03*
X042795Y024925D03*
D148*
X042755Y024882D03*
X042750Y024882D03*
X042745Y024882D03*
X042740Y024882D03*
X042405Y024552D03*
X042360Y024507D03*
X042355Y024507D03*
X042350Y024507D03*
X042345Y024507D03*
X042230Y024397D03*
X042210Y024377D03*
X042115Y024287D03*
X042110Y024287D03*
X042105Y024287D03*
X042050Y024222D03*
X042045Y024222D03*
X042040Y024222D03*
X041985Y024157D03*
X041980Y024157D03*
X041975Y024157D03*
X041925Y024112D03*
X041875Y024047D03*
X041870Y024047D03*
X041865Y024047D03*
X041860Y024047D03*
X041990Y023937D03*
X042040Y023892D03*
X042045Y023892D03*
X042050Y023892D03*
X042165Y023782D03*
X042215Y023717D03*
X042220Y023717D03*
X042225Y023717D03*
X042230Y023717D03*
X042280Y023692D03*
X042285Y023692D03*
X042290Y023692D03*
X042295Y023692D03*
X042455Y023717D03*
X042460Y023717D03*
X042465Y023717D03*
X042470Y023717D03*
X042475Y023717D03*
X042480Y023717D03*
X042485Y023717D03*
X042490Y023717D03*
X042495Y023717D03*
X042500Y023717D03*
X042505Y023717D03*
X042510Y023717D03*
X042560Y023627D03*
X042555Y023607D03*
X042550Y023607D03*
X042545Y023607D03*
X042540Y023607D03*
X042585Y023407D03*
X042590Y023407D03*
X042595Y023407D03*
X042600Y023407D03*
X042780Y023232D03*
X042515Y023847D03*
X042430Y023827D03*
X042630Y024287D03*
X042635Y024287D03*
X042640Y024287D03*
X042645Y024287D03*
X041440Y024442D03*
X041435Y024442D03*
X041430Y024442D03*
X041425Y024442D03*
X041245Y024617D03*
X041130Y024727D03*
X041125Y024727D03*
X041120Y024727D03*
X041070Y024772D03*
X040955Y024882D03*
X040950Y024882D03*
X040945Y024882D03*
X040870Y024972D03*
X040865Y024972D03*
X040860Y024972D03*
X040855Y024972D03*
X041530Y023737D03*
X041460Y023652D03*
X041455Y023652D03*
X041450Y023652D03*
X041445Y023652D03*
X041415Y023627D03*
X041410Y023627D03*
X041405Y023627D03*
X041400Y023627D03*
X041305Y023517D03*
X041300Y023517D03*
X041295Y023517D03*
X041090Y023562D03*
X041115Y023342D03*
X041070Y023297D03*
X041065Y023277D03*
X041060Y023277D03*
X041055Y023277D03*
X041050Y023277D03*
D149*
X042170Y023740D03*
X042175Y023740D03*
X042180Y023740D03*
X042185Y023740D03*
X042320Y023675D03*
X042410Y023585D03*
X042415Y023585D03*
X042420Y023585D03*
X042425Y023585D03*
X042455Y023560D03*
X042460Y023560D03*
X042465Y023560D03*
X042625Y023715D03*
X042140Y024335D03*
X042135Y024335D03*
X042130Y024335D03*
X042125Y024335D03*
X042255Y024400D03*
X042260Y024400D03*
X042265Y024400D03*
X042270Y024400D03*
X041370Y024485D03*
X041365Y024485D03*
X041360Y024485D03*
X041355Y024485D03*
D150*
X041380Y024472D03*
X041385Y024472D03*
X041390Y024472D03*
X041395Y024472D03*
X041420Y024452D03*
X041490Y024407D03*
X041495Y024407D03*
X041500Y024407D03*
X041505Y024407D03*
X041155Y024322D03*
X041150Y024322D03*
X041145Y024322D03*
X041140Y024322D03*
X041135Y024322D03*
X041130Y024322D03*
X041125Y024322D03*
X041120Y024322D03*
X041115Y024322D03*
X041090Y023702D03*
X041380Y023617D03*
X041385Y023617D03*
X041390Y023617D03*
X041395Y023617D03*
X041840Y024057D03*
X041845Y024057D03*
X041850Y024057D03*
X041855Y024057D03*
X041880Y024057D03*
X041885Y024057D03*
X041890Y024057D03*
X041895Y024057D03*
X041900Y024057D03*
X042145Y024342D03*
X042150Y024342D03*
X042155Y024342D03*
X042160Y024342D03*
X042235Y024387D03*
X042240Y024387D03*
X042245Y024387D03*
X042250Y024387D03*
X042565Y024297D03*
X042570Y024297D03*
X042575Y024297D03*
X042580Y024297D03*
X042585Y024297D03*
X042590Y024297D03*
X042595Y024297D03*
X042600Y024297D03*
X042605Y024297D03*
X042610Y024297D03*
X042615Y024297D03*
X042620Y024297D03*
X042625Y024297D03*
X042405Y023792D03*
X042315Y023682D03*
X042310Y023682D03*
X042305Y023682D03*
X042300Y023682D03*
X042210Y023727D03*
X042205Y023727D03*
X042200Y023727D03*
X042195Y023727D03*
X042190Y023727D03*
D151*
X042610Y023715D03*
X042615Y023715D03*
X042620Y023715D03*
X041375Y023585D03*
X041370Y023585D03*
X041365Y023585D03*
X041360Y023585D03*
X041355Y023585D03*
X041350Y023585D03*
X041345Y023585D03*
X041340Y023585D03*
X041335Y023585D03*
X041330Y023585D03*
X041325Y023585D03*
X041320Y023585D03*
X041315Y023585D03*
X041310Y023565D03*
X041115Y023585D03*
X041090Y024355D03*
X041085Y024355D03*
X041080Y024355D03*
X041075Y024355D03*
D152*
X041120Y023582D03*
X041125Y023582D03*
X041130Y023582D03*
X041135Y023582D03*
X042340Y023692D03*
X042605Y023717D03*
D153*
X042600Y023717D03*
X042595Y023717D03*
X042590Y023717D03*
X042585Y023717D03*
X042360Y023692D03*
X042355Y023692D03*
X042350Y023692D03*
X042345Y023692D03*
X041485Y023607D03*
X041480Y023607D03*
X041475Y023607D03*
X041470Y023607D03*
X041465Y023607D03*
X041110Y023607D03*
X041105Y023607D03*
X041100Y023607D03*
X041095Y023607D03*
X040980Y024002D03*
X040975Y024002D03*
X040970Y024002D03*
X040965Y024002D03*
X041030Y024267D03*
X041035Y024267D03*
X041040Y024267D03*
X041045Y024267D03*
D154*
X041050Y024000D03*
X041055Y024000D03*
X041060Y024000D03*
X041065Y024000D03*
X042365Y023695D03*
X042370Y023695D03*
X042375Y023695D03*
X042380Y023695D03*
X042565Y023715D03*
X042570Y023715D03*
X042575Y023715D03*
X042580Y023715D03*
D155*
X042560Y024065D03*
X041025Y024070D03*
D156*
X041020Y024080D03*
X041015Y024080D03*
X041010Y024080D03*
X042540Y024080D03*
X042545Y024080D03*
X042550Y024080D03*
X042555Y024080D03*
D157*
X042535Y024090D03*
X042530Y024090D03*
X042525Y024090D03*
X042520Y024090D03*
D158*
X042515Y024100D03*
X041595Y023945D03*
D159*
X041885Y023672D03*
X041890Y023672D03*
X041895Y023672D03*
X041900Y023672D03*
X041905Y023672D03*
X041910Y023672D03*
X041915Y023672D03*
X041920Y023672D03*
X041925Y023672D03*
X041930Y023672D03*
X041935Y023672D03*
X041940Y023672D03*
X041945Y023672D03*
X041950Y023672D03*
X041955Y023672D03*
X041960Y023672D03*
X041965Y023672D03*
X042120Y023692D03*
X042495Y024352D03*
X041945Y024397D03*
X041940Y024397D03*
X041935Y024397D03*
X041930Y024397D03*
X041925Y024397D03*
X041920Y024397D03*
X041915Y024397D03*
X041910Y024397D03*
X041905Y024397D03*
X041350Y024442D03*
X041345Y024442D03*
X041340Y024442D03*
X041335Y024442D03*
X041330Y024442D03*
X041325Y024442D03*
X041320Y024442D03*
X041315Y024442D03*
X041310Y024442D03*
X041305Y024442D03*
X041300Y024442D03*
X041295Y024442D03*
X041290Y024442D03*
D160*
X041070Y024345D03*
X041550Y024385D03*
X041820Y024055D03*
X041825Y024055D03*
X041830Y024055D03*
X041905Y024055D03*
X041910Y024055D03*
X041915Y024055D03*
X041920Y024055D03*
X042280Y024410D03*
X042285Y024410D03*
X042290Y024410D03*
X042295Y024410D03*
X041525Y023685D03*
X041520Y023685D03*
X041515Y023685D03*
X041510Y023685D03*
X041065Y023750D03*
X041060Y023750D03*
X041055Y023750D03*
X041050Y023750D03*
X042475Y023550D03*
X042480Y023550D03*
X042485Y023550D03*
X042490Y023550D03*
D161*
X042470Y023552D03*
X042445Y023572D03*
X042440Y023572D03*
X042435Y023572D03*
X042405Y023617D03*
X042335Y023682D03*
X042330Y023682D03*
X042325Y023682D03*
X041835Y024057D03*
X041545Y024387D03*
X041540Y024387D03*
X041535Y024387D03*
X041530Y024387D03*
X041065Y024342D03*
X041060Y024342D03*
X041055Y024342D03*
X041050Y024342D03*
X042275Y024407D03*
D162*
X041525Y024397D03*
X041520Y024397D03*
X041515Y024397D03*
X041510Y024397D03*
X041375Y024482D03*
X041070Y023717D03*
X041205Y023582D03*
X041210Y023582D03*
X041215Y023582D03*
X041220Y023582D03*
X042430Y023582D03*
X042450Y023562D03*
D163*
X042445Y023717D03*
X042440Y023717D03*
X042435Y023717D03*
X042430Y023717D03*
X041440Y023517D03*
X041435Y023517D03*
X041430Y023517D03*
X041425Y023517D03*
X041420Y023517D03*
X041415Y023517D03*
X041410Y023517D03*
X041405Y023517D03*
X041400Y023517D03*
D164*
X042390Y023695D03*
X042395Y023695D03*
X042400Y023695D03*
D165*
X042385Y023705D03*
X041045Y023860D03*
X041040Y023860D03*
X041035Y023860D03*
X041030Y023860D03*
D166*
X041400Y024455D03*
X041405Y024455D03*
X041410Y024455D03*
X041415Y024455D03*
X041485Y024410D03*
X042165Y024345D03*
D167*
X042030Y024387D03*
X042025Y024387D03*
X042020Y024387D03*
X042015Y024387D03*
X042010Y024387D03*
X042005Y024387D03*
X042000Y024387D03*
X041995Y024387D03*
X041990Y024387D03*
X041835Y024407D03*
X041830Y024407D03*
X041825Y024407D03*
X041820Y024407D03*
X041265Y024452D03*
X041260Y024452D03*
X041255Y024452D03*
X041250Y024452D03*
X041245Y024452D03*
X041240Y024452D03*
X041235Y024452D03*
X041230Y024452D03*
X041225Y024452D03*
X041265Y023617D03*
X041270Y023617D03*
X041275Y023617D03*
X041280Y023617D03*
X041285Y023617D03*
X041835Y023662D03*
X041840Y023662D03*
X041845Y023662D03*
X041850Y023662D03*
X041855Y023662D03*
X041970Y023682D03*
X041975Y023682D03*
X041980Y023682D03*
X041985Y023682D03*
X041990Y023682D03*
X041995Y023682D03*
X042000Y023682D03*
X042005Y023682D03*
D168*
X041615Y023947D03*
X041610Y023947D03*
X041605Y023947D03*
X041600Y023947D03*
D169*
X041590Y023935D03*
X041585Y023935D03*
X041580Y023935D03*
X041575Y023935D03*
D170*
X041570Y023925D03*
X041565Y023925D03*
X041560Y023925D03*
X041555Y023925D03*
D171*
X041550Y023967D03*
X041545Y023967D03*
X041540Y023967D03*
X041535Y023967D03*
X041530Y023967D03*
X041525Y023967D03*
X041520Y023967D03*
X041515Y023967D03*
X041510Y023967D03*
D172*
X041505Y023617D03*
X041500Y023617D03*
X041495Y023617D03*
X041490Y023617D03*
X041090Y023992D03*
D173*
X041200Y024022D03*
D174*
X041195Y024025D03*
X041190Y024025D03*
X041185Y024025D03*
X041180Y024025D03*
D175*
X041175Y024022D03*
X041170Y024022D03*
X041165Y024022D03*
X041160Y024022D03*
D176*
X041110Y024365D03*
X041105Y024365D03*
X041100Y024365D03*
X041095Y024365D03*
X041140Y023575D03*
X041145Y023575D03*
X041150Y023575D03*
X041155Y023575D03*
D177*
X041085Y023562D03*
X041080Y023562D03*
X041075Y023562D03*
X041135Y024442D03*
D178*
X041085Y023705D03*
X041080Y023705D03*
X041075Y023705D03*
D179*
X041070Y024002D03*
X041075Y024002D03*
X041080Y024002D03*
X041085Y024002D03*
D180*
X041070Y023552D03*
D181*
X041005Y024087D03*
D182*
X041000Y024057D03*
X040995Y024057D03*
X040990Y024057D03*
X040985Y024057D03*
D183*
X040870Y023090D03*
D184*
X040830Y023090D03*
D185*
X040820Y024980D03*
X040815Y024980D03*
X040810Y024980D03*
X040805Y024980D03*
X040825Y024980D03*
D186*
X034395Y024936D02*
X034142Y024682D01*
X034395Y024429D01*
X033635Y024429D01*
X033635Y024936D02*
X034395Y024936D01*
X034395Y025220D02*
X034395Y025474D01*
X034395Y025347D02*
X033635Y025347D01*
X033635Y025220D02*
X033635Y025474D01*
X033635Y025748D02*
X033635Y026255D01*
X033761Y026255D01*
X034269Y025748D01*
X034395Y025748D01*
X034395Y026255D01*
X034269Y026540D02*
X034142Y026540D01*
X034015Y026667D01*
X034015Y026920D01*
X034142Y027047D01*
X034269Y027047D01*
X034395Y026920D01*
X034395Y026667D01*
X034269Y026540D01*
X034015Y026667D02*
X033888Y026540D01*
X033761Y026540D01*
X033635Y026667D01*
X033635Y026920D01*
X033761Y027047D01*
X033888Y027047D01*
X034015Y026920D01*
X033888Y027332D02*
X033635Y027586D01*
X034395Y027586D01*
X034395Y027839D02*
X034395Y027332D01*
X034395Y028124D02*
X034395Y028631D01*
X034395Y028377D02*
X033635Y028377D01*
X033888Y028124D01*
X033635Y028916D02*
X033888Y029169D01*
X033635Y029423D01*
X034395Y029423D01*
X034269Y029708D02*
X034395Y029834D01*
X034395Y029961D01*
X034269Y030088D01*
X033635Y030088D01*
X033635Y029961D02*
X033635Y030215D01*
X033635Y028916D02*
X034395Y028916D01*
D187*
X043548Y017220D02*
X043784Y017220D01*
X043981Y017220D02*
X044217Y017220D01*
X044414Y017220D02*
X044650Y017220D01*
X044847Y017220D02*
X045083Y017220D01*
X045280Y017220D02*
X046106Y017220D01*
X046067Y016374D02*
X044926Y016374D01*
X044768Y016374D02*
X044217Y016374D01*
X044059Y016374D02*
X043508Y016374D01*
X043508Y015626D02*
X044059Y015626D01*
X044217Y015626D02*
X044768Y015626D01*
X044926Y015626D02*
X046067Y015626D01*
X046106Y014779D02*
X045280Y014779D01*
X045083Y014779D02*
X044847Y014779D01*
X044650Y014779D02*
X044414Y014779D01*
X044217Y014779D02*
X043981Y014779D01*
X043784Y014779D02*
X043548Y014779D01*
X042963Y012901D02*
X042963Y010098D01*
X042408Y010098D02*
X042408Y012901D01*
X039963Y012901D02*
X039963Y010098D01*
X039963Y007401D02*
X039963Y004598D01*
X042408Y004598D02*
X042408Y007401D01*
X042963Y007401D02*
X042963Y004598D01*
X045408Y004598D02*
X045408Y007401D01*
X045408Y010098D02*
X045408Y012901D01*
X033087Y012722D02*
X030284Y012722D01*
X030284Y010277D02*
X033087Y010277D01*
X010628Y004917D02*
X009939Y007131D01*
X009742Y007082D02*
X010431Y004868D01*
X009132Y006502D02*
X009285Y006744D01*
X009493Y006941D01*
X009742Y007083D01*
X011238Y005498D02*
X011085Y005256D01*
X010877Y005059D01*
X010628Y004917D01*
X010432Y004868D02*
X010133Y004843D01*
X009838Y004896D01*
X009566Y005022D01*
X009336Y005214D01*
X009162Y005459D01*
X009939Y007132D02*
X010238Y007157D01*
X010533Y007104D01*
X010805Y006978D01*
X011035Y006786D01*
X011209Y006541D01*
X008675Y003280D02*
X008521Y003280D01*
X008445Y003203D01*
X008445Y003126D01*
X008521Y003050D01*
X008675Y003050D01*
X008752Y002973D01*
X008752Y002896D01*
X008675Y002820D01*
X008521Y002820D01*
X008445Y002896D01*
X008291Y002896D02*
X008215Y002820D01*
X008061Y002820D01*
X007984Y002896D01*
X007984Y003203D01*
X008061Y003280D01*
X008215Y003280D01*
X008291Y003203D01*
X008675Y003280D02*
X008752Y003203D01*
X007831Y002743D02*
X007524Y002743D01*
X007371Y002820D02*
X007217Y002820D01*
X007294Y002820D02*
X007294Y003280D01*
X007217Y003280D02*
X007371Y003280D01*
X007064Y003203D02*
X007064Y003050D01*
X006987Y002973D01*
X006757Y002973D01*
X006757Y002820D02*
X006757Y003280D01*
X006987Y003280D01*
X007064Y003203D01*
X006603Y003203D02*
X006527Y003280D01*
X006373Y003280D01*
X006296Y003203D01*
X006296Y003126D01*
X006373Y003050D01*
X006527Y003050D01*
X006603Y002973D01*
X006603Y002896D01*
X006527Y002820D01*
X006373Y002820D01*
X006296Y002896D01*
D188*
X006185Y003500D02*
X005935Y003750D01*
X005685Y003500D01*
X005185Y003500D01*
X004935Y003750D01*
X004685Y003500D01*
X004185Y003500D01*
X003935Y003750D01*
X003685Y003500D01*
X003185Y003500D01*
X002935Y003750D01*
X002685Y003500D01*
X002185Y003500D01*
X001935Y003750D01*
X001935Y004250D01*
X002185Y004500D01*
X002685Y004500D01*
X002935Y004250D01*
X003185Y004500D01*
X003685Y004500D01*
X003935Y004250D01*
X004185Y004500D01*
X004685Y004500D01*
X004935Y004250D01*
X005185Y004500D01*
X005685Y004500D01*
X005935Y004250D01*
X006185Y004500D01*
X006685Y004500D01*
X006935Y004250D01*
X006935Y003750D01*
X006685Y003500D01*
X006185Y003500D01*
X005237Y003196D02*
X005237Y003050D01*
X005163Y002976D01*
X004943Y002976D01*
X004943Y002830D02*
X004943Y003270D01*
X005163Y003270D01*
X005237Y003196D01*
X004776Y003196D02*
X004703Y003270D01*
X004556Y003270D01*
X004483Y003196D01*
X004483Y003123D01*
X004556Y003050D01*
X004703Y003050D01*
X004776Y002976D01*
X004776Y002903D01*
X004703Y002830D01*
X004556Y002830D01*
X004483Y002903D01*
X004316Y002903D02*
X004242Y002830D01*
X004096Y002830D01*
X004022Y002903D01*
X004022Y003196D01*
X004096Y003270D01*
X004242Y003270D01*
X004316Y003196D01*
X003862Y003270D02*
X003715Y003270D01*
X003789Y003270D02*
X003789Y002830D01*
X003862Y002830D02*
X003715Y002830D01*
X006189Y006630D02*
X006115Y006703D01*
X006189Y006630D02*
X006336Y006630D01*
X006409Y006703D01*
X006409Y006776D01*
X006336Y006850D01*
X006262Y006850D01*
X006336Y006850D02*
X006409Y006923D01*
X006409Y006996D01*
X006336Y007070D01*
X006189Y007070D01*
X006115Y006996D01*
X006576Y007070D02*
X006576Y006776D01*
X006722Y006630D01*
X006869Y006776D01*
X006869Y007070D01*
X007036Y006996D02*
X007109Y007070D01*
X007256Y007070D01*
X007330Y006996D01*
X007330Y006923D01*
X007256Y006850D01*
X007330Y006776D01*
X007330Y006703D01*
X007256Y006630D01*
X007109Y006630D01*
X007036Y006703D01*
X007183Y006850D02*
X007256Y006850D01*
X013373Y007843D02*
X013447Y007770D01*
X013594Y007770D01*
X013667Y007843D01*
X013834Y007990D02*
X014054Y008210D01*
X014054Y007770D01*
X014127Y007990D02*
X013834Y007990D01*
X013667Y008137D02*
X013594Y008210D01*
X013447Y008210D01*
X013373Y008137D01*
X013373Y007843D01*
X018329Y005941D02*
X018329Y005648D01*
X018770Y005648D01*
X018770Y005481D02*
X018476Y005481D01*
X018549Y005648D02*
X018549Y005795D01*
X018770Y005481D02*
X018770Y005261D01*
X018696Y005187D01*
X018476Y005187D01*
X018403Y005021D02*
X018696Y004727D01*
X018770Y004800D01*
X018770Y004947D01*
X018696Y005021D01*
X018403Y005021D01*
X018329Y004947D01*
X018329Y004800D01*
X018403Y004727D01*
X018696Y004727D01*
X018696Y004560D02*
X018770Y004487D01*
X018770Y004340D01*
X018696Y004267D01*
X018696Y004100D02*
X018770Y004026D01*
X018770Y003880D01*
X018696Y003806D01*
X018549Y003953D02*
X018549Y004026D01*
X018623Y004100D01*
X018696Y004100D01*
X018549Y004026D02*
X018476Y004100D01*
X018403Y004100D01*
X018329Y004026D01*
X018329Y003880D01*
X018403Y003806D01*
X018403Y004267D02*
X018329Y004340D01*
X018329Y004487D01*
X018403Y004560D01*
X018476Y004560D01*
X018549Y004487D01*
X018623Y004560D01*
X018696Y004560D01*
X018549Y004487D02*
X018549Y004413D01*
X019418Y007780D02*
X019565Y007780D01*
X019638Y007853D01*
X019805Y007853D02*
X019878Y007780D01*
X020025Y007780D01*
X020099Y007853D01*
X020099Y007926D01*
X020025Y008000D01*
X019952Y008000D01*
X020025Y008000D02*
X020099Y008073D01*
X020099Y008146D01*
X020025Y008220D01*
X019878Y008220D01*
X019805Y008146D01*
X019638Y008146D02*
X019565Y008220D01*
X019418Y008220D01*
X019345Y008146D01*
X019345Y007853D01*
X019418Y007780D01*
X024315Y005913D02*
X024315Y005619D01*
X024755Y005619D01*
X024755Y005452D02*
X024462Y005452D01*
X024535Y005619D02*
X024535Y005766D01*
X024755Y005452D02*
X024755Y005232D01*
X024682Y005159D01*
X024462Y005159D01*
X024388Y004992D02*
X024682Y004698D01*
X024755Y004772D01*
X024755Y004918D01*
X024682Y004992D01*
X024388Y004992D01*
X024315Y004918D01*
X024315Y004772D01*
X024388Y004698D01*
X024682Y004698D01*
X024682Y004532D02*
X024755Y004458D01*
X024755Y004311D01*
X024682Y004238D01*
X024682Y004071D02*
X024755Y003998D01*
X024755Y003851D01*
X024682Y003778D01*
X024535Y003924D02*
X024535Y003998D01*
X024609Y004071D01*
X024682Y004071D01*
X024535Y003998D02*
X024462Y004071D01*
X024388Y004071D01*
X024315Y003998D01*
X024315Y003851D01*
X024388Y003778D01*
X024388Y004238D02*
X024315Y004311D01*
X024315Y004458D01*
X024388Y004532D01*
X024462Y004532D01*
X024535Y004458D01*
X024609Y004532D01*
X024682Y004532D01*
X024535Y004458D02*
X024535Y004385D01*
X025585Y006000D02*
X025624Y006323D01*
X025740Y006627D01*
X025925Y006895D01*
X026168Y007111D01*
X026456Y007262D01*
X026772Y007340D01*
X027098Y007340D01*
X027414Y007262D01*
X027702Y007111D01*
X027945Y006895D01*
X028130Y006627D01*
X028246Y006323D01*
X028285Y006000D01*
X028246Y005677D01*
X028130Y005373D01*
X027945Y005105D01*
X027702Y004889D01*
X027414Y004738D01*
X027098Y004660D01*
X026772Y004660D01*
X026456Y004738D01*
X026168Y004889D01*
X025925Y005105D01*
X025740Y005373D01*
X025624Y005677D01*
X025585Y006000D01*
X029515Y003770D02*
X029515Y003330D01*
X029809Y003330D01*
X029976Y003330D02*
X029976Y003770D01*
X030122Y003623D01*
X030269Y003770D01*
X030269Y003330D01*
X030436Y003330D02*
X030730Y003623D01*
X030730Y003696D01*
X030656Y003770D01*
X030509Y003770D01*
X030436Y003696D01*
X030436Y003330D02*
X030730Y003330D01*
X030896Y003403D02*
X030970Y003330D01*
X031117Y003330D01*
X031190Y003403D01*
X031190Y003550D01*
X031117Y003623D01*
X031043Y003623D01*
X030896Y003550D01*
X030896Y003770D01*
X031190Y003770D01*
X031357Y003770D02*
X031650Y003770D01*
X031650Y003696D01*
X031357Y003403D01*
X031357Y003330D01*
X031817Y003403D02*
X031891Y003330D01*
X032037Y003330D01*
X032111Y003403D01*
X032111Y003476D01*
X032037Y003550D01*
X031817Y003550D01*
X031817Y003403D01*
X031817Y003550D02*
X031964Y003696D01*
X032111Y003770D01*
X032277Y003696D02*
X032277Y003623D01*
X032351Y003550D01*
X032498Y003550D01*
X032571Y003476D01*
X032571Y003403D01*
X032498Y003330D01*
X032351Y003330D01*
X032277Y003403D01*
X032277Y003696D02*
X032351Y003770D01*
X032498Y003770D01*
X032571Y003696D01*
X034915Y003696D02*
X034989Y003770D01*
X035136Y003770D01*
X035209Y003696D01*
X035209Y003623D01*
X035136Y003550D01*
X035209Y003476D01*
X035209Y003403D01*
X035136Y003330D01*
X034989Y003330D01*
X034915Y003403D01*
X035062Y003550D02*
X035136Y003550D01*
X035376Y003696D02*
X035449Y003770D01*
X035596Y003770D01*
X035669Y003696D01*
X035669Y003623D01*
X035596Y003550D01*
X035669Y003476D01*
X035669Y003403D01*
X035596Y003330D01*
X035449Y003330D01*
X035376Y003403D01*
X035522Y003550D02*
X035596Y003550D01*
X035836Y003696D02*
X035836Y003403D01*
X036130Y003696D01*
X036130Y003403D01*
X036056Y003330D01*
X035909Y003330D01*
X035836Y003403D01*
X035836Y003696D02*
X035909Y003770D01*
X036056Y003770D01*
X036130Y003696D01*
X036296Y003623D02*
X036296Y003403D01*
X036370Y003330D01*
X036590Y003330D01*
X036590Y003623D01*
X036757Y003550D02*
X036904Y003550D01*
X036757Y003770D02*
X037050Y003770D01*
X036757Y003770D02*
X036757Y003330D01*
X040473Y003102D02*
X040473Y003542D01*
X040620Y003396D01*
X040767Y003542D01*
X040767Y003102D01*
X040934Y003102D02*
X040934Y003542D01*
X041154Y003542D01*
X041227Y003469D01*
X041227Y003396D01*
X041154Y003322D01*
X040934Y003322D01*
X041154Y003322D02*
X041227Y003249D01*
X041227Y003175D01*
X041154Y003102D01*
X040934Y003102D01*
X041394Y003102D02*
X041394Y003542D01*
X041614Y003542D01*
X041688Y003469D01*
X041688Y003322D01*
X041614Y003249D01*
X041394Y003249D01*
X041541Y003249D02*
X041688Y003102D01*
X041854Y003175D02*
X041928Y003102D01*
X042074Y003102D01*
X042148Y003175D01*
X042148Y003249D01*
X042074Y003322D01*
X041928Y003322D01*
X041854Y003396D01*
X041854Y003469D01*
X041928Y003542D01*
X042074Y003542D01*
X042148Y003469D01*
X042315Y003469D02*
X042388Y003542D01*
X042535Y003542D01*
X042608Y003469D01*
X042608Y003396D01*
X042535Y003322D01*
X042608Y003249D01*
X042608Y003175D01*
X042535Y003102D01*
X042388Y003102D01*
X042315Y003175D01*
X042461Y003322D02*
X042535Y003322D01*
X042775Y003322D02*
X043069Y003322D01*
X043235Y003175D02*
X043235Y003469D01*
X043309Y003542D01*
X043456Y003542D01*
X043529Y003469D01*
X043235Y003175D01*
X043309Y003102D01*
X043456Y003102D01*
X043529Y003175D01*
X043529Y003469D01*
X043696Y003542D02*
X043989Y003542D01*
X043843Y003542D02*
X043843Y003102D01*
X044156Y003175D02*
X044229Y003102D01*
X044376Y003102D01*
X044450Y003175D01*
X044450Y003249D01*
X044376Y003322D01*
X044303Y003322D01*
X044376Y003322D02*
X044450Y003396D01*
X044450Y003469D01*
X044376Y003542D01*
X044229Y003542D01*
X044156Y003469D01*
X044616Y003469D02*
X044616Y003175D01*
X044690Y003102D01*
X044837Y003102D01*
X044910Y003175D01*
X044910Y003322D01*
X044763Y003322D01*
X044616Y003469D02*
X044690Y003542D01*
X044837Y003542D01*
X044910Y003469D01*
X042995Y003542D02*
X042995Y003102D01*
X042775Y003322D02*
X042995Y003542D01*
X043854Y008352D02*
X044074Y008352D01*
X044147Y008425D01*
X044147Y008719D01*
X044074Y008792D01*
X043854Y008792D01*
X043854Y008352D01*
X044314Y008352D02*
X044607Y008646D01*
X044607Y008719D01*
X044534Y008792D01*
X044387Y008792D01*
X044314Y008719D01*
X044314Y008352D02*
X044607Y008352D01*
X041560Y008527D02*
X041267Y008527D01*
X041487Y008747D01*
X041487Y008307D01*
X041100Y008380D02*
X041100Y008674D01*
X041027Y008747D01*
X040806Y008747D01*
X040806Y008307D01*
X041027Y008307D01*
X041100Y008380D01*
X039919Y008396D02*
X039919Y008323D01*
X039626Y008030D01*
X039919Y008030D01*
X039919Y008396D02*
X039846Y008470D01*
X039699Y008470D01*
X039626Y008396D01*
X039459Y008396D02*
X039386Y008470D01*
X039239Y008470D01*
X039165Y008396D01*
X039165Y008103D01*
X039239Y008030D01*
X039386Y008030D01*
X039459Y008103D01*
X037022Y009084D02*
X036728Y009084D01*
X036728Y008644D01*
X036561Y008644D02*
X036561Y008937D01*
X036728Y008864D02*
X036875Y008864D01*
X036561Y008644D02*
X036341Y008644D01*
X036268Y008717D01*
X036268Y008937D01*
X036101Y009011D02*
X035807Y008717D01*
X035881Y008644D01*
X036027Y008644D01*
X036101Y008717D01*
X036101Y009011D01*
X036027Y009084D01*
X035881Y009084D01*
X035807Y009011D01*
X035807Y008717D01*
X035641Y008717D02*
X035567Y008644D01*
X035420Y008644D01*
X035347Y008717D01*
X035180Y008717D02*
X035107Y008644D01*
X034960Y008644D01*
X034887Y008717D01*
X035033Y008864D02*
X035107Y008864D01*
X035180Y008790D01*
X035180Y008717D01*
X035107Y008864D02*
X035180Y008937D01*
X035180Y009011D01*
X035107Y009084D01*
X034960Y009084D01*
X034887Y009011D01*
X035347Y009011D02*
X035420Y009084D01*
X035567Y009084D01*
X035641Y009011D01*
X035641Y008937D01*
X035567Y008864D01*
X035641Y008790D01*
X035641Y008717D01*
X035567Y008864D02*
X035494Y008864D01*
X033353Y013030D02*
X033059Y013030D01*
X033353Y013323D01*
X033353Y013396D01*
X033279Y013470D01*
X033133Y013470D01*
X033059Y013396D01*
X032896Y013323D02*
X032676Y013176D01*
X032896Y013030D01*
X032676Y013030D02*
X032676Y013470D01*
X032362Y013470D02*
X032362Y013030D01*
X032215Y013030D02*
X032509Y013030D01*
X032215Y013323D02*
X032362Y013470D01*
X032215Y014530D02*
X032215Y014970D01*
X032436Y014970D01*
X032509Y014896D01*
X032509Y014750D01*
X032436Y014676D01*
X032215Y014676D01*
X032362Y014676D02*
X032509Y014530D01*
X032676Y014530D02*
X032969Y014823D01*
X032969Y014896D01*
X032896Y014970D01*
X032749Y014970D01*
X032676Y014896D01*
X032676Y014530D02*
X032969Y014530D01*
X030549Y014530D02*
X030255Y014530D01*
X030402Y014530D02*
X030402Y014970D01*
X030255Y014823D01*
X030088Y014896D02*
X030088Y014750D01*
X030015Y014676D01*
X029795Y014676D01*
X029941Y014676D02*
X030088Y014530D01*
X029795Y014530D02*
X029795Y014970D01*
X030015Y014970D01*
X030088Y014896D01*
X030127Y015330D02*
X030127Y015770D01*
X029961Y015696D02*
X029887Y015770D01*
X029741Y015770D01*
X029667Y015696D01*
X029667Y015403D01*
X029741Y015330D01*
X029887Y015330D01*
X029961Y015403D01*
X030127Y015476D02*
X030421Y015770D01*
X030201Y015550D02*
X030421Y015330D01*
X029500Y015403D02*
X029500Y015696D01*
X029427Y015770D01*
X029280Y015770D01*
X029207Y015696D01*
X029207Y015403D01*
X029280Y015330D01*
X029427Y015330D01*
X029500Y015403D01*
X029040Y015330D02*
X028746Y015330D01*
X028746Y015770D01*
X028580Y015696D02*
X028506Y015770D01*
X028359Y015770D01*
X028286Y015696D01*
X028286Y015403D01*
X028359Y015330D01*
X028506Y015330D01*
X028580Y015403D01*
X028119Y015256D02*
X027826Y015256D01*
X027659Y015403D02*
X027586Y015330D01*
X027439Y015330D01*
X027365Y015403D01*
X027439Y015550D02*
X027586Y015550D01*
X027659Y015476D01*
X027659Y015403D01*
X027439Y015550D02*
X027365Y015623D01*
X027365Y015696D01*
X027439Y015770D01*
X027586Y015770D01*
X027659Y015696D01*
X027185Y015750D02*
X027185Y015250D01*
X026935Y015000D01*
X027185Y014750D01*
X027185Y014250D01*
X026935Y014000D01*
X027185Y013750D01*
X027185Y013250D01*
X026935Y013000D01*
X025435Y013000D01*
X025185Y013250D01*
X025185Y013750D01*
X025435Y014000D01*
X025185Y014250D01*
X025185Y014750D01*
X025435Y015000D01*
X025185Y015250D01*
X025185Y015750D01*
X025435Y016000D01*
X025185Y016250D01*
X025185Y016750D01*
X025435Y017000D01*
X025185Y017250D01*
X025185Y017750D01*
X025435Y018000D01*
X026935Y018000D01*
X027185Y017750D01*
X027185Y017250D01*
X026935Y017000D01*
X027185Y016750D01*
X027185Y016250D01*
X026935Y016000D01*
X027185Y015750D01*
X027365Y016330D02*
X027586Y016330D01*
X027659Y016403D01*
X027659Y016696D01*
X027586Y016770D01*
X027365Y016770D01*
X027365Y016330D01*
X027826Y016330D02*
X027826Y016623D01*
X027972Y016770D01*
X028119Y016623D01*
X028119Y016330D01*
X028119Y016550D02*
X027826Y016550D01*
X028286Y016770D02*
X028580Y016770D01*
X028433Y016770D02*
X028433Y016330D01*
X028746Y016330D02*
X028746Y016623D01*
X028893Y016770D01*
X029040Y016623D01*
X029040Y016330D01*
X029040Y016550D02*
X028746Y016550D01*
X028796Y014720D02*
X028943Y014720D01*
X028870Y014720D02*
X028870Y014280D01*
X028943Y014280D02*
X028796Y014280D01*
X028630Y014353D02*
X028556Y014280D01*
X028409Y014280D01*
X028336Y014353D01*
X028409Y014500D02*
X028556Y014500D01*
X028630Y014426D01*
X028630Y014353D01*
X028409Y014500D02*
X028336Y014573D01*
X028336Y014646D01*
X028409Y014720D01*
X028556Y014720D01*
X028630Y014646D01*
X028169Y014646D02*
X028169Y014353D01*
X028096Y014280D01*
X027949Y014280D01*
X027876Y014353D01*
X027876Y014646D01*
X027949Y014720D01*
X028096Y014720D01*
X028169Y014646D01*
X027709Y014720D02*
X027709Y014280D01*
X027415Y014280D02*
X027415Y014720D01*
X027562Y014573D01*
X027709Y014720D01*
X027594Y013720D02*
X027447Y013720D01*
X027374Y013646D01*
X027374Y013573D01*
X027447Y013500D01*
X027594Y013500D01*
X027667Y013426D01*
X027667Y013353D01*
X027594Y013280D01*
X027447Y013280D01*
X027374Y013353D01*
X027667Y013646D02*
X027594Y013720D01*
X027834Y013646D02*
X027834Y013353D01*
X027908Y013280D01*
X028054Y013280D01*
X028128Y013353D01*
X028295Y013280D02*
X028588Y013280D01*
X028755Y013280D02*
X028755Y013720D01*
X028828Y013500D02*
X029048Y013280D01*
X028755Y013426D02*
X029048Y013720D01*
X029871Y013396D02*
X029945Y013470D01*
X030091Y013470D01*
X030165Y013396D01*
X030165Y013323D01*
X029871Y013030D01*
X030165Y013030D01*
X030332Y013030D02*
X030332Y013470D01*
X030552Y013323D02*
X030332Y013176D01*
X030552Y013030D01*
X029278Y011801D02*
X029278Y011654D01*
X029204Y011581D01*
X029058Y011581D02*
X028984Y011728D01*
X028984Y011801D01*
X029058Y011875D01*
X029204Y011875D01*
X029278Y011801D01*
X029058Y011581D02*
X028837Y011581D01*
X028837Y011875D01*
X028911Y011414D02*
X028837Y011341D01*
X028837Y011121D01*
X029278Y011121D01*
X029278Y011341D01*
X029204Y011414D01*
X028911Y011414D01*
X029955Y009640D02*
X029955Y009347D01*
X029955Y009494D02*
X029515Y009494D01*
X029662Y009347D01*
X029588Y009180D02*
X029515Y009107D01*
X029515Y008960D01*
X029588Y008886D01*
X029882Y008886D01*
X029955Y008960D01*
X029955Y009107D01*
X029882Y009180D01*
X029955Y008726D02*
X029955Y008580D01*
X029955Y008653D02*
X029515Y008653D01*
X029515Y008580D02*
X029515Y008726D01*
X028295Y013280D02*
X028295Y013720D01*
X028128Y013646D02*
X028054Y013720D01*
X027908Y013720D01*
X027834Y013646D01*
X024937Y013646D02*
X024937Y013353D01*
X024863Y013280D01*
X024716Y013280D01*
X024643Y013353D01*
X024643Y013646D01*
X024716Y013720D01*
X024863Y013720D01*
X024937Y013646D01*
X024476Y013646D02*
X024403Y013720D01*
X024256Y013720D01*
X024183Y013646D01*
X024183Y013573D01*
X024256Y013500D01*
X024403Y013500D01*
X024476Y013426D01*
X024476Y013353D01*
X024403Y013280D01*
X024256Y013280D01*
X024183Y013353D01*
X024022Y013280D02*
X023876Y013280D01*
X023949Y013280D02*
X023949Y013720D01*
X023876Y013720D02*
X024022Y013720D01*
X023709Y013720D02*
X023709Y013280D01*
X023415Y013280D02*
X023415Y013720D01*
X023562Y013573D01*
X023709Y013720D01*
X029185Y021000D02*
X030685Y021000D01*
X030935Y021250D01*
X030935Y021750D01*
X030685Y022000D01*
X030935Y022250D01*
X030935Y022750D01*
X030685Y023000D01*
X030935Y023250D01*
X030935Y023750D01*
X030685Y024000D01*
X030935Y024250D01*
X030935Y024750D01*
X030685Y025000D01*
X030935Y025250D01*
X030935Y025750D01*
X030685Y026000D01*
X030935Y026250D01*
X030935Y026750D01*
X030685Y027000D01*
X030935Y027250D01*
X030935Y027750D01*
X030685Y028000D01*
X030935Y028250D01*
X030935Y028750D01*
X030685Y029000D01*
X030935Y029250D01*
X030935Y029750D01*
X030685Y030000D01*
X030935Y030250D01*
X030935Y030750D01*
X030685Y031000D01*
X029185Y031000D01*
X028935Y030750D01*
X028935Y030250D01*
X029185Y030000D01*
X028935Y029750D01*
X028935Y029250D01*
X029185Y029000D01*
X028935Y028750D01*
X028935Y028250D01*
X029185Y028000D01*
X028935Y027750D01*
X028935Y027250D01*
X029185Y027000D01*
X028935Y026750D01*
X028935Y026250D01*
X029185Y026000D01*
X028935Y025750D01*
X028935Y025250D01*
X029185Y025000D01*
X028935Y024750D01*
X028935Y024250D01*
X029185Y024000D01*
X028935Y023750D01*
X028935Y023250D01*
X029185Y023000D01*
X028935Y022750D01*
X028935Y022250D01*
X029185Y022000D01*
X028935Y021750D01*
X028935Y021250D01*
X029185Y021000D01*
X031515Y023230D02*
X031809Y023230D01*
X031662Y023230D02*
X031662Y023670D01*
X031515Y023523D01*
X031976Y023596D02*
X032049Y023670D01*
X032196Y023670D01*
X032269Y023596D01*
X031976Y023303D01*
X032049Y023230D01*
X032196Y023230D01*
X032269Y023303D01*
X032269Y023596D01*
X032436Y023596D02*
X032509Y023670D01*
X032656Y023670D01*
X032730Y023596D01*
X032436Y023303D01*
X032509Y023230D01*
X032656Y023230D01*
X032730Y023303D01*
X032730Y023596D01*
X032896Y023523D02*
X033117Y023523D01*
X033190Y023450D01*
X033190Y023230D01*
X033357Y023230D02*
X033357Y023670D01*
X033650Y023670D01*
X033504Y023450D02*
X033357Y023450D01*
X032896Y023523D02*
X032896Y023230D01*
X032436Y023303D02*
X032436Y023596D01*
X031976Y023596D02*
X031976Y023303D01*
X032049Y026080D02*
X031976Y026153D01*
X032049Y026080D02*
X032196Y026080D01*
X032269Y026153D01*
X032269Y026300D01*
X032196Y026373D01*
X032122Y026373D01*
X031976Y026300D01*
X031976Y026520D01*
X032269Y026520D01*
X031809Y026446D02*
X031736Y026520D01*
X031589Y026520D01*
X031515Y026446D01*
X031515Y026153D01*
X031589Y026080D01*
X031736Y026080D01*
X031809Y026153D01*
X028749Y025596D02*
X028749Y025303D01*
X028675Y025230D01*
X028455Y025230D01*
X028455Y025670D01*
X028675Y025670D01*
X028749Y025596D01*
X028288Y025670D02*
X028288Y025230D01*
X027995Y025670D01*
X027995Y025230D01*
X027828Y025303D02*
X027828Y025450D01*
X027681Y025450D01*
X027534Y025596D02*
X027534Y025303D01*
X027608Y025230D01*
X027754Y025230D01*
X027828Y025303D01*
X027828Y025596D02*
X027754Y025670D01*
X027608Y025670D01*
X027534Y025596D01*
X029215Y031180D02*
X029362Y031326D01*
X029215Y031473D01*
X029655Y031473D01*
X029582Y031640D02*
X029288Y031640D01*
X029215Y031713D01*
X029215Y031860D01*
X029288Y031933D01*
X029582Y031933D01*
X029655Y031860D01*
X029655Y031713D01*
X029582Y031640D01*
X029582Y032100D02*
X029655Y032174D01*
X029655Y032320D01*
X029582Y032394D01*
X029509Y032394D01*
X029435Y032320D01*
X029435Y032174D01*
X029362Y032100D01*
X029288Y032100D01*
X029215Y032174D01*
X029215Y032320D01*
X029288Y032394D01*
X029215Y032561D02*
X029215Y032707D01*
X029215Y032634D02*
X029655Y032634D01*
X029655Y032561D02*
X029655Y032707D01*
X030215Y032627D02*
X030288Y032701D01*
X030582Y032701D01*
X030655Y032627D01*
X030655Y032481D01*
X030582Y032407D01*
X030288Y032407D01*
X030215Y032481D01*
X030215Y032627D01*
X030288Y032240D02*
X030215Y032167D01*
X030215Y032020D01*
X030288Y031947D01*
X030362Y031947D01*
X030435Y032020D01*
X030435Y032167D01*
X030509Y032240D01*
X030582Y032240D01*
X030655Y032167D01*
X030655Y032020D01*
X030582Y031947D01*
X030655Y031787D02*
X030655Y031640D01*
X030655Y031713D02*
X030215Y031713D01*
X030215Y031640D02*
X030215Y031787D01*
X030215Y031473D02*
X030655Y031473D01*
X030655Y031180D02*
X030215Y031180D01*
X030362Y031326D01*
X030215Y031473D01*
X029655Y031180D02*
X029215Y031180D01*
X034884Y030546D02*
X034958Y030620D01*
X035104Y030620D01*
X035178Y030546D01*
X035178Y030473D01*
X035104Y030400D01*
X035178Y030326D01*
X035178Y030253D01*
X035104Y030180D01*
X034958Y030180D01*
X034884Y030253D01*
X035031Y030400D02*
X035104Y030400D01*
X035345Y030326D02*
X035345Y030620D01*
X035638Y030620D02*
X035638Y030326D01*
X035491Y030180D01*
X035345Y030326D01*
X035805Y030253D02*
X035878Y030180D01*
X036025Y030180D01*
X036099Y030253D01*
X036099Y030326D01*
X036025Y030400D01*
X035952Y030400D01*
X036025Y030400D02*
X036099Y030473D01*
X036099Y030546D01*
X036025Y030620D01*
X035878Y030620D01*
X035805Y030546D01*
X035786Y029720D02*
X035639Y029720D01*
X035565Y029646D01*
X035565Y029353D01*
X035639Y029280D01*
X035786Y029280D01*
X035859Y029353D01*
X036026Y029280D02*
X036026Y029720D01*
X035859Y029646D02*
X035786Y029720D01*
X036026Y029280D02*
X036319Y029280D01*
X036486Y029280D02*
X036486Y029720D01*
X036559Y029500D02*
X036780Y029280D01*
X036935Y029250D02*
X037185Y029000D01*
X036935Y028750D01*
X036935Y028250D01*
X037185Y028000D01*
X036935Y027750D01*
X036935Y027250D01*
X037185Y027000D01*
X036935Y026750D01*
X036935Y026250D01*
X037185Y026000D01*
X036935Y025750D01*
X036935Y025250D01*
X037185Y025000D01*
X036935Y024750D01*
X036935Y024250D01*
X037185Y024000D01*
X036935Y023750D01*
X036935Y023250D01*
X037185Y023000D01*
X036935Y022750D01*
X036935Y022250D01*
X037185Y022000D01*
X036935Y021750D01*
X036935Y021250D01*
X037185Y021000D01*
X038685Y021000D01*
X038935Y021250D01*
X038935Y021750D01*
X038685Y022000D01*
X038935Y022250D01*
X038935Y022750D01*
X038685Y023000D01*
X038935Y023250D01*
X038935Y023750D01*
X038685Y024000D01*
X038935Y024250D01*
X038935Y024750D01*
X038685Y025000D01*
X038935Y025250D01*
X038935Y025750D01*
X038685Y026000D01*
X038935Y026250D01*
X038935Y026750D01*
X038685Y027000D01*
X038935Y027250D01*
X038935Y027750D01*
X038685Y028000D01*
X038935Y028250D01*
X038935Y028750D01*
X038685Y029000D01*
X038935Y029250D01*
X038935Y029750D01*
X038685Y030000D01*
X038935Y030250D01*
X038935Y030750D01*
X038685Y031000D01*
X037185Y031000D01*
X036935Y030750D01*
X036935Y030250D01*
X037185Y030000D01*
X036935Y029750D01*
X036935Y029250D01*
X036486Y029426D02*
X036780Y029720D01*
X039115Y030230D02*
X039115Y030450D01*
X039188Y030523D01*
X039335Y030523D01*
X039409Y030450D01*
X039409Y030230D01*
X039409Y030376D02*
X039555Y030523D01*
X039555Y030690D02*
X039555Y030983D01*
X039482Y031150D02*
X039555Y031224D01*
X039555Y031370D01*
X039482Y031444D01*
X039409Y031444D01*
X039335Y031370D01*
X039335Y031224D01*
X039262Y031150D01*
X039188Y031150D01*
X039115Y031224D01*
X039115Y031370D01*
X039188Y031444D01*
X039115Y030983D02*
X039115Y030690D01*
X039555Y030690D01*
X039335Y030690D02*
X039335Y030837D01*
X040545Y030390D02*
X040675Y030606D01*
X040745Y030849D01*
X040749Y031101D01*
X040687Y031346D01*
X040563Y031566D01*
X040577Y031548D02*
X040493Y031612D01*
X040390Y031639D01*
X040286Y031624D01*
X040195Y031570D01*
X040235Y031580D02*
X040485Y030380D01*
X040435Y030330D02*
X040185Y031530D01*
X039835Y031770D02*
X039835Y030170D01*
X040835Y030170D01*
X040835Y031770D01*
X039835Y031770D01*
X039835Y032170D02*
X039835Y033770D01*
X040835Y033770D01*
X040835Y032170D01*
X039835Y032170D01*
X040435Y032330D02*
X040185Y033530D01*
X040235Y033580D02*
X040485Y032380D01*
X040559Y032407D02*
X040488Y032329D01*
X040391Y032290D01*
X040286Y032297D01*
X040195Y032350D01*
X040545Y032390D02*
X040675Y032606D01*
X040745Y032849D01*
X040749Y033101D01*
X040687Y033346D01*
X040563Y033566D01*
X040577Y033548D02*
X040493Y033612D01*
X040390Y033639D01*
X040286Y033624D01*
X040195Y033570D01*
X039735Y033970D02*
X039735Y030000D01*
X040935Y030000D01*
X040935Y033970D01*
X041535Y033970D01*
X041935Y033970D01*
X041935Y033570D01*
X042085Y033570D02*
X042085Y033770D01*
X043885Y033770D01*
X044635Y033770D01*
X044635Y033970D01*
X044235Y033970D01*
X043785Y033970D01*
X041935Y033970D01*
X041935Y034000D02*
X041935Y034360D01*
X042085Y034360D02*
X042085Y034210D01*
X043885Y034210D01*
X044635Y034210D01*
X044635Y035810D01*
X044635Y036180D01*
X044635Y037780D01*
X043885Y037780D01*
X043885Y036180D01*
X042085Y036180D01*
X042085Y036330D01*
X041935Y036330D02*
X041935Y035660D01*
X042085Y035660D02*
X042085Y035810D01*
X043885Y035810D01*
X043885Y034210D01*
X043685Y034170D02*
X043785Y033970D01*
X043685Y034170D02*
X044335Y034170D01*
X044235Y033970D01*
X044635Y034000D02*
X041935Y034000D01*
X040935Y034000D01*
X039735Y034000D01*
X039735Y038000D01*
X039735Y038200D01*
X041635Y038200D01*
X041535Y038000D01*
X040935Y038000D01*
X040935Y034000D01*
X040935Y033970D02*
X039735Y033970D01*
X039735Y034170D01*
X041635Y034170D01*
X041535Y033970D01*
X040835Y034210D02*
X039835Y034210D01*
X039835Y035810D01*
X040835Y035810D01*
X040835Y034210D01*
X040485Y034420D02*
X040235Y035620D01*
X040185Y035570D02*
X040435Y034370D01*
X040559Y034447D02*
X040488Y034369D01*
X040391Y034330D01*
X040286Y034337D01*
X040195Y034390D01*
X040545Y034430D02*
X040676Y034646D01*
X040746Y034889D01*
X040750Y035141D01*
X040688Y035386D01*
X040564Y035607D01*
X040577Y035588D02*
X040493Y035652D01*
X040390Y035679D01*
X040286Y035664D01*
X040195Y035610D01*
X039835Y036180D02*
X039835Y037780D01*
X040835Y037780D01*
X040835Y036180D01*
X039835Y036180D01*
X040435Y036340D02*
X040185Y037540D01*
X040235Y037590D02*
X040485Y036390D01*
X040559Y036417D02*
X040488Y036339D01*
X040391Y036300D01*
X040286Y036307D01*
X040195Y036360D01*
X040545Y036400D02*
X040675Y036616D01*
X040745Y036859D01*
X040749Y037111D01*
X040687Y037356D01*
X040563Y037576D01*
X040577Y037558D02*
X040493Y037622D01*
X040390Y037649D01*
X040286Y037634D01*
X040195Y037580D01*
X039735Y038000D02*
X040935Y038000D01*
X041535Y038000D02*
X041935Y038000D01*
X041935Y037630D01*
X042085Y037630D02*
X042085Y037780D01*
X043885Y037780D01*
X043785Y038000D02*
X043685Y038200D01*
X044335Y038200D01*
X044235Y038000D01*
X043785Y038000D01*
X041935Y038000D01*
X042385Y037630D02*
X043635Y037630D01*
X043635Y036330D01*
X042385Y036330D01*
X042385Y035660D02*
X043635Y035660D01*
X043635Y034360D01*
X042385Y034360D01*
X042385Y033620D02*
X043635Y033620D01*
X043635Y032320D01*
X042385Y032320D01*
X042085Y032320D02*
X042085Y032170D01*
X043885Y032170D01*
X043885Y033770D01*
X044635Y033770D02*
X044635Y032170D01*
X044635Y031770D01*
X044635Y030170D01*
X044635Y030000D01*
X041935Y030000D01*
X041935Y029630D01*
X042085Y029630D02*
X042085Y029830D01*
X043885Y029830D01*
X044635Y029830D01*
X044635Y030000D01*
X044635Y030170D02*
X043885Y030170D01*
X043885Y031770D01*
X042085Y031770D01*
X042085Y031620D01*
X041935Y031620D02*
X041935Y032320D01*
X042385Y031620D02*
X043635Y031620D01*
X043635Y030320D01*
X042385Y030320D01*
X042085Y030370D02*
X042085Y030170D01*
X043885Y030170D01*
X043885Y029830D02*
X043885Y028230D01*
X042085Y028230D01*
X042085Y028380D01*
X041935Y028380D02*
X041935Y027680D01*
X042085Y027680D02*
X042085Y027830D01*
X043885Y027830D01*
X043885Y026230D01*
X044635Y026230D01*
X044635Y027830D01*
X044635Y028230D01*
X044635Y029830D01*
X043635Y029680D02*
X043635Y028380D01*
X042385Y028380D01*
X042385Y027680D02*
X043635Y027680D01*
X043635Y026380D01*
X042385Y026380D01*
X042085Y026430D02*
X042085Y026230D01*
X043885Y026230D01*
X044635Y026230D02*
X044635Y026030D01*
X041935Y026030D01*
X041935Y026430D01*
X041935Y026030D02*
X040935Y026030D01*
X039735Y026030D01*
X039735Y030000D01*
X039835Y029830D02*
X040835Y029830D01*
X040835Y028230D01*
X039835Y028230D01*
X039835Y029830D01*
X040185Y029590D02*
X040435Y028390D01*
X040485Y028440D02*
X040235Y029640D01*
X040195Y029630D02*
X040286Y029684D01*
X040390Y029699D01*
X040493Y029672D01*
X040577Y029608D01*
X040935Y030000D02*
X041935Y030000D01*
X041935Y030370D01*
X042385Y029680D02*
X043635Y029680D01*
X043885Y028230D02*
X044635Y028230D01*
X044635Y027830D02*
X043885Y027830D01*
X040835Y027830D02*
X040835Y026230D01*
X039835Y026230D01*
X039835Y027830D01*
X040835Y027830D01*
X040577Y027608D02*
X040493Y027672D01*
X040390Y027699D01*
X040286Y027684D01*
X040195Y027630D01*
X040235Y027640D02*
X040485Y026440D01*
X040435Y026390D02*
X040185Y027590D01*
X040564Y027627D02*
X040688Y027406D01*
X040750Y027161D01*
X040746Y026909D01*
X040676Y026666D01*
X040545Y026450D01*
X040559Y026467D02*
X040488Y026389D01*
X040391Y026350D01*
X040286Y026357D01*
X040195Y026410D01*
X040215Y026390D02*
X040055Y026563D01*
X039952Y026774D01*
X039914Y027006D01*
X039944Y027239D01*
X040040Y027454D01*
X040193Y027632D01*
X040195Y028410D02*
X040286Y028357D01*
X040391Y028350D01*
X040488Y028389D01*
X040559Y028467D01*
X040215Y028390D02*
X040055Y028563D01*
X039952Y028774D01*
X039914Y029006D01*
X039944Y029239D01*
X040040Y029454D01*
X040193Y029632D01*
X039555Y030230D02*
X039115Y030230D01*
X040195Y030350D02*
X040286Y030297D01*
X040391Y030290D01*
X040488Y030329D01*
X040559Y030407D01*
X040935Y030000D02*
X040935Y026030D01*
X040545Y028450D02*
X040676Y028666D01*
X040746Y028909D01*
X040750Y029161D01*
X040688Y029406D01*
X040564Y029627D01*
X040215Y030329D02*
X040055Y030502D01*
X039952Y030713D01*
X039914Y030945D01*
X039944Y031178D01*
X040040Y031393D01*
X040193Y031571D01*
X039452Y032800D02*
X039232Y032946D01*
X039452Y033093D01*
X039232Y033240D02*
X039232Y032800D01*
X039065Y032873D02*
X038991Y032800D01*
X038845Y032800D01*
X038771Y032873D01*
X039065Y033166D01*
X039065Y032873D01*
X039065Y033166D02*
X038991Y033240D01*
X038845Y033240D01*
X038771Y033166D01*
X038771Y032873D01*
X038605Y032800D02*
X038311Y032800D01*
X038458Y032800D02*
X038458Y033240D01*
X038311Y033093D01*
X037549Y033096D02*
X037549Y033023D01*
X037475Y032950D01*
X037549Y032876D01*
X037549Y032803D01*
X037475Y032730D01*
X037328Y032730D01*
X037255Y032803D01*
X037088Y032730D02*
X036941Y032876D01*
X037015Y032876D02*
X036795Y032876D01*
X036795Y032730D02*
X036795Y033170D01*
X037015Y033170D01*
X037088Y033096D01*
X037088Y032950D01*
X037015Y032876D01*
X037255Y033096D02*
X037328Y033170D01*
X037475Y033170D01*
X037549Y033096D01*
X037475Y032950D02*
X037402Y032950D01*
X040193Y033571D02*
X040040Y033393D01*
X039944Y033178D01*
X039914Y032945D01*
X039952Y032713D01*
X040055Y032502D01*
X040215Y032329D01*
X040215Y034370D02*
X040055Y034543D01*
X039952Y034754D01*
X039914Y034986D01*
X039944Y035219D01*
X040040Y035434D01*
X040193Y035612D01*
X040215Y036339D02*
X040055Y036512D01*
X039952Y036723D01*
X039914Y036955D01*
X039944Y037188D01*
X040040Y037403D01*
X040193Y037581D01*
X043885Y036180D02*
X044635Y036180D01*
X044635Y035810D02*
X043885Y035810D01*
X044635Y034210D02*
X044635Y034000D01*
X044635Y032170D02*
X043885Y032170D01*
X043885Y031770D02*
X044635Y031770D01*
X044635Y037780D02*
X044635Y038000D01*
X044235Y038000D01*
X025585Y037000D02*
X025624Y037323D01*
X025740Y037627D01*
X025925Y037895D01*
X026168Y038111D01*
X026456Y038262D01*
X026772Y038340D01*
X027098Y038340D01*
X027414Y038262D01*
X027702Y038111D01*
X027945Y037895D01*
X028130Y037627D01*
X028246Y037323D01*
X028285Y037000D01*
X028246Y036677D01*
X028130Y036373D01*
X027945Y036105D01*
X027702Y035889D01*
X027414Y035738D01*
X027098Y035660D01*
X026772Y035660D01*
X026456Y035738D01*
X026168Y035889D01*
X025925Y036105D01*
X025740Y036373D01*
X025624Y036677D01*
X025585Y037000D01*
X040854Y014142D02*
X041074Y014142D01*
X041147Y014069D01*
X041147Y013775D01*
X041074Y013702D01*
X040854Y013702D01*
X040854Y014142D01*
X041314Y014069D02*
X041387Y014142D01*
X041534Y014142D01*
X041607Y014069D01*
X041607Y013996D01*
X041534Y013922D01*
X041607Y013849D01*
X041607Y013775D01*
X041534Y013702D01*
X041387Y013702D01*
X041314Y013775D01*
X041461Y013922D02*
X041534Y013922D01*
X040141Y013539D02*
X039847Y013539D01*
X039994Y013539D02*
X039994Y013980D01*
X039847Y013833D01*
X039680Y013906D02*
X039607Y013980D01*
X039460Y013980D01*
X039387Y013906D01*
X039387Y013613D01*
X039460Y013539D01*
X039607Y013539D01*
X039680Y013613D01*
X043906Y013707D02*
X044127Y013707D01*
X044200Y013780D01*
X044200Y014074D01*
X044127Y014147D01*
X043906Y014147D01*
X043906Y013707D01*
X044367Y013707D02*
X044660Y013707D01*
X044514Y013707D02*
X044514Y014147D01*
X044367Y014001D01*
D189*
X025685Y018904D03*
X025685Y018952D03*
X004385Y005652D03*
X004385Y005604D03*
D190*
X004385Y005612D03*
X004385Y005644D03*
X025685Y018912D03*
X025685Y018944D03*
D191*
X025685Y018936D03*
X025685Y018928D03*
X004385Y005636D03*
X004385Y005628D03*
D192*
X004385Y005620D03*
X025685Y018920D03*
D193*
X025689Y018848D03*
X004389Y005548D03*
D194*
X004389Y005540D03*
X025689Y018840D03*
D195*
X025689Y018832D03*
X025689Y018824D03*
X025689Y018816D03*
X004389Y005532D03*
X004389Y005524D03*
X004389Y005516D03*
D196*
X004389Y005508D03*
X025689Y018808D03*
D197*
X025689Y018800D03*
X004389Y005500D03*
D198*
X004393Y005444D03*
X004393Y005396D03*
X025693Y018696D03*
X025693Y018744D03*
D199*
X025693Y018736D03*
X025693Y018704D03*
X004393Y005436D03*
X004393Y005404D03*
D200*
X004393Y005412D03*
X004393Y005428D03*
X025693Y018712D03*
X025693Y018728D03*
D201*
X025693Y018720D03*
X004393Y005420D03*
D202*
X004389Y005388D03*
X004389Y005372D03*
X004389Y005364D03*
X004389Y005356D03*
X004389Y005348D03*
X025689Y018648D03*
X025689Y018656D03*
X025689Y018664D03*
X025689Y018672D03*
X025689Y018688D03*
D203*
X025689Y018680D03*
X025689Y018640D03*
X004389Y005380D03*
X004389Y005340D03*
D204*
X004389Y005332D03*
X004389Y005284D03*
X025689Y018584D03*
X025689Y018632D03*
D205*
X025689Y018624D03*
X025689Y018592D03*
X004389Y005324D03*
X004389Y005292D03*
D206*
X004389Y005308D03*
X004389Y005316D03*
X025689Y018608D03*
X025689Y018616D03*
D207*
X025689Y018600D03*
X004389Y005300D03*
D208*
X004393Y005276D03*
X004393Y005268D03*
X004393Y005252D03*
X004393Y005244D03*
X004393Y005236D03*
X004393Y005228D03*
X004393Y005212D03*
X004393Y005204D03*
X004393Y005196D03*
X004393Y005188D03*
X004393Y005172D03*
X004393Y005164D03*
X004393Y005156D03*
X004393Y005148D03*
X004393Y005132D03*
X004393Y005124D03*
X004393Y005116D03*
X004393Y005108D03*
X004393Y005092D03*
X004393Y005084D03*
X004393Y005076D03*
X004393Y005068D03*
X004393Y005052D03*
X004393Y005044D03*
X004393Y005036D03*
X004393Y005028D03*
X004393Y005012D03*
X004393Y005004D03*
X004393Y004996D03*
X004393Y004988D03*
X004393Y004972D03*
X004393Y004964D03*
X004393Y004956D03*
X004393Y004948D03*
X004393Y004932D03*
X004393Y004924D03*
X004393Y004916D03*
X004393Y004908D03*
X004393Y004892D03*
X004393Y004884D03*
X004393Y004876D03*
X004393Y004868D03*
X004393Y004852D03*
X004393Y004844D03*
X004393Y004836D03*
X004393Y004828D03*
X004393Y004812D03*
X004393Y004804D03*
X004393Y004796D03*
X004393Y004788D03*
X025693Y018088D03*
X025693Y018096D03*
X025693Y018104D03*
X025693Y018112D03*
X025693Y018128D03*
X025693Y018136D03*
X025693Y018144D03*
X025693Y018152D03*
X025693Y018168D03*
X025693Y018176D03*
X025693Y018184D03*
X025693Y018192D03*
X025693Y018208D03*
X025693Y018216D03*
X025693Y018224D03*
X025693Y018232D03*
X025693Y018248D03*
X025693Y018256D03*
X025693Y018264D03*
X025693Y018272D03*
X025693Y018288D03*
X025693Y018296D03*
X025693Y018304D03*
X025693Y018312D03*
X025693Y018328D03*
X025693Y018336D03*
X025693Y018344D03*
X025693Y018352D03*
X025693Y018368D03*
X025693Y018376D03*
X025693Y018384D03*
X025693Y018392D03*
X025693Y018408D03*
X025693Y018416D03*
X025693Y018424D03*
X025693Y018432D03*
X025693Y018448D03*
X025693Y018456D03*
X025693Y018464D03*
X025693Y018472D03*
X025693Y018488D03*
X025693Y018496D03*
X025693Y018504D03*
X025693Y018512D03*
X025693Y018528D03*
X025693Y018536D03*
X025693Y018544D03*
X025693Y018552D03*
X025693Y018568D03*
X025693Y018576D03*
D209*
X025693Y018560D03*
X025693Y018520D03*
X025693Y018480D03*
X025693Y018440D03*
X025693Y018400D03*
X025693Y018360D03*
X025693Y018320D03*
X025693Y018280D03*
X025693Y018240D03*
X025693Y018200D03*
X025693Y018160D03*
X025693Y018120D03*
X025693Y018080D03*
X004393Y005260D03*
X004393Y005220D03*
X004393Y005180D03*
X004393Y005140D03*
X004393Y005100D03*
X004393Y005060D03*
X004393Y005020D03*
X004393Y004980D03*
X004393Y004940D03*
X004393Y004900D03*
X004393Y004860D03*
X004393Y004820D03*
X004393Y004780D03*
D210*
X004389Y004772D03*
X025689Y018072D03*
D211*
X001450Y000570D02*
X000755Y001091D01*
X001450Y001611D01*
X001843Y001091D02*
X002538Y001091D01*
X020331Y001264D02*
X020678Y001611D01*
X020678Y000570D01*
X020331Y000570D02*
X021025Y000570D01*
X021418Y000570D02*
X022113Y000570D01*
X021766Y000570D02*
X021766Y001611D01*
X021418Y001264D01*
X022506Y001091D02*
X022506Y000743D01*
X022679Y000570D01*
X023027Y000570D01*
X023200Y000743D01*
X023200Y000917D01*
X023027Y001091D01*
X022506Y001091D01*
X022853Y001438D01*
X023200Y001611D01*
X024681Y001611D02*
X024681Y000570D01*
X025375Y000570D02*
X025375Y001611D01*
X025028Y001264D01*
X024681Y001611D01*
X025768Y001611D02*
X026116Y001264D01*
X026463Y001611D01*
X026463Y000570D01*
X025768Y000570D02*
X025768Y001611D01*
X045344Y001091D02*
X046038Y001091D01*
X046431Y000570D02*
X047126Y001091D01*
X046431Y001611D01*
X048094Y002570D02*
X048615Y003264D01*
X048094Y003657D02*
X048094Y004352D01*
X047573Y003264D02*
X048094Y002570D01*
X047921Y018882D02*
X048094Y019056D01*
X048094Y019577D01*
X047747Y019577D02*
X047573Y019403D01*
X047573Y019056D01*
X047747Y018882D01*
X047921Y018882D01*
X048442Y018882D02*
X048615Y019056D01*
X048615Y019403D01*
X048442Y019577D01*
X047747Y019577D01*
X047747Y019970D02*
X047573Y020144D01*
X047573Y020491D01*
X047747Y020664D01*
X047921Y020664D01*
X048615Y019970D01*
X048615Y020664D01*
X048615Y022145D02*
X047573Y022145D01*
X047921Y022492D01*
X047573Y022840D01*
X048615Y022840D01*
X048615Y023232D02*
X047573Y023232D01*
X047921Y023580D01*
X047573Y023927D01*
X048615Y023927D01*
X048094Y037370D02*
X048094Y038065D01*
X047573Y038458D02*
X048094Y039152D01*
X048615Y038458D01*
D212*
X033025Y008430D03*
X032355Y008430D03*
X031685Y008430D03*
X031015Y008430D03*
X030345Y008430D03*
D213*
X032266Y011500D03*
D214*
X041185Y012080D03*
X044185Y010919D03*
X044185Y006580D03*
X041185Y005419D03*
D215*
X010727Y005409D03*
D216*
X026305Y006000D02*
X026343Y006215D01*
X026452Y006405D01*
X026620Y006546D01*
X026826Y006620D01*
X027044Y006620D01*
X027250Y006546D01*
X027418Y006405D01*
X027527Y006215D01*
X027565Y006000D01*
X027527Y005785D01*
X027418Y005595D01*
X027250Y005454D01*
X027044Y005380D01*
X026826Y005380D01*
X026620Y005454D01*
X026452Y005595D01*
X026343Y005785D01*
X026305Y006000D01*
X026305Y037000D02*
X026343Y037215D01*
X026452Y037405D01*
X026620Y037546D01*
X026826Y037620D01*
X027044Y037620D01*
X027250Y037546D01*
X027418Y037405D01*
X027527Y037215D01*
X027565Y037000D01*
X027527Y036785D01*
X027418Y036595D01*
X027250Y036454D01*
X027044Y036380D01*
X026826Y036380D01*
X026620Y036454D01*
X026452Y036595D01*
X026343Y036785D01*
X026305Y037000D01*
M02*
